<?xml version="1.0" encoding="utf-8"?>
<!-- Generator: Adobe Illustrator 21.1.0, SVG Export Plug-In . SVG Version: 6.00 Build 0)  -->
<svg version="1.1" id="Layer_1" xmlns="http://www.w3.org/2000/svg" xmlns:xlink="http://www.w3.org/1999/xlink" x="0px" y="0px"
	 viewBox="0 0 168.6 323" enable-background="new 0 0 168.6 323" xml:space="preserve">
<g id="QdbjQW.tif">
	<g>
		<path fill="#B1ADA2" d="M168.4,193.2c0.1,0,0.1,0,0.2,0c0,0.8,0,1.6,0,2.4c-0.1,0-0.1,0-0.2,0C167.8,194.8,167.8,194,168.4,193.2z
			"/>
		<path fill="#B1ADA2" d="M112.4,0.2c0-0.1,0-0.1,0-0.2c0.6,0,1.1,0,1.7,0c0,0.1,0,0.1,0,0.2C113.6,0.7,113,0.7,112.4,0.2z"/>
		<path fill="#B1ADA2" d="M55.8,0c0,0.1,0,0.1,0,0.2c-0.5,0.5-1,0.5-1.5,0c0-0.1,0-0.1,0-0.2C54.8,0,55.3,0,55.8,0z"/>
		<path fill="#0B0A09" d="M54.4,0.2c0.5,0,1,0,1.5,0c2.7,0.7,5,2.3,7.1,4.1c1.9,1.7,3.7,3.6,5.2,5.6c0.6,0.8,1.7,0.8,2.5,1.5
			c0-0.7-0.6-1.2-0.2-1.7c0.2-0.2,0.5-0.2,0.7,0c1.9,1.2,4,1,6.1,0.6c2.1-0.4,4.3-0.9,6.6-0.8c-0.5-1.1-1.2-2.1-1.3-3.2
			c0-0.4-0.2-0.8,0.3-1c0.4-0.2,0.7,0.1,1,0.5c0.5,0.7,1.2,1.1,2,1.5c1.4,0.6,2.9,1.3,4.4,1.9c0-1,0.1-2,0.1-3c0-0.5,0.2-1,0.7-1.1
			c0.5,0,0.6,0.5,0.7,1c0.2,0.7,0.4,1.4,0.7,2c0.5,1.7,1.5,3,3.1,3.8c0.9,0.4,1.6,1,2.3,1.8c1.8-2.5,3.5-5,5.7-7.2
			c2.6-2.7,5.5-5,9.1-6.2c0.6,0,1.1,0,1.7,0c2.1,0.7,3.1,2.5,3.8,4.4c2.8,7.9,3.9,16.1,3,24.5c-0.2,1.5-0.3,3-0.6,4.5
			c-0.8,3.5-2.3,6.5-5.5,8.6c0.9,0.7,2,0.8,2.9,1c0.9,0.3,1.9,0.5,2.9,0.7c0.4,0.1,0.9,0.2,1,0.7c0.1,0.6-0.5,0.7-0.8,0.9
			c-0.7,0.4-1.4,0.8-2.1,1.2c2,2.3,3.3,5.3,5.9,7.2c0.3,0.2,0.3,0.5,0.2,0.8c-0.1,0.4-0.4,0.4-0.8,0.4c-1.3,0.1-2.6,0.1-4-0.3
			c0.8,3.4,0.5,6.9,1.4,10.2c0.3,1-0.3,1.4-1.3,1c-0.3-0.1-0.6-0.4-0.9-0.5c-0.3-0.2-0.5-0.3-1-0.6c0.1,1.3,0.2,2.4,0.3,3.5
			c0,0.8-0.3,1.4-1.2,0.9c-3.2-1.5-6.5-1.5-9.9-0.7c0.9,2.6,2.1,5.1,4,7.2c1.2,1.3,3.1,1.6,4.8,2.2c4.4,1.5,8.8,3.1,13.4,3.8
			c1.2,0.2,2.3,0.1,3.4-0.4c0.4-0.1,0.8-0.3,1.1,0.1c0.3,0.4,0,0.8-0.2,1.1c-0.3,0.5-0.7,1.1-1,1.6c1.2,1.3,2.4,2.6,3.5,3.9
			c0.6,0.7,1.4,1,2.2,1.4c0.3,0.1,0.7,0.3,0.6,0.8c0,0.4-0.2,0.7-0.7,0.9c-0.8,0.3-1.7,0.7-2.6,1.1c0.5,1.3,1.1,2.6,1.6,3.9
			c0.2,0.5,0.7,0.9,0.3,1.4c-0.4,0.5-1,0.2-1.5,0.2c-0.2,0-0.5-0.1-0.7-0.1c0.4,3,0.8,5.9,1.3,8.9c0.8,4.1,1.6,8.1,2.5,12.2
			c1.3,5.7,3,11.3,4.9,16.9c2.3,6.6,3.8,13.4,6,20c2.3,6.9,5.5,13.4,8.6,20.1c1.2,2.6,2.8,4.9,4.6,7.1c2.6,3,4.5,6.4,4.8,10.5
			c0,0.8,0,1.6,0,2.4c-0.2,1.1-0.4,2.3-0.9,3.3c-0.7,1.5-1.8,2.9-1.9,4.7c0,0.4-0.4,0.8-0.7,1.1c-0.8,0.9-1.2,0.9-2.2,0
			c-0.9,1.6-2.1,2.8-3.6,3.9c-0.7,0.5-0.9,1.4-1.6,1.9c-0.7,0.6-1.4,0.9-2-0.1c-0.2-0.4-0.5-0.3-0.8-0.3c-2.2-0.2-4.2,0.6-6.4,0.4
			c-0.5,0-0.6,0.4-0.9,0.7c-0.9,0.9-1.6,0.8-2-0.4c-0.2-0.6-0.6-1-1.2-1.2c-2.3-0.8-4.1-2.3-5.6-4.2c-0.4-0.5-0.8-1.1-1.4-1.5
			c-0.4-0.2-0.8-0.4-1.3,0c-0.8,0.7-1.4,0.5-1.9-0.5c-0.4-0.8-0.9-1.5-1.5-2.1c-3.4-3.1-4.2-7.1-3.7-11.5c0.3-2.5,0.9-5,1.8-7.4
			c0.8-2.3,0.4-4.5,0-6.7c-1.3-6.8-3.1-13.5-4.8-20.3c-0.5-2.1-0.8-4.2-1.1-6.3c-0.3-2.4-1.1-4.6-2.1-6.8c-2.1-4.3-3.4-8.9-5.3-13.3
			c-1.3-3.2-2.5-6.4-3.8-9.7c-0.5,1.1-0.2,2.1-0.3,3.1c-0.4,6.2-0.7,12.3-0.8,18.5c-0.1,9,0.6,17.9,2.8,26.7
			c2.3,9.2,5.1,18.4,7.4,27.6c1.5,6,3.2,12.1,4.1,18.2c0.6,4.1,1.1,8.1,1.2,12.2c0.1,3.5,0.5,7-0.1,10.5c-0.9,5.3-1.7,10.7-2.5,16
			c-0.4,3-0.6,6.1-0.8,9.2c-0.4,4.8-0.1,9.6,0.1,14.4c0.1,4.4,0.6,8.8,1.6,13.1c0.2,0.7,0.4,1.4,1,1.9c1.7,1.6,3.4,3,5.8,3.5
			c5.2,1.1,8,4.8,9.6,9.5c1,3.1,1.4,6.2-0.2,9.2c-1.1,2-2.4,4-4.1,5.7c-1.7,1.6-3.8,2.3-6,2.3c-2,0-3.7,0.4-5.6,1.1
			c-3.3,1.2-6.7,0.7-9.9-0.3c-2.7-0.8-5.3-1.7-8.2-1.8c-4.8-0.2-8.1-3-10.3-7.2c-1.9-3.7-3.1-7.5-2.9-11.8c0.2-4.5,0.1-9,0-13.4
			c-0.1-7.5-0.6-14.9-1.8-22.3c-0.1-0.4-0.1-0.8-0.2-1.4c-1.7,1.6-2.2,3.7-3.5,5.2c-0.5-0.2-0.6-0.5-0.8-1c-1.2,1.7-2.5,3.3-3.8,4.8
			c-0.7,0.9-1.3,0.8-2,0c-1.2-1.5-2.5-3-3.6-4.6c-0.6,0.7-1.1,0.9-1.7-0.1c-0.8-1.5-1.5-3-2.8-4.4c-0.3,1.6-0.6,3.1-0.8,4.6
			c-1,7.5-1.3,15-1.3,22.6c0,4.4-0.1,8.9,0,13.3c0,3.1-1.5,5.8-2.9,8.5c-2.6,5.3-6.9,7.6-12.7,7.4c-0.9,0-1.7,0.2-2.5,0.5
			c-3.6,1.4-7.2,2.5-11.2,2c-0.6-0.1-1.3-0.3-1.8-0.5c-2-0.9-4.2-1.1-6.4-1.2c-3.5-0.2-6-2.1-7.7-5.1c-0.1-0.1-0.1-0.3-0.2-0.4
			c-3.7-4-3.1-8.5-1.3-12.9c1.7-4.2,4.7-7,9.3-8.2c3.7-0.9,6.4-3,7-7.2c0.7-4.8,1.2-9.6,1.2-14.4c0-2,0.1-3.9,0.1-5.9
			c0-6.5-0.8-13-1.7-19.5c-0.7-5-2.1-10-2.1-15.1c0-5,0.2-10,0.9-14.9c1.4-11,4.7-21.6,7.4-32.2c1.7-6.4,3.7-12.7,5-19.2
			c1.1-5.1,1.7-10.1,2.1-15.3c0.3-4.2,0.1-8.5,0.1-12.7c0-5.1-0.4-10.2-0.7-15.3c-0.1-1,0.2-2-0.3-3.1c-0.9,2.4-1.8,4.6-2.7,6.9
			c-2.1,5.3-3.9,10.7-6.3,15.9c-1.3,2.9-2.1,5.9-2.5,9c-0.4,3.6-1.6,7-2.4,10.5c-1.3,5.5-2.8,11-3.7,16.6c-0.3,1.9,0.3,3.7,0.8,5.5
			c0.9,2.9,1.5,5.9,1.5,9c0,3.1-1.1,5.8-3.4,8c-0.8,0.8-1.5,1.5-1.8,2.6c-0.3,0.8-1.1,1.2-1.7,0.7c-1.1-1-1.7-0.2-2.3,0.5
			c-0.7,0.8-1.2,1.6-2,2.3c-1.2,1.2-2.5,2.1-4.1,2.6c-0.6,0.2-1,0.5-1.2,1.2c-0.4,1.3-1.2,1.4-2.1,0.4c-0.3-0.3-0.4-0.7-0.9-0.6
			c-2.1,0.2-4.2-0.7-6.3-0.4c-0.3,0-0.6-0.1-0.9,0.3c-0.6,0.9-1.4,0.7-1.9,0c-1.5-2.1-4-3.4-5.2-5.7c-1.3,0.8-2.3,0.6-2.7-0.9
			c-0.6-2.4-2.3-4.3-2.8-6.7c-1-4.2,0.1-8,2.3-11.6c0.7-1.2,1.5-2.3,2.4-3.3c2.2-2.3,3.6-5.1,4.9-8c3-6.4,6-12.8,8.2-19.5
			c2.1-6.4,3.6-13,5.8-19.4c1.4-4,2.7-8,3.8-12.1c1.3-5.1,2.4-10.3,3.3-15.5c0.6-3.2,1.1-6.5,1.6-9.8c0-0.2,0-0.4,0-0.5
			c-0.1,0-0.2-0.1-0.3-0.1c-2.3,0.2-2.3,0.1-1.5-1.9c0.5-1.2,1-2.4,1.5-3.6c-0.9-0.4-1.8-0.7-2.7-1.2c-0.9-0.4-1-1.2-0.1-1.5
			c2.7-1,3.9-3.6,6-5.3c-0.4-0.7-0.9-1.3-1.2-1.9c-0.3-0.6,0-1.3,0.7-1c2.8,1.2,5.4,0.2,7.9-0.5c4.4-1.1,8.6-2.5,12.8-4.3
			c0.9-0.4,1.5-0.9,2.1-1.7c1.3-2,2.5-4,3.2-6.3c-3.4-0.9-6.7-0.8-9.9,0.7c-0.8,0.4-1.3,0.1-1.2-0.9c0.1-1.1,0.3-2.2,0.2-3.4
			c-0.6,0.4-1.2,0.7-1.8,1c-0.4,0.2-0.8,0.3-1.1,0c-0.4-0.3-0.3-0.7-0.2-1.1c0.9-3.3,0.6-6.7,1.3-10.1c-1.3,0.2-2.6,0.4-3.8,0.3
			c-0.4,0-0.8,0-0.9-0.4c-0.1-0.3,0-0.6,0.3-0.8c1.8-1.4,3-3.4,4.3-5.2c0.4-0.6,0.8-1.3,1.5-1.8c-0.8-0.4-1.5-0.8-2.1-1.2
			c-0.4-0.2-1-0.3-0.9-1c0.1-0.6,0.7-0.6,1.1-0.7c1.5-0.4,2.9-0.7,4.4-1.1c0.4-0.1,0.8-0.3,1.4-0.5c-2.7-1.8-4.3-4.2-5.2-7.2
			c-0.7-2.4-0.9-4.8-1.1-7.2c-0.4-4.3-0.2-8.6,0.5-12.9c0.6-3.8,1.5-7.6,3.1-11.2C51.6,2.1,52.6,0.8,54.4,0.2z"/>
		<path fill="#B1ADA2" d="M36.7,82.9c2.1,0.3,4-0.2,6-0.7c4.4-1,8.6-2.5,12.7-4.1c2.1-0.8,4.2-1.5,6.5-2.3c-0.9,2.2-1.7,4.2-3.1,5.9
			c-0.2,0.2-0.6,0.4-0.5,0.9c0,0.1,0,0.1,0,0.1c0.4,0.5,0.8,0,1.1-0.1c1.2-0.3,1.4-0.2,1.2,1c-0.1,1.3,0.1,2.5,0.3,3.7
			c0.4,1.9,0.4,3.7,0.3,5.6c0,1.1-0.5,2-0.9,3c-1.1,1.1-1.2,2.6-1.8,4c-0.3,0.8-0.5,1.6-0.6,2.4c0.4-0.1,0.6-0.5,1.1-0.5
			c0.1,0,0.2,0.1,0.3,0.2c0,2.1-0.4,4.2-0.5,6.3c0,0.5-0.1,1.1-0.1,1.7c1,0.1,1.1-1.2,2-1.2c0.3,0.1,0.4,0.3,0.4,0.5
			c0.7,4.3,2.9,8,5.2,11.6c0.3,0.5,0.7,1.1,0.9,1.7c0.8,3.6,0.9,7.3,1,11c0,3.2,0,6.3,0,9.5c0,4-0.4,7.9-0.7,11.8
			c-0.2,2.9-0.4,5.8-0.6,8.7c-0.3,4.3-0.7,8.5-1.3,12.8c-0.7,5.4-1.7,10.8-2.3,16.3c-1.1,11.1,1,21.4,6.9,30.9
			c0.9,1.4,1.7,2.9,2.6,4.3c0.4,0.6,0.8,1.2,0.9,1.9c-0.9,3.7-2.3,7.2-3.3,10.9c0.7-1,0.9-2.3,1.5-3.5c1.1,4.8,2.6,9.2,2.4,13.9
			c-0.4,0.5-1.1,0.7-1.7,0.8c-3.8,1-7.6,1.5-11.5,1.8c-4.4,0.2-8.7,0.2-13-0.6c-1.5-0.3-3-0.3-4.3-1.3c-0.7-4.7-1.4-9.4-2.1-14.1
			c0.2-0.3,0.4-0.3,0.7-0.4c4-0.8,7.6-2.4,10.7-5.1c0.8-0.7,1.4-1.4,2-2.2c0.6-0.9,0.3-1.6-0.8-1.9c-0.8-0.2-1.5,0-2.3,0.1
			c-2.5,0.5-5.1,1.1-7.7,1.2c-1.1,0-2.1,0.2-3.1-0.5c0.1-4.1,0.4-8.2,1-12.2c0.4-0.4,1-0.4,1.6-0.5c4.3-1,8-3,10.9-6.2
			c0.6-0.6,1.4-1.2,0.9-2.1c-0.5-0.9-1.5-0.9-2.5-0.7c-2.9,0.5-5.7,1.4-8.6,1.3c-0.3,0-0.6,0.1-0.9-0.2c0.7-3.9,1.6-7.7,2.7-11.5
			c0.1-0.2,0.2-0.3,0.3-0.5c1.3-0.8,2.8-1.2,4.1-2c1.8-1.1,3.4-2.4,4.8-3.9c0.5-0.5,1.2-1.2,0.8-2c-0.4-0.9-1.3-0.9-2.2-0.7
			c-1.4,0.3-2.8,0.6-4.2,0.8c-0.4,0.1-0.9,0.3-1.3-0.1c1.6-6,3.5-11.9,5-18c2.2-8.9,3.4-17.9,3.2-27c-0.1-6.2-0.2-12.3-0.8-18.5
			c-0.3-3-0.4-6.1-0.5-9.2c0-0.3,0.1-0.6,0.1-1.1c1.6,0.5,2.4,1.8,3.5,2.7c0.1-0.1,0.2,0,0.2,0.1c0,0,0.1,0,0.1,0s-0.1,0-0.1,0
			c0-0.1,0-0.2-0.1-0.2c-0.8-1.2-1.8-2.1-2.9-3c-0.8-0.6-1.3-0.5-1.7,0.4c-0.6,1.4-1.1,2.9-1.7,4.4c-2.7,7.1-5.4,14.3-8.1,21.4
			c-0.3,0.7-0.7,1.3-1,1.9c-0.5,0.3-0.9-0.1-1.3-0.3c-5-3-10.5-4.7-16.2-6.1c-0.4-0.1-1.1,0.1-1.1-0.8c0.3-2.1,1.2-3.9,1.8-5.9
			c2.7-9,4.7-18.1,5.9-27.4c0.3-2.1,0.4-4.3,1.6-6.4c-1.1,0.3-1.8,1.1-3,1.3c0.9-1.8,1.1-3.7,2.6-5.1c-1.2-0.5-2.4-0.6-3.6-1.3
			c3-1.2,3.8-4.9,7.1-5.8c-0.6-0.4-1.2-0.7-1.5-1.3C36.6,83,36.6,82.9,36.7,82.9z"/>
		<path fill="#B1ADA2" d="M94,251c-0.1-3.4,0.6-6.7,1.4-9.9c0.3-1.2,0.6-2.4,1-3.7c0.8,1.1,0.8,2.5,1.7,3.4
			c-1.1-3.7-2.3-7.5-3.4-11.2c1.1-2.4,2.7-4.4,3.9-6.7c3-5.3,5.5-10.8,6.3-17c0.9-6.5,0.5-12.9-0.5-19.3c-1-6.2-2-12.5-2.5-18.8
			c-0.3-4.1-0.5-8.1-0.8-12.2c-0.7-7.9-0.8-15.8-0.6-23.7c0.1-3.1,0.2-6.2,0.9-9.3c0.1-0.7,0.5-1.2,0.9-1.8c1.7-2.4,3.1-5,4.1-7.8
			c0.4-1,0.7-2,0.8-3.1c0-0.4,0.1-0.9,0.6-1.1c0.9,0.1,1,1.2,2,1.4c0-1.1-0.2-2.2-0.3-3.3c-0.2-1.3,0-2.6-0.2-3.9
			c-0.1-0.9,0.5-0.9,1.3-0.6c-0.8-2.4-1-4.8-2.6-6.6c-0.4-0.9-0.8-1.8-0.8-2.8c-0.2-2.6,0.2-5.2,0.6-7.8c0.1-0.7-0.3-1.4-0.1-2.1
			c0-0.1,0.1-0.2,0.2-0.3c0.7-0.4,1.2,0.2,1.9,0.3c0.2,0,0.3,0.2,0.6,0.2c0.1-0.2-0.2-0.2-0.2-0.3c-0.2-0.3-0.5-0.6-0.6-0.9
			c0-0.1,0-0.1,0-0.2c-1.1-1.7-2-3.6-2.9-5.7c8.6,2.6,16.5,6.8,25.4,7.1c-0.2,0.5-0.8,0.8-1.5,1.3c3.3,0.9,4,4.6,7,5.8
			c-1.1,0.7-2.4,0.8-3.6,1.3c1.5,1.4,1.7,3.3,2.6,5.1c-1.2-0.2-2-0.9-2.9-1.3c-0.1,0-0.1,0-0.1,0c0,0.1,0,0.1,0,0.1
			c1.5,3.1,1.4,6.5,1.9,9.8c1.7,9.8,3.8,19.6,7.1,29c0.1,0.3,0.2,0.6,0.2,0.9c-0.2,0.6-0.8,0.6-1.3,0.7c-4.3,1-8.5,2.4-12.6,4.2
			c-1.2,0.5-2.3,1.2-3.5,1.9c-0.4,0.2-0.8,0.6-1.3,0.3c-1.7-2.8-2.6-6-3.7-9c-2.2-5.9-4.5-11.9-6.7-17.8c-0.1-0.3-0.3-0.7-0.5-1
			c-0.4-0.7-0.9-0.7-1.5-0.3c-1.3,0.9-2.4,2-3.2,3.4c-0.1,0.2,0.1,0.1,0.2,0.1c1.2-0.9,2-2.2,3.5-2.9c0.5,1.2,0.2,2.3,0.1,3.3
			c-0.3,3.4-0.3,6.9-0.6,10.4c-0.5,5.1-0.4,10.2-0.5,15.3c-0.2,10.1,1.3,20,4,29.8c1.3,4.8,2.7,9.6,4.1,14.4
			c0.1,0.2,0.1,0.5,0.1,0.7c-0.4,0.3-0.8,0.1-1.3,0.1c-1.3-0.2-2.6-0.5-3.9-0.8c-0.4-0.1-0.9-0.2-1.3-0.1c-1.3,0.3-1.7,1-0.9,2.1
			c1.5,2.1,3.6,3.6,5.8,4.9c0.9,0.5,1.7,1,2.7,1.3c0.4,0.1,0.7,0.3,1,0.6c1.3,3.8,2,7.7,2.9,11.6c-1.2,0.4-2.4,0.3-3.5,0.1
			c-1.6-0.2-3.2-0.5-4.7-0.9c-0.6-0.1-1.2-0.3-1.8-0.3c-0.8-0.1-1.5,0.1-1.9,0.8c-0.4,0.7,0.1,1.2,0.5,1.7c2.2,2.7,5,4.5,8.3,5.8
			c1.1,0.4,2.3,0.8,3.5,1c0.4,0.1,0.8,0.1,1.1,0.5c0.6,3.3,0.8,6.7,0.9,10.1c0,0.7,0,1.4,0,2.1c-0.8,0.6-1.8,0.6-2.8,0.5
			c-2.5-0.2-5-0.6-7.4-1.2c-0.7-0.2-1.5-0.3-2.3-0.3c-1.4,0.1-1.9,1-1.1,2.2c0.5,0.8,1.2,1.4,1.9,2c3,2.6,6.4,4.3,10.2,5
			c0.4,0.1,0.8,0,1.1,0.4c-0.5,3.5-1.1,7-1.6,10.5c-0.2,1.2-0.4,2.4-0.5,3.5c-0.4,0.4-0.8,0.6-1.4,0.7c-5.1,1.3-10.3,1.6-15.5,1.3
			c-4-0.2-7.8-0.7-11.7-1.7C95.1,251.7,94.4,251.6,94,251z"/>
		<path fill="#FAF4C4" d="M101.6,122.2c-0.3,2.5-0.6,5-0.8,7.5c-0.1,1.4-0.1,2.8-0.1,4.2c0,3.9-0.1,7.8,0,11.7
			c0.2,4.2,0.6,8.4,0.9,12.6c0.2,2.7,0.4,5.4,0.5,8.1c0.3,5.1,1.1,10.1,1.8,15.1c0.6,4.5,1.4,9,1.7,13.6c0.3,6.2-0.1,12.4-2.2,18.3
			c-2,5.7-5.1,10.8-8.3,15.9c-0.1,0.2-0.3,0.3-0.4,0.4c-2.1-7.7-3.8-15.5-4.9-23.5c-0.5-3.3-1.1-6.6-1.2-9.9c0-0.8,0.3-1.3,0.9-1.7
			c3.3-2,5.3-5,7-8.3c0.1-0.1,0.1-0.2,0.1-0.3c0-0.1,0-0.1,0-0.2c0,0.1-0.1,0.1-0.2,0.1c-1.5,2-2.9,4-4.6,5.8
			c-4.4,4.6-10.8,4.5-15.1-0.1c-1.5-1.6-2.8-3.5-4.2-5.2c-0.1,0-0.1,0-0.2-0.1c0,0,0,0.1,0,0.1s0.1,0.1,0.1,0.1c0,0.1,0,0.2,0.1,0.3
			c1.8,3.1,3.8,6,7,7.9c0.6,0.3,0.8,0.8,0.7,1.5c-0.2,4.4-1,8.7-1.7,13c-1,6.7-2.6,13.4-4.3,20c-0.1,0.2-0.1,0.4-0.2,0.5
			c-3.8-5.6-7.2-11.4-9.3-17.9c-1-3.1-1.4-6.4-1.6-9.8c-0.5-6.5,0.5-12.8,1.4-19.1c0.7-4.8,1.4-9.5,1.8-14.3c0.4-4.5,0.6-9.1,1-13.6
			c0.7-7.6,0.8-15.2,0.6-22.8c-0.1-3.1-0.2-6.1-0.9-9.1c-0.1-0.2,0-0.5,0-0.7c0.6,0,0.8,0.6,1.1,1c1.6,2.2,3.1,4.5,4.4,6.9
			c0.3-0.3,0-0.7,0.6-1c1.8,3,3.5,6,5.1,9.3c0.5-0.6,0-1.4,0.7-2c1.8,3.1,3.9,6,5.4,9.4c1.6-3.3,3.6-6.3,5.5-9.4
			c0.7,0.6,0.3,1.3,0.6,2.1c1.6-3.4,3.6-6.3,5-9.5c0.6,0.2,0.5,0.7,0.7,1.1c1-2,2.3-3.8,3.5-5.6
			C100.2,123.8,100.6,122.8,101.6,122.2z"/>
		<path fill="#FAF4C4" d="M44.1,251.8c3,0.6,5.9,1.3,8.9,1.5c2.3,0.2,4.6,0.2,6.9,0.1c3.3-0.2,6.7-0.3,9.9-1.2
			c1.5-0.4,3.1-0.8,4.6-1.2c0.3,4.9-0.3,9.7-1.1,14.5c-0.9,5.8-1.4,11.6-1.6,17.4c-0.2,7.1-0.3,14.1-0.3,21.2c0,3.2-1.5,6-3,8.9
			c-2.2,4.4-5.9,6.1-10.6,6.1c-2.7,0-2.4-0.2-2.6-2.4c-0.3-4.1,0.2-8,2.3-11.6c0.4-0.7,0.9-1.3,1.3-2c0.1-0.1,0.2-0.2,0.3-0.4
			c0.1-0.1,0.2-0.2,0.3-0.3c0.3-0.3,0.6-0.6,1-0.8c-0.4,0.2-0.8,0.5-1.1,0.8c-0.1,0.1-0.2,0.2-0.4,0.3c-0.1,0.1-0.2,0.3-0.4,0.1
			c-2.7,3-3.7,6.6-4,10.5c-0.1,1.6-0.1,3.2,0.2,4.8c0.1,0.6,0,1-0.6,1.3c-4.5,1.9-9,2.8-13.9,1.3c-0.9-0.3-1.5-0.9-1.6-1.9
			c-0.4-4.9,0.3-9.6,2.5-14.1c0.5-1.1,1.3-2,2-3c0.1-0.2,0.1-0.4,0.3-0.6c0.6-0.5,1.2-0.9,1.8-1.4c0.3-0.2,0.6-0.3,0.9-0.4
			c0.1-0.1,0.3-0.1,0.3-0.3c-0.1,0.1-0.2,0.2-0.2,0.2c-0.3,0.1-0.7,0.2-1,0.4c-0.6,0.4-1.2,0.9-1.9,1.4c-0.2,0.1-0.1,0.5-0.4,0.3
			c-2.9,3-4,6.8-4.7,10.8c-0.3,2.1-0.4,4.3-0.1,6.5c0.1,0.8-0.1,1.2-1,1.1c-2.8-0.1-5.5-0.5-7.6-2.7c-1.2-1.3-1.9-2.8-1.8-4.7
			c0.2-4.4,1.3-8.5,4.6-11.7c1.4-1.4,3.2-2.2,5-3c0.5-0.3,1.1-0.1,1.6-0.3c-0.5,0.1-1.1,0.1-1.6,0.1c-4,1-6.6,3.6-8.3,7.3
			c-0.2,0.5-0.4,1-0.5,1.5c-0.1,0.5-0.2,0.8-0.9,0.7c-0.8-0.1-1.2,0.7-1.4,1.4c-0.2,0.9-0.2,1.9,0.5,2.5c0.9,0.8,0.8,1.7,0.8,2.8
			c-0.8-0.5-1.1-1.2-1.3-1.9c-1.1-3.3-0.6-6.5,0.9-9.5c1.8-3.7,4.5-6.3,8.7-7.1c2.5-0.5,4.5-2.1,6.1-4c1.3-1.5,1.3-3.6,1.5-5.5
			c1.1-7.3,1.1-14.7,1.1-22.1C45,259.8,44.4,255.8,44.1,251.8z"/>
		<path fill="#FAF4C4" d="M94,251c10.1,2.9,20.2,3.4,30.3,0.6c-0.6,6.2-1.3,12.5-1,18.8c0.3,6.5,0.2,12.9,1.8,19.3
			c0.2,0.8,0.6,1.6,1.2,2.2c2,1.8,4,3.3,6.8,3.9c4.2,0.9,6.5,4,8.1,7.7c1.2,2.7,1.5,5.5,0.6,8.3c-0.3,0.8-0.6,1.6-1.3,2.3
			c0-1.1-0.2-1.9,0.8-2.7c0.8-0.6,0.9-2.3,0.4-3.2c-0.4-0.7-0.8-0.9-1.9-0.8c-2.7-6.6-7.2-10.4-12-9.7c1.5,0.3,2.8,0.4,4,0.9
			c4.7,2.1,7,5.9,8,10.7c0.2,1,0.3,2.1,0.4,3.1c0.3,4.1-2.9,6.6-5.6,7.3c-1.2,0.3-2.4,0.3-3.5,0.4c-1.1,0.1-1.2-0.4-1.1-1.3
			c0.4-3.9-0.1-7.7-1.4-11.3c-1.1-3.2-2.8-6-5.9-7.8c-0.6-0.3-1.2-0.7-2-0.7c0.9,0.5,1.8,0.9,2.5,1.5c2.9,2.1,4.4,5.2,5.3,8.6
			c0.8,2.9,1.1,5.8,1,8.8c-0.1,2.1-0.4,2.6-2.4,3.1c-4.5,1.2-8.8,0.3-12.9-1.5c-0.9-0.4-0.7-1-0.6-1.7c0.6-4.1,0.1-8.1-1.7-11.9
			c-0.7-1.5-1.6-2.8-2.8-3.8c-0.7-0.6-1.5-1.1-2.5-1.2c5.7,3.3,6.7,8.6,6.8,14.4c0,0.8-0.1,1.7-0.2,2.5c0,0.8-0.4,1.1-1.2,1.2
			c-4.9,0.4-9.3-1-12.1-6.5c-1.7-3.4-2.8-6.9-2.7-10.8c0.1-6.6,0-13.1-0.2-19.7c-0.1-4.9-0.5-9.7-1.2-14.5
			C94.5,262.1,93.6,256.6,94,251z"/>
		<path fill="#FAF4C4" d="M25.8,135c0.3,0.7,1,0.4,1.5,0.5c5.8,1.5,11.5,3.2,16.6,6.5c0.1,0.1,0.3,0.1,0.5,0.1
			c-2.7,6.4-2.8,13.4-4.8,20c-1.2,4.2-2.2,8.4-3.1,12.7c-0.7,3.4-0.9,6.7,0.4,10c0.8,1.9,1.1,3.9,1.3,6c0.4,3.8-0.4,7.3-3.5,10
			c-0.6-0.6-0.9-1.9-2.2-1.3c-0.9,0.4-1.1,1.4-0.6,3.1c-1.2,0.7-1.6,0.6-2-0.8c-1.3-3.9-1.1-7.9-0.6-12c0.1-0.7,0.2-1.4,0.3-2.1
			c0-0.1-0.1-0.1-0.1-0.2c-0.5,0.1-0.4,0.5-0.4,0.7c-1,4.7-1.1,9.4,0.4,14c0.3,0.9,0.1,1.6-0.4,2.3c-1.3,1.9-3.3,3.4-5.7,4.3
			c-0.1-0.5-0.1-1-0.2-1.5c-0.2-0.7-0.6-1.4-1.4-1.4c-0.9,0-1.3,0.7-1.4,1.5c-0.1,0.6,0,1.3,0,1.9c-0.9,0.2-1.8,0.2-2.7,0
			c-0.9-0.2-1.4-0.8-1.6-1.7c-0.7-2.3-0.6-4.6-0.4-6.9c0.4-4,1.3-7.9,2.9-11.5c0-0.1,0-0.2-0.1-0.3c-3.1,6.3-4.5,12.9-2.6,20
			c-0.8,0.4-1.7,0.4-2.7,0.1c0-0.7,0.1-1.4,0-2.1c-0.1-0.9-0.6-1.8-1.6-1.8c-1.1,0-1.4,0.8-1.6,1.8c0,0.1,0,0.3,0,0.7
			c-1.7-1.3-3-2.7-3.5-4.6c-1.5-5.9-0.2-11.1,4-15.6c0.4-0.4,0.7-0.7,1.1-1.1c0-0.1,0-0.2-0.1-0.1c-2.9,1.8-4.4,4.7-5.4,7.8
			c-0.6,1.9-0.8,3.9-0.7,6c-0.8-0.2-1.4,0-1.9,0.7c-1.2-1.5-1.8-3.3-2-5.2c-0.4-4,0.7-7.6,3.3-10.4c4.2-4.5,6.3-10,8.9-15.3
			c3.8-7.7,6.4-15.8,8.6-24.1c0.9-3.4,2.1-6.7,3.2-10C25.4,135.4,25.5,135.1,25.8,135z"/>
		<path fill="#FAF4C4" d="M124.2,142.1c2.2-1.1,4.2-2.4,6.5-3.3c3.8-1.4,7.5-2.8,11.5-3.5c0.2,0,0.4-0.2,0.6-0.3
			c1.5,4.1,2.8,8.3,4,12.5c2.3,8.3,5.1,16.5,9.1,24.2c0.7,1.4,1.4,2.9,2,4.4c1.2,2.9,3,5.3,5,7.7c2.7,3.1,4.5,6.7,4.4,11
			c-0.1,2.1-0.7,4-2,5.8c-0.5-0.5-1.1-0.8-1.9-0.5c0.1-5.7-1.6-10.6-6.4-14c1.5,1.5,2.9,3.2,3.9,5.2c1.8,3.5,2.2,7.1,1.4,10.9
			c-0.4,2.2-1.7,3.8-3.4,5.2c-0.1-0.1-0.2-0.1-0.2-0.2c-0.1-1-0.3-2-1.6-2.1c-0.9-0.1-1.6,0.9-1.7,2.1c0,0.6,0,1.1,0,1.7
			c-0.9,0.4-1.9,0.3-2.8,0c1.9-7.1,0.4-13.7-2.6-20c0.5,1.9,1.2,3.7,1.7,5.6c1,3.9,1.6,7.7,1,11.7c-0.4,2.9-1.5,3.7-4.6,3.1
			c0-0.6,0-1.2,0-1.8c-0.1-0.9-0.5-1.6-1.4-1.7c-1-0.1-1.3,0.7-1.5,1.6c-0.1,0.4-0.1,0.8-0.1,1.4c-2.6-1-4.7-2.5-6.1-4.8
			c-0.4-0.6-0.4-1.1-0.2-1.8c1.6-4.8,1.4-9.6,0.4-14.4c0-0.1-0.1-0.3-0.3-0.4c-0.4,0.4-0.1,0.8-0.1,1.2c0,0.4,0.1,0.8,0.2,1.2
			c0.6,4,0.7,7.9-0.5,11.8c-0.3,1-0.7,1.6-1.9,1c0.2-1.2,0.9-2.7-0.9-3.3c-1.1-0.3-1.5,0.6-1.9,1.5c-3.3-2.9-4-6.6-3.6-10.7
			c0.3-2.5,0.9-5,1.8-7.4c0.9-2.6,0.4-5.2-0.1-7.7c-1.1-5.8-2.6-11.4-4.1-17.1c-1.1-4.1-1.4-8.4-2.5-12.6
			C125.1,144.2,124.3,143.3,124.2,142.1z"/>
		<path fill="#C53F26" d="M105.7,75.1c0.8,2.2,1.7,4.3,3.1,6.2c0.1,0.2,0.3,0.4,0.6,0.2c0,0,0,0,0,0c0.1,0.3,0.4,0.6,0.2,1
			c-0.8,0.3-1.5-0.2-2.2-0.5c0,0-0.1-0.2,0,0c0,0.1,0.1,0.1,0.1,0.2c0.7,2,0.2,4-0.2,5.9c-0.2,0.9-0.1,1.7-0.2,2.6
			c0,0.4,0.1,0.9-0.3,1.2c-0.1,0-0.2,0-0.4,0c-0.8-1-1.6-2.1-2.2-3.5c-0.2,2.9-1.5,5.1-2.7,7.6c-0.9-1.1-0.9-2.2-1.2-3.2
			c0-0.2,0.1,0,0-0.1c-0.1-0.1-0.1,0.1-0.2,0.2c0,0.1-0.1,0.2-0.2,0.3c-1,0.9-1.8,2.1-3,2.8c-0.3,0.3-0.7,0.7-1.2,1
			c0.6-0.3,0.9-0.7,1.3-1.1c0.8-0.4,1.4-1.2,2-1.8c0.3-0.3,0.5-0.6,0.8,0c0.2,2.1,0.1,4.1,0.3,6.2c0.1,0.9,0.3,1.8,0.3,2.7
			c0,0.5,0.1,1.1-0.4,1.3c-0.6,0.3-0.9-0.3-1.3-0.7c-0.1-0.1-0.2-0.3-0.5-0.5c-0.3,2.7-1.2,5.2-2.6,7.5c-0.1,0.2-0.3,0.5-0.5,0.7
			c-0.6,0.7-1,0.6-1.4-0.2c-0.1-0.3-0.2-0.6-0.3-0.9c-0.1-0.3-0.1-0.6-0.5-0.9c-1.6,3.9-4.6,6.8-7.3,9.9c-0.2,0.2-0.3,0.4-0.5,0.5
			c-1,1-1.3,1-2.2,0c-2.8-3.3-6-6.2-7.8-10.4c-0.4,0.5-0.4,1-0.6,1.4c-0.2,0.4-0.2,1-0.8,1.1c-0.6,0.1-0.9-0.5-1.1-0.9
			c-1.1-1.9-2.1-3.8-2.4-6c-0.1-0.5-0.1-1.1-0.3-1.6c-0.3,0.1-0.4,0.3-0.5,0.4c-0.3,0.4-0.6,0.9-1.2,0.7c-0.5-0.2-0.4-0.8-0.4-1.3
			c0.1-2.3,0.4-4.6,0.5-6.9c0-0.8-0.3-1.7-0.1-2.5c0.3-0.4,0.5-0.1,0.6,0.1c0.7,0.7,1.4,1.4,2.1,2.1c0.7,0.5,1.4,1,2.1,1.6
			c0.1,0.1,0.2,0.2,0.3,0.3c0.1,0.1,0.3,0.2,0.5,0.3c0.1,0.1,0.2,0.2,0.3,0.3c0.1,0.1,0.1,0.1,0.2,0.2c0.1,0,0.1,0.1,0.1,0.2
			c0,0,0.1,0,0.1,0s-0.1,0-0.1,0c0-0.1-0.1-0.1-0.1-0.2c-0.1-0.1-0.1-0.1-0.2-0.2c-0.1-0.1-0.2-0.2-0.3-0.2
			c-0.2-0.1-0.3-0.1-0.5-0.3c-0.1-0.1-0.2-0.2-0.3-0.3c-0.7-0.6-1.4-1.1-2.1-1.7c-1-1-2-2-2.9-3.2c-0.6,1-0.2,2.3-1.4,3.1
			c-1.2-2.2-2.2-4.3-2.6-6.8c-0.8,1-1.2,2.3-2.5,2.9c-0.4-1.7-0.2-3.3-0.6-4.9c-0.4-1.5-0.5-3.1,0-4.7c-0.8,0-1.3,0.5-1.9,0.6
			c-0.3,0-0.6,0.3-0.7-0.3c0,0,0,0,0,0c0.9-0.4,1.4-1.2,1.8-2c1.3-2.5,2.7-5,3.5-7.8c0.1-1.4,0.9-2.6,1.8-3.7c1-0.1,1.7,0.8,2.6,0.7
			c1.6,0.1,2.3,1.4,3.2,2.4c0.1,0.1,0.1,0.2,0.2,0.3c0,0,0.1,0.1,0.1,0.1c0.1,0.1,0.1,0.2,0.2,0.3c0.1,0.1,0.1,0.2,0.2,0.3
			c1.1,1.3,2,2.8,3,4.2c1.5,2,3.4,3.1,5.7,3.6c2.6,0.5,5.1,0.4,7.7-0.1c2.5-0.5,4.2-2.1,5.5-4.1c0.7-1.1,1.4-2.2,2.3-3.2
			c0.1-0.1,0.1-0.2,0.2-0.3c0.1-0.1,0.1-0.2,0.2-0.2c0,0,0.1-0.1,0.1-0.1c0.2-0.2,0.4-0.5,0.6-0.8c0.9-0.9,1.6-1.9,2.8-2.4
			c0.2-0.1,0.4-0.1,0.6-0.1c0,0,0.1,0,0.1,0c0.7,0.1,1.3-0.5,2-0.5c1,1,1.6,2.3,2,3.6c0.1,0.2,0.1,0.4,0.2,0.6
			c0,0.1,0.1,0.2,0.1,0.3c0.1,0.5,0.4,0.9,0.5,1.3C105.7,75,105.7,75.1,105.7,75.1z"/>
		<path fill="#B1ADA2" d="M100.5,34c-1.2-1-2.7-1.1-4.1-1.4c0.3-2.1,0.6-4.1,0.9-6.2c2.3,0.5,4.1,1.8,5.7,3.5c2.2,2.4,3.7,5.3,5.5,8
			c0.9,1.3,1.9,2.5,3,3.6c1.7,1.7,3.8,2.4,6.1,2.9c0.5,0.1,1.1,0.2,1.7,0.4c-1.5,1.2-3.2,1-4.9,1c4.1,1.3,5.5,5.2,8.2,8
			c-2.4,0-4.1-1.3-6-2.2c2.2,1.6,2.6,4,2.9,6.5c0.2,2.1,0.2,4.1,0.7,6.3c-1.7-0.8-2.8-2.2-4.2-3.1l0,0c0.8,2.1,1.5,4.2,1.4,6.7
			c-2.7-1.3-5.4-1.3-8.1-0.9c-0.6-1.1-1.1-2.4-2-3.3c-1.3-1.4-2.8-2.4-4.6-2.8c-1.3-0.8-2.7-0.5-4-0.1c-0.5,0.2-0.7,0.5-0.6,1.1
			c0.4,2.8-0.4,5.5-1.7,7.9C96,69.9,96,70,95.9,70.1c-2,2.4-4.4,2.6-7.2,1.7c-3.3-1-6.6-0.7-9.9,0.2c-1.6,0.5-3.1,0.5-4.6-0.5
			c-0.1-0.1-0.2-0.1-0.3-0.2c-0.1-0.1-0.2-0.1-0.3-0.2c0,0-0.1-0.1-0.1-0.1c-0.1-0.1-0.1-0.1-0.2-0.2c0,0-0.1-0.1-0.1-0.1
			c-0.1-0.1-0.2-0.1-0.2-0.2c0,0-0.1-0.1-0.1-0.1c-0.1-0.1-0.1-0.2-0.2-0.3c-0.1-0.1-0.1-0.2-0.2-0.3c-1.4-2.4-2-4.9-1.8-7.7
			c0.1-0.9-0.2-1.3-1.1-1.5c-1.3-0.3-2.6-0.4-3.8,0.3c-3.2,0.9-5.2,3.1-6.4,6.1c-2.8-0.3-5.5-0.4-8.1,0.9c-0.2-1.2,0-2.3,0.2-3.3
			c0.2-1,0.5-2,1.1-3.2c-1.5,1-2.5,2.2-4.1,3c0.6-3.3,0.3-6.5,1.2-9.6c0.4-1.4,1.3-2.4,2.3-3.3c-1.9,1-3.7,2.3-6.2,2.3
			c2.8-2.8,4.1-6.7,8.1-8.1c-1.7,0.1-3.3,0.1-4.8-1c0.6-0.1,1-0.3,1.4-0.3c4.4-0.5,7.3-3.1,9.6-6.6c1.7-2.7,3.3-5.5,5.4-7.9
			c1.5-1.7,3.4-3,5.8-3.6c-0.8,1.7-1.6,3.1-3.4,4.4c2.3,0.1,4.2-0.4,5.9-1.5c-0.1,1.2-0.2,2.4,0.1,3.5c-2.2,0-4.3-0.1-6,1.3
			c0,0,0,0.1-0.1,0.1c-0.1,0.1-0.3,0.3-0.4,0.4c-0.1,0.1-0.1,0.1-0.2,0.2c-0.1,0.1-0.3,0.2-0.4,0.3c-0.1,0.1-0.1,0.1-0.2,0.2
			c-0.1,0.1-0.1,0.1-0.2,0.2c0,0-0.1,0.1-0.1,0.1c-0.1,0.1-0.1,0.1-0.2,0.2c0,0-0.1,0.1-0.1,0.1c-0.1,0.1-0.1,0.1-0.2,0.2
			c0,0-0.1,0.1-0.1,0.1c-0.1,0.1-0.1,0.1-0.2,0.2c0,0-0.1,0.1-0.1,0.1c-0.1,0.1-0.1,0.1-0.2,0.2c0,0-0.1,0.1-0.1,0.1
			c-0.1,0.1-0.2,0.3-0.3,0.4c0,0.1-0.1,0.1-0.2,0.2c-0.1,0.1-0.2,0.2-0.3,0.3c0,0.1-0.1,0.1-0.1,0.2c-0.1,0.1-0.1,0.2-0.2,0.3
			c0,0.1-0.1,0.2-0.1,0.2c-0.1,0.1-0.1,0.1-0.2,0.2c0,0-0.1,0.1-0.1,0.1c-0.2,0.2-0.3,0.5-0.4,0.8c-0.1,0.1-0.2,0.3-0.1,0.4
			c0.2,0,0.3-0.2,0.4-0.3c0.2-0.2,0.5-0.4,0.7-0.6c0.1-0.1,0.1-0.1,0.2-0.2c0.1-0.1,0.1-0.1,0.2-0.2c0,0,0.1-0.1,0.1-0.1
			c0.1-0.1,0.1-0.1,0.2-0.2c0,0,0.1-0.1,0.1-0.1c0.1-0.1,0.1-0.1,0.2-0.2c0.1-0.1,0.1-0.1,0.2-0.1c0.1-0.1,0.2-0.1,0.3-0.2
			c0.1-0.1,0.2-0.1,0.2-0.2c0.2-0.1,0.4-0.3,0.6-0.4c0,0,0.1,0,0.1,0c2-0.8,4-1.5,6.2-1.2c1.8,0.2,1.9,0.3,2.3,2.1
			c0.3,1.1,0.3,2.2,0.9,3.3c1-0.9,1.3-2.1,1.8-3.2c0.5,3.3,2.7,5.8,3.7,9.3c1-2.5,1.6-4.8,2.9-6.8c0.1,1.3,0.2,2.7,0.5,4
			c0.5-0.2,0.6-0.6,0.8-1c1.2-2.7,3.1-4.8,4.8-7.2c0.2-0.2,0.4-0.2,0.6-0.2c0.1,0,0.1,0,0.2,0c0.4,0.1,0.8,0.1,1.3,0
			c3.3-1.1,6.4-0.5,9.2,1.5c0.1,0.1,0.2,0.1,0.3,0.2c0.1,0.1,0.2,0.2,0.4,0.2c0.1,0,0.2,0.1,0.2,0.2c0.1,0.1,0.1,0.1,0.2,0.2
			c0,0,0.1,0.1,0.1,0.1c0.1,0.1,0.1,0.1,0.2,0.2c0,0,0.1,0.1,0.1,0.1c0.1,0.1,0.1,0.1,0.2,0.2c0,0,0.1,0.1,0.1,0.1
			c0.1,0.1,0.1,0.1,0.2,0.2c0,0,0.1,0.1,0.1,0.1c0.2,0.1,0.3,0.4,0.7,0.5c-0.1-0.6-0.4-1-0.7-1.4c-0.1-0.1-0.1-0.2-0.2-0.2
			c-0.1-0.2-0.2-0.3-0.3-0.5c-0.1-0.1-0.1-0.1-0.2-0.2c-0.1-0.1-0.1-0.1-0.2-0.2c0,0-0.1-0.1-0.1-0.1c-0.1-0.1-0.1-0.1-0.2-0.2
			c-0.1-0.1-0.1-0.1-0.1-0.2c-0.1-0.1-0.1-0.2-0.2-0.3c-0.1-0.1-0.1-0.1-0.2-0.2c-0.1-0.1-0.1-0.1-0.2-0.2c0,0-0.1-0.1-0.1-0.1
			c-0.1-0.1-0.1-0.1-0.2-0.2c0,0-0.1-0.1-0.1-0.1c-0.1-0.1-0.1-0.1-0.2-0.2c0,0-0.1-0.1-0.1-0.1c-0.1-0.1-0.1-0.1-0.2-0.2
			c0,0-0.1-0.1-0.1-0.1c-0.1-0.1-0.2-0.1-0.3-0.2c-0.1,0-0.2-0.1-0.2-0.1c-0.2-0.1-0.3-0.2-0.5-0.3C100.6,34.4,100.5,34.3,100.5,34z
			"/>
		<path fill="#C53F26" d="M83.7,6.9c1.1,0.8,2.2,1.4,3.4,1.8c1.8,0.6,3.2,1.7,4.6,2.9c0.3-0.2,0.2,0.2,0.4,0.3
			c0.1,0.1,0.2,0.2,0.3,0.3c0.1,0.1,0.3,0.3,0.4,0.4c0,0.1,0.1,0.1,0.2,0.1c-0.1,0-0.1-0.1-0.2-0.1c-0.1-0.1-0.2-0.3-0.4-0.4
			c-0.1-0.1-0.2-0.2-0.3-0.3c-0.1-0.1-0.1-0.3-0.2-0.5c-0.6-1.3-1-2.6-1-4c0.1,0,0.2,0,0.2,0.1c0.7,2.6,2.4,4.5,4.8,5.9
			c0.6,0.3,1.1,0.9,1.6,1.5c-0.8,1.3-1.5,2.6-2.3,4c-0.3-0.4-0.6-0.7-0.8-1c-0.3,0.1-0.2-0.2-0.3-0.3c-0.1-0.1-0.2-0.2-0.2-0.3
			c-0.1,0-0.1-0.1-0.1-0.2c0,0-0.1,0-0.1,0s0.1,0,0.1,0c0,0.1,0.1,0.1,0.2,0.2c0.1,0.1,0.2,0.2,0.2,0.3c0,0.1,0.1,0.3,0.1,0.4
			c2.7,4.4,3,6.7,1.7,13.9c-0.6-0.7-0.9-1.6-1.2-3.1c-0.2-1.1-0.3-2.3-0.6-3.4c-0.1,0.8-0.3,1.5-0.3,2.3c0,2.8-1.1,5.1-2.7,7.3
			c-1.8,2.6-3.9,4.9-5.4,8c-0.4-2.5,0-4.7,0.2-6.9c-0.7,1.5-1.4,3-2,4.6c-0.6,1.5-1.2,3-1.8,4.5c-2.2-4.1-4.4-8.1-3.1-13.1
			c-1.1,2.5-0.7,5.4-2.2,7.7c-0.1,0-0.2-0.1-0.2-0.1c-0.3-1.9-1-3.8-1.6-5.6c-0.8-2.5-0.8-4.9,0.4-7.3c0-0.1,0.1-0.3-0.2-0.2
			c-1.2,2.1-2.9,3.5-5.4,3.5c0,0-0.1-0.1-0.1-0.1c0.9-1,1.5-2.2,2.1-3.4c0.8-1.6,1.7-3,3.2-3.9c0-0.1,0-0.1,0.1-0.2
			c0,0-0.1-0.1-0.1-0.1s0,0.1,0,0.1c-0.1,0-0.1,0-0.2-0.1c-1.9,1-4.8,0.3-6.6-1.5c-0.7-0.7-1.3-1.4-1.8-2.6c4.2,1.4,7.5-1,11.2-1.7
			c-2,0.1-4.1,0.1-5.8-1.3c-1.1-0.9-2-2.1-2.8-3.6c2.6,1.2,5.1,1.9,7.9,2c-0.6-0.6-1.2-0.4-1.8-0.5c-0.6-0.2-1.3-0.2-1.8-0.6
			c-0.5-0.4-1-0.7-1.6-1.2c0.9-0.3,1.5,0.1,2.2,0.1c1.7,0.1,3.3-0.3,4.9-0.6c2.9-0.5,5.8-0.6,8.6,0.5c0.2,0.1,0.5,0.1,0.7,0.1
			c0,0,0.1,0.1,0.1,0.1c0,0,0,0,0,0c0,0-0.1,0-0.1,0c-0.3-0.4-0.8-0.5-1.2-0.7c-1.8-0.7-2.9-2-3.4-3.8C83.6,7,83.6,7,83.7,6.9z"/>
		<path fill="#584D46" d="M73.4,234.5c0.9-3.4,1.9-6.8,2.8-10.1c2.1-7.6,3.2-15.4,4.3-23.2c0.2-1.8,0.4-3.7,0.7-5.7
			c2.1,0.7,4,0.8,6,0.1c0.6,2.3,0.8,4.6,1,6.9c0.4,3.4,1.1,6.9,1.5,10.3c0.7,5.3,2.3,10.4,3.5,15.6c0.5,2.1,1.1,4.1,1.7,6.1
			c-0.5,0.2-0.8,0-1.2-0.2c-6.4-2.6-12.8-2.6-19.2,0C74.2,234.5,73.8,234.8,73.4,234.5z"/>
		<path fill="#EFA63E" d="M93.2,247.5c-0.1,3.1-0.4,6.1-0.1,9.2c0.1,1.2,0.1,2.3,0.3,3.5c0.2,1,0,1.8-0.6,2.7
			c-0.9,1.4-1.9,2.7-2.8,4.2c-0.1-1-0.2-1.9-0.3-2.9c-0.9,3.3-3.1,5.9-5.4,8.4c-2.3-2.5-4.5-5-5.4-8.4c-0.1,1-0.2,1.9-0.3,3.1
			c-1.2-1.9-2.3-3.7-3.4-5.4c-0.1-0.2-0.1-0.5-0.1-0.7c0.5-4.5,0.7-9,0.2-13.5c0-0.1,0-0.2,0.1-0.2c0.6-0.8,1.6-0.9,2.5-1.1
			c4.6-1,9.3-1,13.9,0.2C92.2,246.7,92.8,246.9,93.2,247.5z"/>
		<path fill="#FAF4C4" d="M104.3,23.5c0.2-1.6,0.1-3.2,0.1-4.7c0-1.4,0.1-2.8,0.1-4.1c0-0.1,0-0.1,0-0.2c-0.1-1.2,0.7-2,1.1-3.1
			c0.2-0.5,0.4-0.9,0.6-1.4c0-0.1,0.1-0.2,0.2-0.3c0.4-0.4,0.7-0.8,0.9-1.3c0.1-0.1,0.1-0.2,0.2-0.2c0.4-0.3,0.7-0.7,1-1.1
			c0.1-0.1,0.1-0.1,0.2-0.2c0.1-0.1,0.1-0.1,0.2-0.2c0,0,0.1-0.1,0.1-0.1c0.1-0.1,0.1-0.1,0.2-0.2c0.1-0.1,0.1-0.1,0.2-0.2
			c0.1-0.1,0.2-0.2,0.3-0.3c0.1-0.1,0.2-0.1,0.3-0.2c0.5-0.2,1-0.6,1.6-0.7c0.4-0.1,0.8-0.1,1.1,0c0.2,0,0.3,0,0.5,0.1
			c0.1,0,0.2,0.1,0.3,0.1c0.1,0.1,0.2,0.3,0.4,0.5c0.1,0.1,0.2,0.2,0.3,0.3c0.2,0.2,0.5,0.4,0.6,0.7c0.1,0.1,0.1,0.2,0.2,0.3
			c0.6,1.5,1,2.9,1.4,4.4c0,0.1,0.1,0.3,0.1,0.4c0.5,3.1,0.4,6.3,0.7,9.4c0.2,1.4-0.2,2.9-0.2,4.3c0,0.3,0,0.5-0.1,0.8
			c-0.6,2.1-1.3,4.3-2.5,6.1c0,0.1-0.1,0.2-0.2,0.3c-0.1,0.1-0.2,0.3-0.3,0.4c-0.1,0.1-0.1,0.2-0.2,0.2c-0.6,0.4-1.1,1-1.6,1.6
			c-0.1,0.1-0.1,0.2-0.2,0.2c-0.2,0.1-0.4,0.2-0.6,0.4c-0.1,0.1-0.1,0.1-0.2,0.2c-0.2,0.1-0.3,0.2-0.4,0.3c-0.1,0.1-0.1,0.1-0.2,0.2
			c-0.1,0.1-0.3,0.1-0.4,0.1c0,0-0.1,0-0.1,0c-0.4,0.1-0.8,0.3-1.3,0.4c-1.2-1.2-1.9-2.8-2.9-4.2c0-0.1,0.1-0.2,0.1-0.3
			c-1.2-1.1-2.5-2.1-1.8-4.1c0.5-1.3,0.6-2.8,0.5-4.2C104.4,23.7,104.4,23.7,104.3,23.5C104.4,23.5,104.4,23.5,104.3,23.5z"/>
		<path fill="#FAF4C4" d="M62.7,11.3C64.2,14.5,64,18,64,21.4c0,2.6,0.2,5.2,0.8,7.7c0.1,0.4,0.1,0.8-0.2,1.1
			c-0.5,0.6-0.9,1.2-1.4,1.8c-0.3,0.2-0.5,0-0.8-0.1c-0.1,0-0.1-0.1-0.1-0.2c0,0.1,0,0.1,0.1,0.1c0.2,0.1,0.3,0.2,0.4,0.4
			c-0.7,1.6-1.8,2.9-2.7,4.3c-0.7,0.4-1.2-0.1-1.8-0.3C58.2,36.1,58,36,57.9,36c-0.1,0-0.2-0.1-0.2-0.2c-0.1-0.1-0.2-0.2-0.3-0.3
			c-0.1,0-0.1-0.1-0.2-0.2c-0.1-0.1-0.2-0.1-0.3-0.2c-0.1,0-0.1-0.1-0.2-0.2c-0.1-0.1-0.2-0.2-0.3-0.3c-0.1,0-0.1-0.1-0.2-0.2
			c-0.1,0-0.1-0.1-0.2-0.2c0,0-0.1-0.1-0.1-0.1c-0.1-0.1-0.1-0.1-0.2-0.2c0,0-0.1-0.1-0.1-0.1c-0.1-0.1-0.1-0.1-0.2-0.2
			c0,0-0.1-0.1-0.1-0.1c-0.1-0.1-0.1-0.1-0.2-0.2c-0.1-0.1-0.1-0.1-0.2-0.2c-0.1-0.1-0.3-0.3-0.4-0.4c-0.1-0.1-0.1-0.1-0.2-0.2
			c-0.1-0.2-0.2-0.4-0.4-0.6C54,32.2,54,32.1,53.9,32c-0.1-0.5-0.4-0.9-0.7-1.3c-0.1-0.1-0.1-0.2-0.2-0.3c-1.8-3.8-1.9-7.8-1.5-11.8
			c0.2-2.1,0.2-4.3,0.5-6.4c0.3-1.9,0.8-3.7,1.7-5.5c0-0.1,0.1-0.2,0.1-0.3C54,6.1,54.2,6,54.4,5.8c0.1-0.1,0.1-0.2,0.2-0.2
			c0.1-0.1,0.2-0.1,0.2-0.2c0.1-0.1,0.2-0.1,0.3-0.2c1.7-0.6,2.9,0.3,4.1,1.2c0.1,0.1,0.2,0.1,0.3,0.2c0.1,0.1,0.2,0.1,0.2,0.2
			c0,0,0.1,0.1,0.1,0.1C59.9,7,60,7.1,60.2,7.3c0.1,0.1,0.1,0.1,0.2,0.2c0.1,0.2,0.3,0.4,0.5,0.5C60.9,8.1,61,8.2,61,8.3
			c0.1,0.3,0.3,0.5,0.5,0.7c0.1,0.1,0.1,0.2,0.2,0.2c0.1,0.3,0.2,0.6,0.4,0.8c0.1,0.1,0.1,0.1,0.2,0.2c0.1,0.1,0.1,0.2,0.2,0.3
			c0,0.1,0.1,0.2,0.1,0.2c0,0.1,0.1,0.2,0.1,0.4C62.7,11.2,62.7,11.3,62.7,11.3z"/>
		<path fill="#6C4639" d="M93.2,247.5c-6-2.1-11.9-2-17.9,0c-0.3-2.6-0.9-5.2-1.6-7.7c-0.5-1.7-0.9-3.5-0.3-5.3
			c2.2-1.1,4.5-1.9,7-2.2c5-0.6,9.9-0.4,14.4,2.1c0.1,0,0.2,0.1,0.2,0.1c0.5,1.8,0.1,3.6-0.3,5.4C94.1,242.4,93.3,244.9,93.2,247.5z
			"/>
		<path fill="#FAF4C4" d="M59.4,66.9c0.2-2.5,2-3.9,3.8-5.3c0.8-0.6,1.7-0.9,2.6-1.1c0.8-0.3,1.7-0.3,2.6-0.3
			c1.5,0.1,2.3,0.8,2.3,2.3c0,1.9,0.3,3.6,0.9,5.4c0.3,0.8,0.7,1.5,1.2,2.2l0,0c0.1,0.1,0.2,0.2,0.3,0.3l0,0
			c0.1,0.1,0.2,0.2,0.3,0.3l0,0c0.1,0.1,0.2,0.2,0.3,0.3l0,0c0.1,0.1,0.2,0.2,0.3,0.3l0,0c0.7,0.7,0.7,1.7,1.3,2.5
			c0.1,0.1,0.1,0.2,0.2,0.3c0.4,0.5,0.8,0.6,1.3,0.3c0.2-0.2,0.5-0.3,0.7-0.1c1,1.3,1.8,2.7,3.5,3.1c2.5,0.6,5,0.7,7.4-0.2
			c1-0.4,1.7-1.1,2.2-1.9c0.5-0.7,1-1.3,1.9-0.7c0.1,0.1,0.3-0.1,0.4-0.1c0.1-0.1,0.3-0.2,0.4-0.3c0.3-0.3,0.6-0.6,0.7-1.1
			c0.3-1.2,1.1-2,2-2.8l0,0c1.4-2.3,1.9-4.8,1.9-7.5c0-1,0.4-1.7,1.4-1.9c1.1-0.3,2.3-0.4,3.3,0.2c3,0.3,6.3,3.5,6.6,6.3
			c-2.4,0.3-4.7,0.9-7,1.9c-0.4,0.2-1,0.3-1.2,0.8c0,0,0,0,0,0c-0.2,0.2-0.4,0.2-0.6,0.3c-1.3,0.6-2.2,1.6-3.1,2.6
			c-0.2,0.1-0.1,0.4-0.4,0.5l0,0c-0.1,0.1-0.1,0.2-0.3,0.3l0,0c-0.9,0.9-1.6,2-2.3,3c-1.8,2.9-4.3,4.5-7.7,4.9
			c-2.2,0.3-4.4,0.2-6.5-0.4c-2.6-0.6-4.4-2.3-5.8-4.5c-0.7-1.2-1.6-2.3-2.5-3.3l0,0c-0.1-0.1-0.2-0.1-0.3-0.3l0,0
			c-0.1-0.1-0.2-0.1-0.2-0.3c-0.9-1-1.9-2.1-3.2-2.6c-2.3-1.7-5.1-2.3-7.9-2.8C60,67,59.7,67,59.4,66.9z"/>
		<path fill="#584D46" d="M58.2,35.8c0.7,0.1,1.2,0.8,1.9,0.7c-0.7,1-1.4,2-2.2,3c-2,2.6-3.6,2.5-5.7,0c-1.8-2.1-2.7-4.5-3.1-7.2
			c-0.6-3.7-0.8-7.4-0.8-11.1c0-0.4,0-0.7,0.2-1c0.8-0.8,1.5-1.6,2.8-1.1c0.3,1.8,0,3.7,0.2,5.6c0.2,2.2,0.8,4.2,1.8,6.1l0,0
			c0.3,0.5,0.4,1,0.8,1.4l0,0c0.2,0.2,0.2,0.6,0.5,0.7l0,0c0.2,0.3,0.5,0.5,0.7,0.7l0,0c0.1,0.1,0.1,0.2,0.3,0.3l0,0
			c0.1,0.1,0.1,0.2,0.3,0.3l0,0c0.1,0.1,0.1,0.2,0.3,0.3l0,0c0.1,0.1,0.1,0.2,0.3,0.3l0,0c0.1,0.2,0.3,0.4,0.5,0.5l0,0
			c0.1,0.2,0.3,0.2,0.5,0.3l0,0c0.1,0.2,0.3,0.4,0.5,0.5l0,0C57.9,35.9,58,35.9,58.2,35.8z"/>
		<path fill="#584D46" d="M116.5,26.4c0-0.2,0-0.5,0-0.7c0.3-1.9,0.6-3.8,0.3-5.8c-0.1-0.3-0.1-0.6,0-0.8c0.9-0.4,2,0,3.1,1.1
			c0.5,2.8,0,5.6-0.1,8.4c-0.1,1.9-0.3,3.8-0.9,5.7c-0.8,2.9-2.2,5.5-5,7c-0.6,0.4-1.2,0.4-1.7-0.1c-1.3-1.2-2.5-2.4-3.3-4
			c0.2-0.5,0.9-0.4,0.9-0.9c0,0,0,0,0,0c0.2-0.1,0.4-0.1,0.5-0.3l0,0c0.2-0.2,0.6-0.2,0.7-0.5l0,0c0.2-0.2,0.6-0.2,0.7-0.5l0,0
			c0.7-0.6,1.4-1.2,1.9-1.9l0,0c0.2-0.1,0.2-0.3,0.3-0.5l0,0C115.4,30.8,116.1,28.7,116.5,26.4z"/>
		<path fill="#EFA63E" d="M41.5,228.9c3.6,0.6,7.1-0.3,10.6-1c0.6-0.1,1.3-0.3,1.9-0.3c0.7,0,1.5,0.2,1.9,0.9c0.4,0.7,0,1.3-0.4,1.9
			c-1.2,1.7-2.9,3-4.6,4.1c-2.7,1.7-5.6,2.9-8.9,3.2C41.5,234.8,41.3,231.9,41.5,228.9z"/>
		<path fill="#EFA63E" d="M126.4,237.7c-5.2-0.6-9.5-3-13.1-6.8c-0.6-0.6-1.3-1.4-0.7-2.3c0.5-0.8,1.5-1,2.4-0.8
			c1.8,0.4,3.7,0.7,5.5,1c2.1,0.3,4.2,0.6,6.3,0.2C127.1,231.9,126.9,234.8,126.4,237.7z"/>
		<path fill="#C53F26" d="M44,208.3c3.3-0.1,6.5-0.8,9.7-1.5c0.2,0,0.4-0.1,0.6-0.1c0.8,0,1.6,0.2,2.1,0.9c0.4,0.7-0.1,1.4-0.5,1.9
			c-2.1,2.5-4.7,4.4-7.8,5.7c-1.8,0.7-3.6,1.4-5.5,1.5C42.8,213.9,43.1,211,44,208.3z"/>
		<path fill="#C53F26" d="M125.9,216.8c-5.2-0.7-9.5-3-13-6.9c-0.6-0.6-1.3-1.4-0.7-2.3c0.6-0.9,1.6-1,2.6-0.8
			c3.2,0.7,6.4,1.5,9.7,1.4C125.3,211,125.7,213.8,125.9,216.8z"/>
		<path fill="#584D46" d="M104.6,14.6c-0.5,0.7-0.5,1.5-0.5,2.3c0,3.4,0.2,6.8-0.5,10.1c-0.1,0.6-0.2,1.2-0.5,2
			c-1.6-1.4-3.3-2.5-5.3-3.1c-0.7-0.2-0.5-0.8-0.5-1.3c0.3-4.4,1.3-8.6,3.3-12.5c1.4,0.2,2.7,0.6,4,1.3
			C104.6,13.9,104.7,14.3,104.6,14.6L104.6,14.6z"/>
		<path fill="#584D46" d="M68.5,13.2c0.1,1.2,0.7,2.2,1.1,3.3c0.1,0.5,0.3,0.9,0.4,1.5c-1.5,0.3-2.9,0.2-4.4-0.6
			c1,2.6,2.2,4.5,4.5,5.3c1.3,0.5,0.9,1.5,1.1,2.4c0.2,0.8-0.5,1.1-1.1,1.3c-1.7,0.5-3.1,1.7-4.6,2.8c-0.7-1.9-0.8-3.8-0.9-5.7
			c-0.2-2.8,0.2-5.6-0.3-8.4c-0.1-0.5-0.2-0.9-0.3-1.4c1.1-1,2.4-1.6,4-1.3C68.1,12.7,68.1,13.1,68.5,13.2L68.5,13.2z"/>
		<path fill="#6C4639" d="M49,188.4c1.4-0.3,2.9-0.6,4.3-0.8c0.5-0.1,0.9-0.2,1.4-0.3c0.9-0.1,1.8,0.1,2.3,0.9
			c0.5,0.8-0.1,1.5-0.6,2c-2.2,2.5-4.8,4.4-7.9,5.7c-0.5,0.2-0.9,0.5-1.5,0.4c0-1.5,0.6-2.9,0.9-4.3C48.2,190.8,48.6,189.6,49,188.4
			z"/>
		<path fill="#6C4639" d="M121.6,196.5c-3.6-1.2-6.8-3.1-9.3-6c-0.6-0.7-1.4-1.5-0.8-2.4c0.6-0.9,1.6-1,2.7-0.8
			c1.7,0.4,3.5,0.7,5.3,1C120.2,191.1,121,193.8,121.6,196.5z"/>
		<path fill="#EFA63E" d="M105.2,6.2c0.5-1.1,1.5-1.6,2.4-2.2c1.3-1,2.6-1.8,4.1-2.4c1.9-0.8,3.2-0.4,4.2,1.4
			c1.4,2.6,2.1,5.4,2.7,8.2c-1,0.4-1.6-0.5-2.5-0.8c-0.8-0.8-0.6-1.9-1.2-2.8c-0.2-0.3-0.2-0.7-0.4-1l0,0c-0.4-0.5-0.7-1.1-1.2-1.5
			l0,0c-0.1-0.2-0.4-0.1-0.6-0.2c-0.5-0.1-0.9-0.1-1.4,0c-0.6,0.2-1.1,0.6-1.7,0.9l0,0c-0.2,0.1-0.4,0.3-0.5,0.5l0,0
			c-0.1,0.1-0.2,0.2-0.3,0.3l0,0c-0.1,0.1-0.2,0.2-0.3,0.3l0,0c-0.2,0.1-0.5,0.2-0.7,0.2C107.1,7,106.1,6.8,105.2,6.2z"/>
		<path fill="#EFA63E" d="M49.8,11.3c0.5-2.7,1.3-5.3,2.4-7.7c1.1-2.4,2.6-2.9,5-1.8c2.2,1,4.1,2.4,5.9,4c0.1,0.1,0.1,0.3,0.2,0.4
			c-0.9,0.6-2,0.8-3.1,1c-0.2,0-0.4-0.1-0.5-0.2l0,0c-0.1-0.1-0.2-0.2-0.3-0.3l0,0C58.8,6,57.9,5.5,57,5.2c-0.8-0.3-1.6-0.4-2.2,0.3
			l0,0c-0.1,0.1-0.2,0.2-0.3,0.3l0,0c-0.2,0.1-0.3,0.3-0.5,0.5l0,0c-0.6,1-1,2-1.3,3.1c-0.1,0.4-0.2,0.9-0.6,1.2
			C51.5,10.8,50.8,11.6,49.8,11.3z"/>
		<path fill="#6C4639" d="M60.1,7c1-0.3,2-0.8,3.1-0.8c2.1,1.6,3.7,3.7,4.7,6.2c-1.4,0.1-2.6,0.8-4,1.3c-0.5-0.7-0.4-1.8-1.2-2.4
			c0,0,0,0,0,0c-0.1-0.2-0.1-0.4-0.3-0.5l0,0c-0.1-0.2-0.1-0.4-0.3-0.5l0,0c-0.3-0.4-0.4-0.9-0.7-1.2l0,0c-0.3-0.3-0.4-0.7-0.7-1
			l0,0c-0.2-0.3-0.5-0.5-0.7-0.8l0,0C60,7.3,60,7.2,60.1,7z"/>
		<path fill="#6C4639" d="M105.2,6.2c1.1,0,2,0.4,3,0.9c0.1,0.6-0.5,0.9-0.8,1.3l0,0c-0.4,0.4-0.6,1-1,1.5l0,0
			c-0.5,0.8-0.9,1.7-1.3,2.6c-0.2,0.4-0.2,0.9-0.6,1.1c-1.4-0.2-2.7-0.6-3.9-1.3C101.7,9.8,103.2,7.8,105.2,6.2z"/>
		<path fill="#C53F26" d="M100.5,34c0.2,0.2,0.4,0.4,0.5,0.6c0.1,0.1,0.3,0.1,0.4,0.2l0,0c0.1,0.2,0.4,0.1,0.5,0.3l0,0
			c0.1,0.1,0.2,0.2,0.3,0.3l0,0c0.1,0.1,0.2,0.2,0.3,0.3l0,0c0.1,0.1,0.2,0.2,0.3,0.3l0,0c0.1,0.1,0.2,0.2,0.3,0.3l0,0
			c0.2,0.2,0.3,0.5,0.5,0.7l0,0c0.1,0.1,0.2,0.2,0.3,0.3l0,0c0.1,0.1,0.2,0.2,0.3,0.3l0,0c0.2,0.2,0.3,0.5,0.5,0.7l0,0
			c0.2,0.3,0.5,0.6,0.4,1c0,0.1-0.1,0.2-0.2,0.3c-0.2,0.1-0.3,0-0.5-0.1l0,0c-0.1-0.1-0.2-0.2-0.3-0.3l0,0c-0.1-0.1-0.2-0.2-0.3-0.3
			l0,0c-0.1-0.1-0.2-0.2-0.3-0.3l0,0c-0.1-0.1-0.2-0.2-0.3-0.3l0,0c-0.1-0.2-0.4-0.1-0.5-0.3l0,0c-2.9-2.4-6.2-2.9-9.7-1.7
			c-0.5,0.2-0.9,0.1-1.3-0.2c0,0,0,0,0,0c0.4-2.1,1.9-3.6,4.4-2.6c0.5,0.2,0.5-0.5,1.1-0.4c0.9,0.2,1.7,0.4,2.5,0.7
			C99.8,33.9,100.1,34.2,100.5,34z"/>
		<path fill="#6C4639" d="M116.2,10.4c0.9,0,1.5,0.8,2.4,0.9c0.7,2.9,1.2,5.9,1.3,8.9c-1-0.4-1.8-1.1-2.8-1.2
			c-0.5-0.4-0.2-0.9-0.3-1.3c-0.2-2-0.1-4.1-0.7-6.1c0-0.1,0-0.3,0-0.4C116,10.8,116,10.6,116.2,10.4z"/>
		<path fill="#6C4639" d="M49.8,11.3c0.9-0.2,1.5-0.9,2.4-1c0.5,0.7,0,1.3-0.1,1.9c-0.2,1.9-0.4,3.8-0.4,5.7c0,0.4,0,0.8-0.4,1
			c-1,0.2-1.8,0.8-2.7,1.2C48.6,17.2,49.1,14.2,49.8,11.3z"/>
		<path fill="#C53F26" d="M68,34.1c1.5-0.5,3-1.1,4.6-1c1.1,0,1.8,0.3,1.9,1.5c0,0.3,0.2,0.7,0.3,1.1c-1.9,0-3.7-0.3-5.5,0.2
			c-0.8,0.3-1.7,0.4-2.3,1.2c0,0,0,0,0,0c-0.3,0.2-0.7,0.4-1,0.7l0,0c-0.1,0.1-0.4,0.1-0.5,0.3l0,0c-0.1,0.1-0.2,0.2-0.3,0.3l0,0
			c-0.1,0.1-0.2,0.2-0.3,0.3l0,0c-0.1,0.1-0.2,0.2-0.3,0.3l0,0c-0.3,0.1-0.6,0.6-1,0.2c-0.2-0.2-0.1-0.5,0-0.7l0,0
			c0.1-0.1,0.2-0.2,0.3-0.3l0,0c0.2-0.1,0.1-0.4,0.3-0.5l0,0c0.2-0.2,0.3-0.3,0.5-0.5l0,0c0.2-0.2,0.3-0.5,0.5-0.7l0,0
			c0.1-0.1,0.2-0.2,0.3-0.3l0,0c0.1-0.1,0.2-0.2,0.3-0.3l0,0c0.1-0.1,0.2-0.2,0.3-0.3l0,0c0.1-0.1,0.2-0.2,0.3-0.3l0,0
			c0.1-0.1,0.2-0.2,0.3-0.3l0,0c0.2-0.2,0.5-0.3,0.7-0.5l0,0C67.6,34.4,67.8,34.3,68,34.1L68,34.1z"/>
		<path fill="#584D46" d="M104.7,72.9c-0.3-1.4-1.3-2.6-1.8-3.9c3.2-1.1,2.5-1.3,3.8,1.7c0.8,2,1.9,3.8,3.2,5.5l0,0.1l-0.1,0
			c-1.3-0.4-2.7-0.8-4-1.3c0,0,0,0,0,0c-0.2-0.6-0.4-1.2-0.7-1.7l0,0C104.8,73.3,105.1,72.9,104.7,72.9z"/>
		<path fill="#584D46" d="M65.5,69.1c-0.6,1.2-1.2,2.5-1.8,3.7c-0.2,0.3-0.4,0.5-0.5,0.8c-0.7,2.3-2.8,2.1-4.5,2.7
			c0.8-1.2,1.6-2.4,2.2-3.7c0.5-1.1,1-2.2,1.5-3.3c0.4-0.9,0.9-1.2,1.7-0.7C64.6,68.8,65,68.9,65.5,69.1z"/>
		<path fill="#584D46" d="M99.5,13.5c-1.1,3.1-2.2,6.2-2.5,9.6c-0.3-1.1-0.7-2.1-1.2-3.1c-0.2-0.4-0.1-0.8,0.1-1.1
			c1.1-1.8,2.1-3.7,3.5-5.4C99.5,13.4,99.5,13.4,99.5,13.5z"/>
		<path fill="#584D46" d="M12.1,210.2c-1.4-1-1.8-2.1-1.7-3.5c0.1-0.5,0.3-0.9,0.8-1c0.6-0.1,0.9,0.3,1.1,0.8
			C12.8,207.8,12.4,208.9,12.1,210.2z"/>
		<path fill="#584D46" d="M156.5,210.2c-0.6-1.2-0.5-2.3-0.4-3.4c0.1-0.6,0.3-1.2,1.1-1.2c0.7,0.1,0.8,0.6,0.9,1.2
			C158.2,208.3,157.8,209.4,156.5,210.2z"/>
		<path fill="#584D46" d="M146.5,211.1c-0.3-1.2-0.8-2.1-0.7-3.2c0.1-0.6,0.2-1.4,1-1.4c0.7,0,0.9,0.8,0.9,1.4
			C147.8,209,147.4,210.1,146.5,211.1z"/>
		<path fill="#584D46" d="M22,211c-1-1.1-1.2-2.3-1-3.5c0.1-0.5,0.3-1,0.9-1c0.6,0,0.8,0.5,0.9,1C22.9,208.7,22.7,209.9,22,211z"/>
		<path fill="#584D46" d="M163.7,204.6c-0.3-1.2-0.8-2.1-0.6-3.2c0.1-0.4,0.3-0.9,0.8-0.9c0.5,0,0.7,0.4,0.8,0.9
			C165.2,202.6,164.6,203.5,163.7,204.6z"/>
		<path fill="#584D46" d="M4.8,204.3c-1-0.8-1.5-2.2-1-3.3c0.1-0.3,0.3-0.7,0.8-0.7c0.4,0,0.6,0.4,0.7,0.7
			C5.6,202.3,5.3,203.3,4.8,204.3z"/>
		<path fill="#584D46" d="M135.4,203.6c-0.7-0.8-0.9-1.7-0.8-2.6c0-0.6,0.4-1.1,1.1-1c0.7,0.1,0.9,0.7,0.7,1.3
			C136.2,202,136.2,202.9,135.4,203.6z"/>
		<path fill="#584D46" d="M33.2,203.6c-1-1-1-2.1-0.9-3.2c0-0.4,0.4-0.6,0.8-0.6c0.5,0.1,0.9,0.4,0.9,1
			C34,201.8,33.8,202.7,33.2,203.6z"/>
		<path fill="#584D46" d="M69.1,13.4c0.9,1.3,1.8,2.7,2.7,4c-1.1,0.8-1.2,0.8-1.6-0.3c-0.4-1.2-0.8-2.4-1.2-3.6l0-0.1
			C69,13.4,69.1,13.4,69.1,13.4z"/>
		<path fill="#B1ADA2" d="M94.2,29.8c0.5,0.9,0.7,1.9,1.3,2.7c-0.8,0.4-1.6,0.3-2.4,0.6C93.4,31.9,94,31,94.2,29.8z"/>
		<path fill="#584D46" d="M140.6,311.3c-0.1-1.3-0.5-2.3-0.4-3.4C141.5,308.3,141.7,309.8,140.6,311.3z"/>
		<path fill="#584D46" d="M28.5,307.9c-0.2,1.1-0.3,2.1-0.5,3.3C26.8,309.7,27,308.3,28.5,307.9z"/>
		<path fill="#584D46" d="M71.4,23.4c0.7-0.2,1.1,0.1,1.7,0.3c-0.4,0.6-0.7,1.1-1,1.5c-0.1,0.1-0.2,0.2-0.4,0.3
			C71.3,24.8,71.4,24.1,71.4,23.4z"/>
		<path fill="#584D46" d="M38,297.9c0.8-0.5,1.7-0.3,2.5-0.3c-0.8,0.3-1.6,0.6-2.5,0.5C38,298,38,298,38,297.9z"/>
		<path fill="#584D46" d="M62.4,31.5c0.3,0.1,0.4,0.6,0.9,0.5c0,0.2-0.2,0.3-0.4,0.2c-0.3,0-0.5-0.2-0.6-0.5
			C62.3,31.6,62.3,31.5,62.4,31.5z"/>
		<path fill="#584D46" d="M72.3,186.7c-0.1-0.2-0.3-0.4-0.4-0.7c0.1-0.1,0.1-0.1,0.2-0.1c0.2,0.1,0.2,0.2,0.2,0.4
			C72.4,186.5,72.4,186.6,72.3,186.7z"/>
		<path fill="#584D46" d="M96.3,185.8c0-0.2,0.1-0.3,0.3-0.3l0,0c0.2,0.3,0,0.5-0.2,0.8C96.4,186.1,96.4,186,96.3,185.8z"/>
		<path fill="#584D46" d="M99.4,13.4c0-0.1,0.1-0.2,0.2-0.3c0.2,0.2,0.1,0.3,0,0.4C99.5,13.4,99.5,13.4,99.4,13.4z"/>
		<path fill="#584D46" d="M68.8,13.2l-0.1,0c0,0-0.1,0-0.1,0c0,0,0,0,0,0c0.1-0.1-0.1-0.3,0.2-0.3C68.7,12.9,68.8,13.1,68.8,13.2
			L68.8,13.2z"/>
		<path fill="#584D46" d="M68.9,13.5c-0.1-0.1-0.1-0.2-0.2-0.3c0,0,0,0,0,0c0.1,0.1,0.2,0.1,0.3,0.2C69,13.4,69,13.5,68.9,13.5z"/>
		<path fill="#584D46" d="M105.6,32.1c0,0.1,0,0.2-0.1,0.3C105.5,32.3,105.4,32.2,105.6,32.1z"/>
		<path fill="#584D46" d="M104.3,23.5c0,0.1,0,0.2-0.1,0.2C104.3,23.7,104.3,23.6,104.3,23.5z"/>
		<path fill="#C53F26" d="M69.8,30.1c-0.1,0.1-0.1,0.2-0.2,0C69.6,30.1,69.7,30,69.8,30.1C69.7,30,69.8,30,69.8,30.1z"/>
		<path fill="#584D46" d="M109.9,76.3c0,0.1,0.1,0.1,0.1,0.2c-0.1,0.1-0.2,0-0.2,0C109.8,76.3,109.8,76.3,109.9,76.3z"/>
		<path fill="#B1ADA2" d="M36.6,83.1c0-0.1-0.1-0.1-0.1-0.2c0.1,0,0.2,0,0.3,0C36.7,83,36.6,83,36.6,83.1z"/>
		<path fill="#C53F26" d="M83.6,7.1c-0.1-0.1-0.1-0.2,0-0.3c0,0,0.1,0.1,0.1,0.1C83.6,7,83.6,7,83.6,7.1z"/>
		<path fill="#FAF4C4" d="M68.6,93.6c0.3,3.6-0.2,7.1-0.4,10.9c1-0.5,1.4-1.4,2.1-2c0.3,3.5,1.4,6.6,3.6,9.6
			c0.4-1.3,0.8-2.4,1.3-3.7c1.9,5.1,5.8,8.4,9,12.3c3.2-4,7.1-7.3,9-12.4c0.4,1.3,0.8,2.4,1.2,3.5c1.6-0.9,3.4-5.2,3.8-9.2
			c0.8,0.5,1.1,1.5,2.1,1.9c-0.3-3.7-0.7-7.2-0.5-10.7c0-0.3,0-0.5,0.2-0.6l0,0c0.6-0.1,0.6,0.4,0.7,0.7c0.2,0.7,0.2,1.6,1,2.3
			c0.9-2.4,2.2-4.5,2.7-7c0.8,0.8,1.5,1.8,2.1,2.7l0,0c0.4,0.2,0.8,0.4,1,0.8c0,0.9,0.5,1.7,0.7,2.6c1,2,1.6,4.1,2.1,6.5
			c-1.3-0.4-1.7-1.4-2.2-2.1c0,0-0.1-0.1-0.1-0.3c0.1,0.2,0.1,0.3,0.2,0.4c1,1.5,1.1,3.2,1.2,4.8c0.1,1.6,0.2,3.2,0.4,4.8
			c0,0.2,0,0.3-0.3,0.6c-1.4-1.1-2.4-2.3-2.8-4c0-0.1-0.1-0.2-0.1-0.3c-0.1,0.1,0.1,0.2,0,0.3c1.3,3.2,0.3,6.1-1.1,9
			c-1.6,3.5-3.9,6.7-6.2,9.8c-1,1.4-1.7,3-2.9,4.2c-0.1,0-0.2,0-0.3-0.1c-0.3-0.8-0.5-1.5-0.2-2.4c-0.7,4.4-3.8,7.6-5.4,11.7
			c-0.8-1-0.5-1.9-0.6-2.6c-1.6,3.5-4,6.6-5.6,10.1c-0.6-0.4-5.5-8.8-6.1-10.2c0.1,0.7,0.1,1.6-0.3,2.4c-1.1-0.8-5.3-9-5.7-11.4
			c0,0.9,0.2,1.7-0.1,2.6c-0.1,0.1-0.2,0.2-0.3,0.2c-0.2,0-0.3-0.1-0.4-0.3c-2.2-4.1-5.4-7.6-7.6-11.8c-1.4-2.6-2.8-5.2-2.8-8.3
			c0-0.9,0.2-1.7,0.4-2.6c0.1-0.2,0.2-0.4,0.3-0.6c-0.1,0.2-0.3,0.4-0.4,0.7c-0.4,1.4-1.1,2.4-2.5,3.1c-0.2-3-0.2-6,0.8-8.9
			c-0.5,0.4-0.7,1-1.4,1.2c-0.4-0.9,0.4-3.6,1.6-6c0.3-1,0.9-1.9,0.9-3c0.9-1.2,2-2.3,3-3.6c0.5,2.5,1.8,4.6,2.7,6.9
			c1-0.9,0.6-2.1,1.3-3C68.5,93.1,68.6,93.3,68.6,93.6z"/>
		<path fill="#0B0A09" d="M60.2,95.8c-0.6,2-1.2,3.9-1.8,5.9c0,0,0.1,0.1,0.1,0.1c0.7-0.7,1.3-1.4,2-2.1c-1.5,3.1-0.9,6.6-1.6,10.2
			c1.4-1.2,2.2-2.4,2.7-3.7c0.1-0.1,0.3-0.1,0.4,0c-1,2.2-0.5,4.4,0.2,6.6c1,2.9,2.6,5.5,4.3,8c1.9,2.8,3.9,5.5,5.6,8.5
			c0.2,0.1,0.1-0.1,0.2-0.1c0-1.1,0-2.2,0-3.3c0.7,4.5,4,7.9,5.8,12c0-1,0-2,0-3c1.7,3.8,4.5,6.9,6.1,11.1c1.6-4.1,4.4-7.3,6.1-11.2
			c0,1,0,2,0,3c1.8-4.1,5.1-7.4,5.9-12c0,1,0,2.1,0,3.1c0.1,0.1,0,0.3,0.3,0.2c2.1-3.9,5-7.3,7.3-11.2c1.5-2.7,2.9-5.3,3.2-8.5
			c0.1-1.3-0.3-2.5-0.7-3.7c0.1-0.1,0.3-0.1,0.4,0c0.6,1.6,1.5,3,2.9,4.4c-0.8-3.5,0-7.1-1.8-10.2c0-0.1,0-0.2,0.1-0.2
			c0.7,0.7,1.3,1.4,2,2.1c0.1,0,0.1,0,0.2-0.1c-0.7-2.1-1.3-4.2-2-6.3c1.7,2.2,1.9,4.9,2.8,7.7c-0.7-0.5-1.1-0.8-1.7-1.3
			c0.5,3.1,0.2,6,1,8.9c-1.3-0.4-1.8-1.4-2.7-2.1c-0.5,5.3-3.3,9.4-6,13.6c-2.1,2.8-4,5.6-5.9,9c-0.1-0.9-0.1-1.5-0.1-2.2
			c-1.6,3.5-3.7,6.6-5.3,10.2c-0.6-0.9-0.3-1.8-0.5-2.7c-1.9,3.4-4.1,6.5-5.6,10.4c-1.5-3.9-3.7-7-5.7-10.5c-0.1,1,0.1,1.9-0.4,2.9
			c-1.5-3.6-3.6-6.6-5.4-9.9c0,0.5,0,1,0,1.9c-1.9-3.2-3.7-6.2-5.9-8.9c-1.7-2.8-3.5-5.5-4.7-8.5c-0.7-1.6-1.1-3.3-1.2-5.2
			c-0.9,0.8-1.4,1.8-2.7,2.1c0.9-3,0.4-6,1.1-8.8c-0.1,0,0-0.3-0.2-0.1c-0.4,0.4-0.9,0.8-1.3,1.1C58.4,100.4,58.5,97.8,60.2,95.8z"
			/>
		<path fill="#0B0A09" d="M68.6,93.6c-0.1-0.2-0.2-0.3-0.4-0.7c-0.5,1.4-0.6,2.7-1.5,3.9c-0.7-2.7-2.4-4.8-2.6-7.7
			c-1,1.3-1.6,2.8-3,3.6c-0.4-0.5,0-1.1,0-1.6c0-1.4-0.2-2.8-0.4-4.3c-0.3-1.4-0.4-2.9,0.1-4.4c-1.2,0.2-2,1-3.3,0.8
			c0.3-0.4,0.4-0.9,1-0.8c0.5,0.6,0.9-0.1,1.3-0.2c0.5-0.1,0.9-0.4,1.7-0.7c-1.5,3.5,0.6,6.6,0,10.2c1.4-1.1,1.9-2.5,2.8-3.7
			c0.1,2.7,1.6,4.9,2.6,7.6c0.7-1.3,0.7-2.5,1.1-4c0.9,1.8,2.1,3,3.4,4.1c0,0.2,0,0.2-0.2,0.2C70.1,95.4,69.4,94.5,68.6,93.6z"/>
		<path fill="#0B0A09" d="M59.9,117.6c-0.1-0.1-0.3-0.2-0.4-0.3c0.1-0.1,0.1-0.1,0.2-0.2C59.8,117.2,60.2,117.3,59.9,117.6
			C59.9,117.6,59.9,117.6,59.9,117.6z"/>
		<path fill="#0B0A09" d="M59.9,117.6c0.1,0,0.1,0,0.2,0c0,0,0,0.1,0,0.1C60,117.7,59.9,117.6,59.9,117.6
			C59.9,117.6,59.9,117.6,59.9,117.6z"/>
		<path fill="#0B0A09" d="M107.4,92.8c-0.4-0.2-0.8-0.4-1-0.8c0.3-0.1,0.5-0.3,0.5-0.8c-0.1-1.7,0.2-3.3,0.5-5
			c0.3-1.5,0.1-2.9-0.3-4.3c0,0,0.1-0.1,0.1-0.1c0.8,0.2,1.4,0.9,2.3,0.8c0,0,0.1,0,0.1,0.1c0.1,0.1,0.2,0.2,0.2,0.4
			c0,0.1-0.1,0.2-0.2,0.1c-0.6-0.2-1.2-0.4-1.8-0.6c-0.2-0.1-0.1,0.1-0.2,0.2c0.3,1.3,0.3,2.7,0,4C107.3,88.7,107.3,90.7,107.4,92.8
			z"/>
		<path fill="#0B0A09" d="M110.2,82.4c0.3,0.2,0.5,0.5,0.8,0.7c-0.5,0.5-0.9,0.1-1.3,0c0-0.1,0.1-0.1,0.1-0.2c0.1-0.2,0-0.3,0.1-0.5
			C110,82.4,110.1,82.4,110.2,82.4z"/>
		<path fill="#0B0A09" d="M109.6,82.6c0.1-0.4-0.5-0.6-0.2-1c0.4,0.2,0.6,0.5,0.9,0.8c-0.1,0.1-0.1,0.1-0.2,0.2
			C109.8,82.7,109.7,82.7,109.6,82.6L109.6,82.6z"/>
		<path fill="#0B0A09" d="M108.7,117.5c-0.1,0.1-0.2,0.3-0.3,0.2c-0.1-0.1,0-0.3,0.2-0.3C108.6,117.4,108.7,117.4,108.7,117.5z"/>
		<path fill="#0B0A09" d="M133.5,95.4c0-0.1-0.1-0.1-0.1-0.2C133.5,95.1,133.5,95.2,133.5,95.4C133.6,95.3,133.5,95.4,133.5,95.4z"
			/>
		<path fill="#584D46" d="M71.9,186.1c0-0.1,0-0.2,0-0.3c0.1,0.1,0.1,0.1,0.2,0.2C72.1,186,72,186,71.9,186.1z"/>
		<path fill="#584D46" d="M96.6,185.5c0,0,0.1-0.1,0.1-0.1c0,0,0,0.1,0,0.1C96.7,185.5,96.7,185.5,96.6,185.5
			C96.6,185.5,96.6,185.5,96.6,185.5z"/>
		<path fill="#0B0A09" d="M43.6,314.7c0-0.6,0.1-1.1,0.3-1.6c0.3-0.6,0.7-1.1,1.5-1c0.7,0.1,1.2,0.6,1.3,1.4
			c0.2,1.4-0.4,2.6-1.2,3.6c-0.4,0.5-0.8,0.3-1.1-0.1C43.8,316.4,43.5,315.6,43.6,314.7z"/>
		<path fill="#0B0A09" d="M32,312.5c0-0.4,0.1-1,0.3-1.5c0.3-0.6,0.7-1.1,1.5-1c0.8,0.1,1.2,0.6,1.3,1.3c0.2,1.4-0.3,2.6-1.2,3.6
			c-0.4,0.5-0.8,0.3-1.1,0C32.3,314.3,32.1,313.5,32,312.5z"/>
		<path fill="#0B0A09" d="M58.1,313.6c0-0.4,0.1-0.9,0.3-1.3c0.3-0.5,0.7-1,1.4-0.9c0.6,0.1,1,0.6,1.1,1.2c0.2,1.2-0.4,2.2-1.1,3.1
			c-0.4,0.5-0.8,0.2-1.1-0.2C58.3,315,58.2,314.3,58.1,313.6z"/>
		<path fill="#0B0A09" d="M59.5,302.5c0.6-0.6,1.2-1.1,2.1-1.2c-0.6,0.4-1.3,0.9-1.9,1.3C59.6,302.7,59.5,302.6,59.5,302.5z"/>
		<path fill="#0B0A09" d="M44,301.4c0.5-0.6,1.2-1.1,1.9-1.4c0.1,0,0.2,0,0.1,0.2c-0.6,0.5-1.3,1-1.9,1.5
			C44,301.6,44,301.5,44,301.4z"/>
		<path fill="#584D46" d="M46.9,299.4c0.3-0.2,0.6-0.4,1.1-0.3c-0.3,0.5-0.7,0.4-1.1,0.6C46.8,299.6,46.8,299.5,46.9,299.4z"/>
		<path fill="#0B0A09" d="M46.9,299.4c0,0.1,0,0.2,0,0.3c-0.3,0.1-0.5,0.3-0.8,0.4c0-0.1-0.1-0.1-0.1-0.2
			C46.2,299.6,46.6,299.6,46.9,299.4z"/>
		<path fill="#0B0A09" d="M44.2,301.7c-0.1,0.1-0.2,0.2-0.3,0.3c-0.1-0.1-0.1-0.1-0.2-0.2c0.1-0.1,0.2-0.2,0.3-0.3
			C44.1,301.5,44.1,301.6,44.2,301.7z"/>
		<path fill="#0B0A09" d="M59,303c0.1-0.1,0.2-0.2,0.2-0.3c0.1,0,0.1,0.1,0.1,0.2c-0.1,0.1-0.2,0.2-0.2,0.2
			C59.1,303.1,59.1,303,59,303z"/>
		<path fill="#0B0A09" d="M59.7,302.7c-0.1,0.1-0.2,0.2-0.2,0.2c0-0.1-0.1-0.1-0.1-0.2c0.1-0.1,0.1-0.1,0.2-0.2
			C59.5,302.6,59.6,302.6,59.7,302.7z"/>
		<path fill="#0B0A09" d="M125,314.8c-0.1,1-0.2,2.4-1.3,2.5c-1.1,0.2-1.3-1.2-1.6-2c-0.3-1-0.5-2,0.3-2.8c0.4-0.4,0.9-0.6,1.4-0.3
			C124.9,312.7,124.9,313.7,125,314.8z"/>
		<path fill="#0B0A09" d="M136.5,312.3c0,1.6-0.7,3.1-1.3,3c-1.1-0.2-1.3-1.3-1.6-2.1c-0.2-0.5-0.3-1-0.2-1.5
			c0.1-0.8,0.5-1.5,1.4-1.6c0.9-0.1,1.3,0.4,1.6,1.2C136.4,311.7,136.5,312.1,136.5,312.3z"/>
		<path fill="#0B0A09" d="M110.5,313.5c-0.2,0.9-0.2,2.2-1.3,2.4c-1,0.2-1.1-1.1-1.5-1.9c0,0,0-0.1,0-0.1c-0.2-0.8-0.2-1.6,0.4-2.2
			c0.4-0.4,0.8-0.5,1.3-0.2C110.2,312,110.4,312.7,110.5,313.5z"/>
		<path fill="#0B0A09" d="M11.3,186.1c0.1-0.1,0.2-0.2,0.4,0c-0.1,0.1-0.1,0.1-0.2,0.2C11.4,186.2,11.3,186.2,11.3,186.1z"/>
		<path fill="#0B0A09" d="M71.7,72.9c1,0.5,1.6,1.4,2.1,2.3c2.8,5.1,7.3,6.1,12.5,5.6c3.5-0.3,6.2-2.1,8-5.1c0.6-1,1.1-2,2.2-2.5
			c-1.2,1.9-2.4,4-4,5.6c-2.1,2.1-4.8,2.5-7.6,2.8c-1.7,0.1-3.4-0.1-5-0.5c-2.2-0.5-4-1.7-5.3-3.6C73.7,75.9,72.7,74.4,71.7,72.9z"
			/>
		<path fill="#0B0A09" d="M106.4,91.9c-0.9-0.6-1.3-1.6-2.1-2.7c-0.2,2.8-1.9,5-2.6,7.7c-0.8-1.1-1-2.1-1.3-3.2
			c-0.1-0.3,0-0.7-0.5-0.6c-0.3-0.6,0.4-0.8,0.4-1.3c0.4,1.2,0.6,2.5,1.1,3.9c1-2.6,2.5-4.9,2.6-7.7C104.8,89.4,106,90.4,106.4,91.9
			z"/>
		<path fill="#0B0A09" d="M100,93.1c-0.1,0.2-0.1,0.4-0.2,0.6c-0.9,0.8-1.5,1.8-2.6,2.4c-0.2,0-0.2,0-0.2-0.2
			C98.1,95.1,98.9,93.9,100,93.1z"/>
		<path fill="#0B0A09" d="M73.3,97.7c-0.8-0.4-1.5-1-2.2-1.7c0.1-0.1,0.1-0.1,0.2-0.2c0.8,0.5,1.5,1,2.1,1.7
			C73.4,97.6,73.3,97.7,73.3,97.7z"/>
		<path fill="#0B0A09" d="M97.2,96.1c-0.6,0.6-1.2,1.1-2,1.5c0.4-0.8,1.1-1.2,1.9-1.7C97.1,96,97.2,96.1,97.2,96.1z"/>
		<path fill="#0B0A09" d="M105,73.4c0.6,0.4,0.8,1,0.7,1.7C105.2,74.7,105,74.1,105,73.4z"/>
		<path fill="#0B0A09" d="M94.8,98c-0.2,0.3-0.5,0.5-0.8,0.6c0,0-0.1-0.1-0.1-0.1c0.2-0.3,0.4-0.5,0.8-0.7
			C94.8,97.9,94.8,97.9,94.8,98z"/>
		<path fill="#0B0A09" d="M91.3,100.7c0.1-0.2,0.3-0.4,0.5-0.4c0,0,0.1,0.1,0.1,0.1C91.8,100.6,91.6,100.8,91.3,100.7L91.3,100.7z"
			/>
		<path fill="#0B0A09" d="M77.4,101c-0.3,0-0.5-0.2-0.5-0.5l0,0C77.2,100.6,77.4,100.7,77.4,101L77.4,101z"/>
		<path fill="#0B0A09" d="M96.8,72.9c-0.1-0.3,0.2-0.4,0.4-0.5C97.2,72.7,97.1,72.9,96.8,72.9z"/>
		<path fill="#0B0A09" d="M90.6,101.3c0,0.2-0.1,0.3-0.3,0.3c0,0-0.1,0-0.1-0.1C90.3,101.3,90.4,101.3,90.6,101.3L90.6,101.3z"/>
		<path fill="#0B0A09" d="M76,99.9c-0.2-0.1-0.4-0.2-0.5-0.4l0.1-0.1C75.8,99.4,75.9,99.5,76,99.9L76,99.9z"/>
		<path fill="#0B0A09" d="M93.3,99.2c-0.1,0.3-0.3,0.4-0.5,0.4l0-0.1C92.8,99.3,93,99.2,93.3,99.2L93.3,99.2z"/>
		<path fill="#0B0A09" d="M104.7,72.9c0.5-0.1,0.3,0.3,0.3,0.5C104.8,73.4,104.8,73.1,104.7,72.9z"/>
		<path fill="#0B0A09" d="M94,98.7c-0.1,0.2-0.2,0.3-0.4,0.3c0,0-0.1-0.1-0.1-0.1c0.1-0.1,0.3-0.2,0.4-0.3
			C93.9,98.6,94,98.6,94,98.7z"/>
		<path fill="#0B0A09" d="M100.3,69.8c0.2-0.2,0.3-0.3,0.6-0.3C100.8,69.9,100.5,69.8,100.3,69.8z"/>
		<path fill="#0B0A09" d="M92.5,99.9c-0.1,0.2-0.2,0.3-0.4,0.3c0,0-0.1-0.1-0.1-0.1c0.1-0.1,0.3-0.2,0.4-0.3
			C92.5,99.8,92.5,99.8,92.5,99.9z"/>
		<path fill="#0B0A09" d="M73.9,98.2c-0.1-0.1-0.3-0.2-0.4-0.3c0-0.1,0-0.1,0.1-0.1c0.1,0.1,0.3,0.2,0.4,0.3
			C74,98.2,74,98.2,73.9,98.2z"/>
		<path fill="#0B0A09" d="M77.9,101.3c-0.2,0.1-0.4,0-0.5-0.2c0,0,0,0,0,0C77.6,101,77.8,101.1,77.9,101.3L77.9,101.3z"/>
		<path fill="#0B0A09" d="M74.3,98.4c0.1,0.1,0.2,0.2,0.2,0.2l0,0C74.4,98.6,74.3,98.5,74.3,98.4C74.3,98.4,74.3,98.4,74.3,98.4z"/>
		<path fill="#0B0A09" d="M74.1,98.1c0.1,0.1,0.2,0.2,0.2,0.2c0,0-0.1,0.1-0.1,0.1c-0.1-0.1-0.2-0.2-0.3-0.2
			C74,98.2,74,98.2,74.1,98.1z"/>
		<path fill="#0B0A09" d="M74.8,98.9c-0.1-0.1-0.2-0.2-0.2-0.2c0,0,0,0,0,0C74.7,98.6,74.8,98.7,74.8,98.9L74.8,98.9z"/>
		<path fill="#0B0A09" d="M94.7,97.9c0.1-0.1,0.1-0.2,0.3-0.1c0,0-0.1,0.2-0.1,0.3C94.8,98,94.7,97.9,94.7,97.9z"/>
		<path fill="#0B0A09" d="M73.4,97.6c0.1,0.1,0.2,0.1,0.3,0.2c0,0-0.1,0.1-0.1,0.1c-0.1-0.1-0.2-0.2-0.2-0.2
			C73.3,97.7,73.4,97.6,73.4,97.6z"/>
		<path fill="#0B0A09" d="M77.9,101.3c0.1,0,0.1,0.1,0.2,0.1C77.9,101.5,77.9,101.4,77.9,101.3C77.9,101.3,77.9,101.3,77.9,101.3z"
			/>
		<path fill="#0B0A09" d="M90.6,101.3c0-0.1,0.1-0.1,0.1-0.2c0,0,0.1,0.1,0.1,0.1C90.8,101.3,90.7,101.3,90.6,101.3
			C90.6,101.3,90.6,101.3,90.6,101.3z"/>
		<path fill="#0B0A09" d="M91.3,100.8c0,0.1-0.1,0.2-0.2,0.1C91.2,100.9,91.2,100.8,91.3,100.8C91.3,100.7,91.3,100.8,91.3,100.8z"
			/>
		<path fill="#0B0A09" d="M76.9,100.6c-0.2,0-0.3,0-0.2-0.2l0,0C76.8,100.4,76.8,100.5,76.9,100.6C76.9,100.6,76.9,100.6,76.9,100.6
			z"/>
		<path fill="#0B0A09" d="M91.8,100.3c0.1-0.1,0.2-0.1,0.3-0.2c0,0,0.1,0.1,0.1,0.1C92,100.2,91.9,100.3,91.8,100.3
			C91.8,100.4,91.8,100.3,91.8,100.3z"/>
		<path fill="#0B0A09" d="M76.7,100.3c-0.1,0-0.1,0-0.2,0c0,0,0-0.1,0.1-0.1C76.6,100.2,76.6,100.3,76.7,100.3L76.7,100.3z"/>
		<path fill="#0B0A09" d="M76,99.8c0.1,0.1,0.1,0.1,0.2,0.2C76,100,76,100,76,99.8C76,99.9,76,99.8,76,99.8z"/>
		<path fill="#0B0A09" d="M92.4,99.7c0.1-0.1,0.2-0.1,0.3-0.2c0,0,0,0.1,0,0.1c-0.1,0.1-0.2,0.2-0.2,0.2
			C92.5,99.8,92.5,99.8,92.4,99.7z"/>
		<path fill="#0B0A09" d="M75.4,99.4c0-0.1-0.1-0.1-0.1-0.2C75.4,99.2,75.5,99.2,75.4,99.4C75.5,99.3,75.4,99.4,75.4,99.4z"/>
		<path fill="#0B0A09" d="M93.2,99.1c0.1-0.1,0.2-0.2,0.3-0.2c0,0,0.1,0.1,0.1,0.1C93.5,99,93.4,99.1,93.2,99.1
			C93.3,99.2,93.2,99.1,93.2,99.1z"/>
		<path fill="#0B0A09" d="M74.8,98.9c0.1,0,0.1,0.1,0.2,0.1C74.9,99.1,74.8,99,74.8,98.9C74.8,98.9,74.8,98.9,74.8,98.9z"/>
		<path fill="#0B0A09" d="M71.3,72.4c0.1,0.1,0.3,0.1,0.2,0.3C71.4,72.6,71.3,72.5,71.3,72.4z"/>
		<path fill="#0B0A09" d="M71.4,72.7c0.2,0,0.3,0,0.3,0.3C71.5,73,71.4,72.9,71.4,72.7z"/>
		<path fill="#0B0A09" d="M96.6,73.2c-0.1-0.2,0-0.3,0.3-0.3C96.8,73.1,96.8,73.2,96.6,73.2z"/>
		<path fill="#0B0A09" d="M107.1,81.9c0-0.1-0.1-0.1-0.1-0.1c0.1-0.1,0.2,0,0.2,0C107.2,81.8,107.2,81.8,107.1,81.9z"/>
		<path fill="#6C4639" d="M91.1,65.9c0,0.1,0,0.1-0.1,0.1c-0.4,0.2-0.8,0.4-1.1,0.7l0,0c-1.3,0.7-2.6,1.2-4,1.4
			c-1.1,0.2-1.5-0.1-1.5-1.2c0-0.9,0-1.8,0-2.6c0,0.9,0,1.7,0,2.6c0,1.2-0.3,1.4-1.5,1.3c-1.6-0.2-3.2-0.6-4.6-1.6l0,0
			c-0.1-0.2-0.3-0.1-0.5-0.3l0,0c-0.1-0.1-0.1-0.2-0.2-0.2l0,0c-0.1-0.1-0.1-0.2-0.2-0.2l0,0c-0.1-0.1-0.1-0.2-0.2-0.2l0,0
			c-0.3-0.5-0.8-0.9-0.8-1.6c0.6-0.4,1.1-0.3,1.6,0.2c0.2,0.2,0.4,0.5,0.7,0.7c0.8,0.6,1.7,0.7,2.2,0.2c0.5-0.5,0.5-1.9,0-2.6
			c-0.5-0.6-1-0.4-1.5-0.1c-0.5,0.3-0.9,0.8-1.5,1c-1.4,0.6-2.4,0-2.5-1.6c-0.1-1.3,0.3-2.4,1.4-3.2c0.1-0.1,0.3-0.2,0.5-0.3
			c0.2-0.1,0.5-0.3,0.7-0.4c1.4-0.5,2.9-0.8,4.5-0.8c2.5,0.1,5.1-0.3,7.6,0.5c0.3,0.1,0.6,0.2,0.9,0.4c0.5,0.3,0.9,0.7,1.3,1
			c1.1,1,1.4,2.6,0.7,3.9c-0.3,0.5-0.7,0.7-1.3,0.6c-0.9-0.1-1.6-0.7-2.3-1.2c-0.4-0.3-0.9-0.6-1.4-0.1c-0.6,0.7-0.7,1.4-0.4,2.2
			c0.2,0.6,0.8,0.8,1.4,0.6c0.5-0.1,1-0.4,1.3-0.8c0.2-0.2,0.3-0.5,0.5-0.6c0.4-0.3,0.8-0.3,1.1,0c0.3,0.3,0.1,0.6,0,0.9
			c-0.1,0.2-0.3,0.4-0.5,0.6l0,0C91.2,65.4,91.2,65.7,91.1,65.9z"/>
		<path fill="#0B0A09" d="M104,49.4c-2.8,2.1-6,3.4-9.5,4c-1.2,0.2-2.2-0.2-2.8-1.3c-1.9-3.2-1.3-7.9,1.2-10.6
			c2.6-2.7,6.8-2.8,9.9-0.2c1.2,1,2.2,2.2,2.7,3.7c0.7,1.7,0.4,2.7-1.1,3.9c0,0-0.1-0.1-0.1-0.1c0-0.1-0.1-0.2-0.1-0.3
			c1.1-2.7-0.5-4.3-2.3-5.7c-1.6-1.2-3.6-1.9-5.8-1.4c0.7,0.1,1.2,0.1,1.2,1c-0.5,0.3-0.8,0-1.2-0.2c-1-0.4-1.9-0.2-2.7,0.5
			c-1.2,1.1-1.9,2.5-2.2,4.1c-0.1,0.4-0.3,0.8-0.2,1.2c0-0.4,0.1-0.8,0.2-1.3c0.4-2,1.3-2.9,2.9-2.7c0.4,0.2,0.1,0.8,0.4,1.1
			c0.4,0.2,0.8-0.2,1.1,0c0.1,0.1,0.1,0.2,0.2,0.3c0,0.5-0.4,0.6-0.7,0.9c0.4-0.3,0.7-0.4,1.1-0.2c0.5,0.5,0.7,1.1,0.9,1.8
			c-0.1,1.6-0.2,3.3-1.4,4.5c-0.1,0.1-0.2,0.1-0.3,0.1c0.2,0.2,0.2-0.1,0.3-0.1c2.6-1.1,3.3-2.1,3.3-5.3c0-1.3-0.5-2.5-1.2-3.6
			c-0.3-0.4-0.7-0.7-0.3-1.2c0.6-0.2,0.9,0.3,1.1,0.6c1.8,2.2,2.1,5.7,0.5,8.3c-0.1,0.1-0.3,0.1-0.3,0.4c0-0.1,0.1-0.2,0.2-0.2
			c1.3-0.6,2.6-1.3,3.8-2.1c0.3-0.2,0.7-0.4,1.1-0.3C104,49.1,104,49.2,104,49.4z"/>
		<path fill="#0B0A09" d="M64.4,49.2c-1.8-1.2-2.2-2.4-1.4-4.4c1.7-4.1,6.1-6.3,9.9-5c2.7,0.9,4.8,4,4.9,7.2
			c0.1,1.8-0.3,3.5-1.1,5.1c-0.6,1-1.4,1.5-2.6,1.3c-3.2-0.5-6.1-1.7-8.8-3.5c0,0,0.1-0.1,0.1-0.1c0.5-0.2,0.9,0,1.3,0.3
			c0.8,0.5,1.7,0.9,2.7,1.3c0.1,0.1,0.1,0.1,0.2,0.2c0.1-0.2-0.2-0.1-0.2-0.2c-0.5-0.7-0.9-1.4-0.7-2.2c0.1-0.2,0.2-0.5,0.5-0.4
			c0.5,0.5,0.5,1.2,0.8,1.8c0.4,1,1,1.8,2.4,1.8c-1-1.5-0.9-3-0.9-4.6c0.1-0.5,0.1-1.1,0.6-1.5c0.3-0.1,0.5-0.1,1,0.1
			c-0.4-0.3-0.6-0.4-0.6-0.7c0-0.2,0.1-0.3,0.3-0.4c0.4-0.1,0.8,0.2,1.1,0.1c0.5-0.3,0-0.8,0.4-1.1c1.1-0.1,2,0.4,2.5,1.5
			c0.2,0.5,0.3,1,0.5,1.6c0,0.2,0,0.5,0.1,0.7c0-0.2,0-0.4,0-0.5c-0.4-1.7-1-3.3-2.3-4.6c-0.8-0.8-1.7-1-2.7-0.6
			c-0.4,0.2-0.8,0.5-1.2,0.2c0.1-0.8,0.1-0.8,1-1c-3.2-0.5-6.4,1.2-7.9,3.9c-0.7,1.3-0.3,2.4,0.2,3.5C64.6,49.1,64.5,49.2,64.4,49.2
			z"/>
		<path fill="#0B0A09" d="M95.9,69.9c-1.2,1.1-1.6,2.8-2.7,4.1c0,0-0.1-0.1-0.1-0.1c-0.1-0.4,0.2-0.7,0.2-1.2
			c-0.5,0-0.9,0.1-1.3,0.4c-0.1,0.8,0.5,0.8,0.9,1.1c0,0,0.1,0.1,0.1,0.1c-0.8,0.6-0.8,0.6-1.6-0.3c-2.5,3.7-7.3,5.1-11.4,3.2
			c-1.4-0.6-2.4-1.7-2.9-3.2c-0.2-0.2-0.4-0.1-0.6-0.3c-0.2-0.9-0.2-0.9-1.5-1.1c-0.2,0.3,0.2,0.7,0,1c0,0-0.1,0.1-0.1,0.1
			C74.3,73,74,72,73.8,71c1.7,1.1,3.4,1.1,5.3,0.6c3.5-1.1,7-1,10.5,0.1c2.4,0.8,4.4,0.2,5.9-1.7C95.7,69.9,95.7,69.7,95.9,69.9z"/>
		<path fill="#C53F26" d="M59.3,52c0.8-0.1,1.5-0.3,2.3-0.3c0.9,0,1.3,0.6,0.7,1.2c-1.3,1.3-1.5,2.4-0.5,4c0.5,0.7-0.1,1.4-0.8,1
			c-1.7-0.9-2.9-0.5-4.1,0.9c-0.5,0.6-1,0.3-1.1-0.5c0-0.1,0-0.2,0-0.2c0.4-1.7-0.2-2.7-1.8-3.4c-0.9-0.4-0.8-1.3,0.1-1.4
			c1.9-0.2,2.5-1.3,2.7-3c0.1-0.9,0.7-1,1.3-0.2C58.5,50.6,58.9,51.3,59.3,52z"/>
		<path fill="#C53F26" d="M112.6,55.6c0,0.8,0.2,1.6,0.1,2.3c0,0.9-0.6,1.3-1.2,0.6c-1.1-1.3-2.3-1.8-3.8-0.8
			c-0.3,0.2-0.7,0.2-1-0.1c-0.3-0.3-0.1-0.7,0-1c0.3-0.6,0.6-1.3,1-1.9c-0.5-0.6-1.1-1.2-1.5-1.9c-0.5-0.8-0.1-1.4,0.7-1.2
			c1.8,0.6,2.9-0.1,3.6-1.8c0.1-0.2,0.4-0.4,0.7-0.4c0.7,0.5,0.8,1.2,0.8,2c0,0.8,0.3,1.2,1.2,1.3c0.7,0.1,1.8,0.1,1.9,0.9
			c0.1,0.9-0.9,1-1.6,1.4C113.2,55.4,112.9,55.5,112.6,55.6z"/>
		<path fill="#0B0A09" d="M91.3,65.3c0.2-0.4,0.3-0.8,0.5-1.2c-0.4-0.3-0.7-0.4-1,0c-0.1,0.2-0.2,0.4-0.3,0.5c-0.7,1-2.1,1.4-2.8,1
			c-0.8-0.5-1-2.2-0.3-3.2c0.4-0.7,1-0.9,1.7-0.4c0.7,0.5,1.3,1.1,2.1,1.4c0.8,0.3,1.3,0.1,1.6-0.7c0.6-1.4,0.3-2.7-1-3.6
			c-0.4-0.3-0.7-0.5-0.9-0.9c0,0,0.1-0.1,0-0.1c0,0,0-0.1,0-0.1s-0.1,0-0.1,0c-0.1-0.1-0.1-0.1-0.1-0.2c0-0.1,0-0.3,0-0.4
			c0-0.1,0.1-0.1,0.2-0.2c2.1,1.5,3,3.5,2.3,5.4C92.9,63.7,92.3,64.7,91.3,65.3z"/>
		<path fill="#0B0A09" d="M76.9,58.8c-1.2,0.9-1.7,2.1-1.4,3.5c0.3,1.2,1,1.6,2.1,1c0.6-0.3,1.1-0.8,1.6-1.2c0.3-0.2,0.6-0.4,1-0.4
			c0.8,0.1,1.5,1.6,1.2,2.7c-0.2,1-0.9,1.5-1.9,1.3c-0.8-0.2-1.4-0.6-1.8-1.3c-0.3-0.5-0.6-0.7-1.2-0.4c-0.1,0.6,0.7,0.9,0.6,1.6
			c-2.6-2.4-2.8-5.3-0.6-7.4c0.1,0,0.1,0.1,0.2,0.1c0.1,0.1,0.1,0.2,0.1,0.4C76.9,58.7,76.9,58.8,76.9,58.8z"/>
		<path fill="#0B0A09" d="M78.3,66.5c1.4,0.6,2.7,1.3,4.3,1.4c0.4,0,0.9,0,1.5,0c0-1.5,0-3,0-4.6c0.1,0,0.2,0,0.3,0
			c0.3,1.5,0,3,0.2,4.5c1.5,0.2,2.8-0.2,4.1-0.7c0.4-0.2,0.7-0.5,1.2-0.4c-0.7,0.8-1.6,1-2.5,1.2c-2.7,0.7-5.3,0.6-7.9-0.5
			C79,67.2,78.5,67.1,78.3,66.5z"/>
		<path fill="#0B0A09" d="M72.8,70.1c-1.5-1.2-1.7-3-2.1-4.7c-0.2-0.9-0.2-1.8-0.2-2.7c0-1.4-0.7-2.2-2.1-2.2c-0.9,0-1.7,0-2.6,0
			c1.8-0.8,3.2-0.7,5.3,0.4C70.4,64.2,71.2,67.2,72.8,70.1z"/>
		<path fill="#0B0A09" d="M102.5,60.6c-1-0.4-2-0.2-2.9-0.1c-1,0.1-1.7,1.1-1.7,2.2c0,2.6-0.3,5-2,7.1c0.3-1.3,1.1-2.4,1.4-3.7
			c0.4-1.7,0.5-3.5,0-5.3C99,60.3,100.7,59.3,102.5,60.6z"/>
		<path fill="#0B0A09" d="M78,57c4.2-2.2,8.3-2.3,12.5,0c0,0.1-0.1,0.2-0.3,0.3c-1.4-0.1-2.5-0.9-3.9-1.1c-2.4-0.4-4.7-0.1-6.9,0.8
			c-0.4,0.1-0.7,0.4-1.1,0.3C78.1,57.2,78,57.1,78,57z"/>
		<path fill="#0B0A09" d="M91.5,36c0.5,0.2,1,0.1,1.6-0.1c3.3-0.9,6.4-0.5,9.2,1.5c0.2,0.1,0.3,0.2,0.3,0.5
			c-1.8-1.2-3.6-2.1-5.8-2.2c-1.3-0.1-2.6,0.1-3.8,0.6C92.4,36.5,91.9,36.7,91.5,36z"/>
		<path fill="#6C4639" d="M108.6,60.5c0.5,0,0.8,0.3,0.9,0.8c0.1,0.5-0.3,0.8-0.8,0.9c-0.5,0.1-0.8-0.3-0.8-0.8
			C107.8,60.9,108,60.5,108.6,60.5z"/>
		<path fill="#6C4639" d="M60.6,61.3c0,0.5-0.3,0.8-0.8,0.8c-0.5,0-0.8-0.3-0.8-0.8c0-0.5,0.3-0.8,0.8-0.8
			C60.4,60.5,60.6,60.8,60.6,61.3z"/>
		<path fill="#6C4639" d="M65.3,58.5c-0.5-0.1-0.7-0.4-0.7-0.9c0-0.4,0.3-0.8,0.8-0.7c0.4,0.1,0.7,0.4,0.7,0.8
			C66,58.2,65.7,58.4,65.3,58.5z"/>
		<path fill="#6C4639" d="M103.8,57.6c0,0.4-0.2,0.8-0.7,0.8c-0.5,0-0.7-0.3-0.8-0.7c0-0.5,0.2-0.8,0.7-0.8
			C103.5,56.9,103.7,57.2,103.8,57.6z"/>
		<path fill="#0B0A09" d="M104,39.1c0.1,0,0.3,0,0.4,0.1c0.2,0.1,0.2-0.1,0.2-0.2c-0.1-0.4-0.3-0.7-0.4-1.1c0.7,0.6,1,1.4,1.3,2.5
			C104.7,40.1,104.4,39.6,104,39.1z"/>
		<path fill="#0B0A09" d="M64.1,39.5c-0.3,0.3-0.5,0.6-1,0.8c-0.4-0.6,0-0.9,0.2-1.3c0.1,0,0.2,0,0.3,0c0.1,0.1,0.2,0.1,0.4,0.2
			C64.1,39.3,64.1,39.4,64.1,39.5z"/>
		<path fill="#0B0A09" d="M77,57.7c0.3-0.2,0.7-0.5,1-0.7c0,0,0.1,0.1,0.1,0.1c0.1,0.3-0.1,0.5-0.3,0.7c-0.1,0.1-0.2,0.1-0.3,0.1
			c-0.1,0-0.2,0-0.3,0C77.1,57.9,77,57.8,77,57.7z"/>
		<path fill="#0B0A09" d="M64,38.9c0.4,0.3,0.6-0.4,1-0.2c-0.3,0.3-0.6,0.6-0.8,0.9c0,0-0.1-0.1-0.1-0.1c-0.1-0.1-0.1-0.2-0.1-0.4
			C63.9,38.9,63.9,38.9,64,38.9z"/>
		<path fill="#0B0A09" d="M66.1,37.7c0.1-0.5,0.5-0.6,1-0.7C66.9,37.4,66.5,37.5,66.1,37.7z"/>
		<path fill="#0B0A09" d="M89.9,66.7C90,66.2,90.4,66,91,66C90.6,66.3,90.4,66.7,89.9,66.7z"/>
		<path fill="#0B0A09" d="M64,38.1c0,0.2,0,0.5,0,0.7c0,0,0,0,0,0c-0.1,0.1-0.2,0.4-0.5,0.3c0,0-0.1-0.1-0.1-0.1
			C63.5,38.7,63.6,38.3,64,38.1z"/>
		<path fill="#0B0A09" d="M65.4,49.9c-0.2-0.1-0.4-0.2-0.6-0.4c-0.1-0.1,0-0.2,0.1-0.3c0.3-0.1,0.6,0.1,0.6,0.4
			C65.5,49.8,65.4,49.9,65.4,49.9z"/>
		<path fill="#0B0A09" d="M104.3,37.9c-0.4-0.1-0.5-0.4-0.5-0.7C104.1,37.3,104.3,37.5,104.3,37.9z"/>
		<path fill="#0B0A09" d="M64.9,36.9c0,0.3-0.1,0.5-0.5,0.5C64.5,37.2,64.6,36.9,64.9,36.9z"/>
		<path fill="#0B0A09" d="M65.4,36.2c0.1,0.4-0.2,0.6-0.5,0.7C64.9,36.6,65.1,36.4,65.4,36.2z"/>
		<path fill="#0B0A09" d="M67.3,34.5c-0.1,0.3-0.3,0.5-0.7,0.5C66.7,34.7,67,34.5,67.3,34.5z"/>
		<path fill="#0B0A09" d="M103.3,36.7c-0.3-0.2-0.6-0.3-0.5-0.7C103.1,36.2,103.4,36.3,103.3,36.7z"/>
		<path fill="#0B0A09" d="M68,34.1c-0.1,0.3-0.4,0.5-0.7,0.5C67.4,34.2,67.7,34,68,34.1z"/>
		<path fill="#0B0A09" d="M101.9,35c-0.3,0.1-0.4,0-0.5-0.3C101.7,34.7,101.8,34.8,101.9,35z"/>
		<path fill="#0B0A09" d="M91.1,65.9c-0.1-0.3,0-0.5,0.3-0.6C91.6,65.6,91.2,65.7,91.1,65.9z"/>
		<path fill="#0B0A09" d="M77.9,66.3c0.2-0.1,0.4,0,0.5,0.3C78.1,66.6,78,66.5,77.9,66.3z"/>
		<path fill="#0B0A09" d="M104.3,49c-0.1,0.1-0.3,0.2-0.4,0.3c-0.1-0.1-0.1-0.1-0.2-0.2c0-0.2,0.2-0.3,0.4-0.4
			C104.2,48.9,104.3,48.9,104.3,49z"/>
		<path fill="#0B0A09" d="M64.8,49.6c-0.1-0.1-0.3-0.2-0.4-0.3c0.1-0.1,0.1-0.1,0.2-0.2c0.2,0,0.4,0.1,0.4,0.3
			C64.9,49.4,64.9,49.5,64.8,49.6z"/>
		<path fill="#0B0A09" d="M101.4,34.8c-0.2,0-0.3,0-0.4-0.2C101.2,34.5,101.4,34.5,101.4,34.8z"/>
		<path fill="#0B0A09" d="M64.4,37.4c0.1,0.3,0,0.4-0.3,0.5C64.1,37.7,64.2,37.5,64.4,37.4z"/>
		<path fill="#0B0A09" d="M65.6,37.9c0.1-0.2,0.2-0.3,0.5-0.3C66,37.9,65.9,38.1,65.6,37.9z"/>
		<path fill="#0B0A09" d="M90.5,57c0.1,0.1,0.3,0.2,0.4,0.3c0,0,0,0,0,0c-0.3,0.2-0.5,0.2-0.5-0.2C90.4,57.1,90.4,57,90.5,57z"/>
		<path fill="#0B0A09" d="M102.6,37.9c0.3-0.1,0.4,0,0.5,0.3C102.8,38.3,102.7,38.1,102.6,37.9z"/>
		<path fill="#0B0A09" d="M66.6,35c0,0.2-0.1,0.3-0.3,0.3C66.4,35.1,66.4,35,66.6,35z"/>
		<path fill="#0B0A09" d="M102.1,35.3c-0.2,0.1-0.3,0-0.3-0.3C102,35.1,102.1,35.2,102.1,35.3z"/>
		<path fill="#0B0A09" d="M66.4,35.3c0,0.2-0.1,0.3-0.3,0.3C66.1,35.4,66.2,35.3,66.4,35.3z"/>
		<path fill="#0B0A09" d="M102.4,35.5c-0.2,0-0.3,0-0.3-0.3C102.2,35.4,102.3,35.4,102.4,35.5z"/>
		<path fill="#0B0A09" d="M66.1,35.5c0,0.2-0.1,0.3-0.3,0.3C65.9,35.6,66,35.5,66.1,35.5z"/>
		<path fill="#0B0A09" d="M102.6,35.8c-0.2,0-0.3,0-0.3-0.3C102.5,35.6,102.5,35.7,102.6,35.8z"/>
		<path fill="#0B0A09" d="M65.9,35.7c0,0.2-0.1,0.3-0.3,0.3C65.6,35.8,65.7,35.8,65.9,35.7z"/>
		<path fill="#0B0A09" d="M102.9,36c-0.2,0-0.3,0-0.3-0.3C102.7,35.8,102.8,35.9,102.9,36z"/>
		<path fill="#0B0A09" d="M65.6,36c0,0.2,0,0.3-0.3,0.3C65.5,36.2,65.6,36.1,65.6,36z"/>
		<path fill="#0B0A09" d="M103.6,37c-0.2,0-0.2-0.1-0.3-0.3C103.6,36.6,103.6,36.8,103.6,37z"/>
		<path fill="#0B0A09" d="M103.8,37.2c-0.2,0-0.3-0.1-0.3-0.3C103.8,36.9,103.8,37,103.8,37.2z"/>
		<path fill="#0B0A09" d="M64.2,37.9c0,0.2,0,0.3-0.3,0.3C64,38,64,37.9,64.2,37.9z"/>
		<path fill="#0B0A09" d="M77.6,66c0.2,0,0.3,0.1,0.2,0.2C77.7,66.2,77.6,66.2,77.6,66z"/>
		<path fill="#0B0A09" d="M73.1,70.3c-0.3,0.1-0.3,0-0.3-0.3C73,70.1,73.1,70.2,73.1,70.3z"/>
		<path fill="#0B0A09" d="M73.3,70.6c-0.3,0.1-0.3,0-0.3-0.3C73.2,70.3,73.3,70.4,73.3,70.6z"/>
		<path fill="#0B0A09" d="M73.6,70.8c-0.3,0.1-0.4,0-0.3-0.3C73.5,70.6,73.6,70.6,73.6,70.8z"/>
		<path fill="#0B0A09" d="M73.8,71.1c-0.3,0.1-0.4,0-0.3-0.3C73.7,70.8,73.8,70.9,73.8,71.1z"/>
		<path fill="#0B0A09" d="M65.4,38.2c0-0.2,0.1-0.2,0.3-0.3C65.7,38.2,65.6,38.2,65.4,38.2z"/>
		<path fill="#0B0A09" d="M65.2,38.4c0-0.2,0.1-0.3,0.3-0.3C65.4,38.4,65.3,38.4,65.2,38.4z"/>
		<path fill="#0B0A09" d="M103.1,38.2c0.2,0,0.2,0.1,0.3,0.3C103.1,38.5,103,38.4,103.1,38.2z"/>
		<path fill="#0B0A09" d="M64.9,38.7c0-0.2,0.1-0.3,0.3-0.3C65.2,38.6,65.1,38.6,64.9,38.7z"/>
		<path fill="#0B0A09" d="M103.3,38.4c0.2,0,0.3,0.1,0.3,0.3C103.4,38.7,103.3,38.6,103.3,38.4z"/>
		<path fill="#0B0A09" d="M103.5,38.6c0.2,0,0.3,0.1,0.3,0.3C103.7,38.9,103.5,38.8,103.5,38.6z"/>
		<path fill="#0B0A09" d="M103.8,38.9c0.2,0,0.3,0.1,0.3,0.3C103.9,39.1,103.8,39,103.8,38.9z"/>
		<path fill="#0B0A09" d="M76.8,58c0.1-0.1,0.2-0.2,0.2-0.2c0.1,0,0.1,0.1,0.1,0.1c0.1,0.2,0,0.3-0.2,0.3
			C76.8,58.1,76.8,58.1,76.8,58z"/>
		<path fill="#0B0A09" d="M76.6,58.2c0.1-0.1,0.1-0.1,0.2-0.2c0,0,0.1,0.1,0.1,0.1c0.1,0.2,0,0.3-0.2,0.2
			C76.7,58.3,76.6,58.2,76.6,58.2z"/>
		<path fill="#0B0A09" d="M115.8,61.2c0,0-0.1-0.1-0.1-0.1C115.8,61,115.8,61.1,115.8,61.2C115.8,61.2,115.8,61.2,115.8,61.2z"/>
		<path fill="#0B0A09" d="M77.1,65.5c0.2,0,0.3,0.1,0.2,0.2C77.2,65.8,77.2,65.7,77.1,65.5z"/>
		<path fill="#0B0A09" d="M77.4,65.8c0.2,0,0.3,0.1,0.2,0.2C77.5,66,77.4,65.9,77.4,65.8z"/>
		<path fill="#0B0A09" d="M81.3,31.8c-0.3,0.7-0.6,1.3-1,2.2c-0.6-1.7-0.3-3.1-0.1-4.6c0.1-0.7,0.5-1.3,0.4-2c0,0,0-0.1,0-0.1
			c0,0,0.1,0,0.1,0s-0.1,0-0.1,0c0,0,0-0.1,0-0.1c0-0.7,0.7-0.7,1-1.2c-0.7,2.2-1.5,4.3-1.2,6.8C80.7,32.4,81,32,81.3,31.8
			C81.2,31.7,81.3,31.8,81.3,31.8z"/>
		<path fill="#0B0A09" d="M78.9,28.7c-0.3,0.4-0.7,0.8-1.1,1.3c0-2,1.1-5,2.2-6.3c-0.6,1.5-1.1,2.8-1.6,4.2
			c-0.1,0.3-0.6,0.8,0.3,0.7C78.9,28.5,79,28.5,78.9,28.7z"/>
		<path fill="#0B0A09" d="M78.8,28.5c0.5-0.5,0.8-1.4,1.7-1.4c0,0,0,0,0,0c0.1,0.1,0.1,0.1,0.1,0.2c0,0.1,0,0.1-0.1,0.1c0,0,0,0,0,0
			c-0.7,0.2-1,1-1.6,1.3C78.9,28.6,78.9,28.6,78.8,28.5z"/>
		<path fill="#0B0A09" d="M83.9,28.1c-0.1,0.3-0.2,0.6-0.5,0.7c-0.1,0-0.2,0-0.1-0.1c0.1-0.3,0.2-0.5,0.5-0.7
			C83.8,28,83.9,28.1,83.9,28.1z"/>
		<path fill="#0B0A09" d="M80.8,22.6c-0.1,0.3-0.2,0.6-0.5,0.7l-0.1-0.1c0-0.3,0.1-0.6,0.4-0.7C80.7,22.5,80.7,22.5,80.8,22.6z"/>
		<path fill="#0B0A09" d="M81,22.1c0.1-0.2,0.2-0.4,0.4-0.5c0,0,0.1,0.1,0.1,0.1c-0.1,0.2-0.2,0.4-0.4,0.5C81,22.1,81,22.1,81,22.1z
			"/>
		<path fill="#0B0A09" d="M82.2,30.5c-0.1,0.2-0.3,0.4-0.4,0.5c0,0-0.1-0.1-0.1-0.1c0.1-0.2,0.2-0.4,0.4-0.6
			C82.2,30.3,82.3,30.4,82.2,30.5z"/>
		<path fill="#0B0A09" d="M75.2,26.6c0.1-0.2,0.2-0.4,0.4-0.4c0.1,0.3-0.1,0.4-0.2,0.6C75.3,26.7,75.3,26.7,75.2,26.6z"/>
		<path fill="#0B0A09" d="M82.4,30c0.1-0.2,0.1-0.4,0.4-0.4c0.1,0.3-0.1,0.4-0.3,0.6C82.5,30.1,82.4,30.1,82.4,30z"/>
		<path fill="#0B0A09" d="M83.4,28.8c-0.1,0.2-0.1,0.4-0.4,0.4c-0.1-0.3,0.1-0.4,0.3-0.6C83.3,28.7,83.4,28.8,83.4,28.8z"/>
		<path fill="#0B0A09" d="M92.8,12.7c-0.3,0.1-0.4-0.2-0.5-0.4c0-0.1,0.1-0.1,0.2-0.2C92.6,12.3,92.8,12.4,92.8,12.7L92.8,12.7z"/>
		<path fill="#0B0A09" d="M84.1,27.6c0.1,0.2,0,0.4-0.2,0.5c0,0-0.1-0.1-0.1-0.1C83.9,27.8,83.9,27.7,84.1,27.6L84.1,27.6z"/>
		<path fill="#0B0A09" d="M91.8,11.5c0.1,0.1,0.2,0.3,0.3,0.4c0,0.1-0.1,0.1-0.2,0.2c-0.1-0.1-0.2-0.2-0.3-0.4
			C91.7,11.6,91.8,11.5,91.8,11.5z"/>
		<path fill="#0B0A09" d="M88.7,11.8c-0.2,0-0.4,0-0.5-0.2c0,0,0,0,0,0C88.4,11.6,88.5,11.7,88.7,11.8
			C88.7,11.8,88.7,11.8,88.7,11.8z"/>
		<path fill="#0B0A09" d="M80.7,22.5c0.1-0.1,0.2-0.3,0.3-0.4c0,0,0.1,0.1,0.1,0.1c-0.1,0.1-0.2,0.3-0.3,0.4
			C80.7,22.5,80.7,22.5,80.7,22.5z"/>
		<path fill="#0B0A09" d="M75.2,22.3c0.1-0.1,0.2-0.1,0.3-0.2c0,0,0.1,0,0.1,0.1C75.5,22.3,75.4,22.3,75.2,22.3L75.2,22.3z"/>
		<path fill="#0B0A09" d="M94,17.5c0.1,0.1,0.2,0.2,0.4,0.4c-0.1,0.1-0.1,0.1-0.2,0.2c-0.1-0.1-0.2-0.3-0.3-0.4
			C93.9,17.6,93.9,17.5,94,17.5z"/>
		<path fill="#0B0A09" d="M88.7,11.8c0.1,0,0.2,0.1,0.2,0.1C88.8,12,88.8,11.8,88.7,11.8C88.7,11.8,88.7,11.8,88.7,11.8z"/>
		<path fill="#0B0A09" d="M81.8,31c-0.1,0.1-0.2,0.3-0.3,0.4c0,0-0.1-0.1-0.1-0.1c0.1-0.1,0.2-0.3,0.3-0.4C81.8,31,81.8,31,81.8,31z
			"/>
		<path fill="#0B0A09" d="M82.1,30.4c0.1-0.1,0.2-0.3,0.3-0.4c0.1,0,0.1,0.1,0.2,0.1c-0.1,0.1-0.2,0.3-0.3,0.4
			C82.2,30.5,82.1,30.4,82.1,30.4z"/>
		<path fill="#0B0A09" d="M92.2,11.9c0.1,0.1,0.2,0.2,0.2,0.3c-0.1,0.1-0.1,0.1-0.2,0.2c-0.1-0.1-0.2-0.2-0.2-0.2
			C92.1,12,92.1,11.9,92.2,11.9z"/>
		<path fill="#0B0A09" d="M92.8,12.7c0,0,0.1,0,0.1,0c0,0,0,0,0,0.1C92.8,12.8,92.8,12.8,92.8,12.7C92.8,12.7,92.8,12.7,92.8,12.7z"
			/>
		<path fill="#0B0A09" d="M93.5,17C93.5,17,93.4,17,93.5,17C93.4,17,93.5,17,93.5,17L93.5,17z"/>
		<path fill="#0B0A09" d="M81.2,31.7c0.1-0.1,0.1-0.2,0.2-0.3c0,0,0.1,0.1,0.1,0.1C81.5,31.6,81.4,31.7,81.2,31.7
			C81.3,31.8,81.2,31.7,81.2,31.7z"/>
		<path fill="#0B0A09" d="M82.5,20.7c0-0.1,0-0.1,0.1-0.2C82.7,20.6,82.5,20.6,82.5,20.7L82.5,20.7z"/>
		<path fill="#0B0A09" d="M82.2,20.8c0.1-0.1,0.1-0.2,0.3-0.2c0,0,0,0,0,0C82.4,20.7,82.3,20.8,82.2,20.8
			C82.2,20.9,82.2,20.8,82.2,20.8z"/>
		<path fill="#0B0A09" d="M81.9,21c0.1-0.1,0.2-0.1,0.3-0.2c0,0,0.1,0.1,0.1,0.1c-0.1,0.1-0.2,0.2-0.2,0.2
			C81.9,21.1,81.9,21,81.9,21z"/>
		<path fill="#0B0A09" d="M81.6,21.3c0.1-0.1,0.2-0.2,0.2-0.2c0,0,0.1,0.1,0.1,0.1c-0.1,0.1-0.2,0.2-0.2,0.2
			C81.7,21.3,81.7,21.3,81.6,21.3z"/>
		<path fill="#0B0A09" d="M81.7,21.4c-0.1,0.1-0.2,0.2-0.2,0.2c0,0-0.1-0.1-0.1-0.1c0.1-0.1,0.2-0.2,0.2-0.3
			C81.7,21.3,81.7,21.3,81.7,21.4z"/>
		<path fill="#0B0A09" d="M74.9,22.4c0.1,0,0.2-0.1,0.3-0.1c0,0,0.1,0.1,0.1,0.1c-0.1,0.1-0.2,0.2-0.2,0.2
			C75,22.6,75,22.5,74.9,22.4z"/>
		<path fill="#0B0A09" d="M80.3,23.3c0,0.1,0,0.3-0.2,0.2C80,23.4,80.1,23.3,80.3,23.3C80.2,23.2,80.3,23.3,80.3,23.3z"/>
		<path fill="#0B0A09" d="M75.9,25.7C75.9,25.8,75.9,25.8,75.9,25.7c0,0.1,0,0.1,0,0.1C75.8,25.9,75.8,25.8,75.9,25.7
			C75.8,25.8,75.8,25.8,75.9,25.7z"/>
		<path fill="#0B0A09" d="M84.1,27.6c0-0.1,0.1-0.1,0.1-0.2C84.3,27.6,84.3,27.6,84.1,27.6C84.1,27.6,84.1,27.6,84.1,27.6z"/>
		<path fill="#0B0A09" d="M93.7,17.3c0.1,0.1,0.2,0.1,0.3,0.2c0,0-0.1,0.1-0.1,0.1C93.8,17.5,93.7,17.4,93.7,17.3L93.7,17.3z"/>
		<path fill="#0B0A09" d="M93.7,17.3c-0.2,0-0.3-0.1-0.2-0.2c0,0,0,0,0,0C93.6,17.1,93.6,17.2,93.7,17.3
			C93.7,17.3,93.7,17.3,93.7,17.3z"/>
		<path fill="#0B0A09" d="M116.1,11.5c0.8,0.7,0.5,1.8,0.6,2.7c0.2,1.6,0.2,3.2,0.3,4.7c0.3,1.9,0,3.8-0.1,5.6
			c0,0.4,0.2,0.9-0.4,1.1C117,20.9,116.5,16.2,116.1,11.5z"/>
		<path fill="#584D46" d="M110.4,19c0.4-0.2,0.8-0.4,1.2-0.6c-1.1,2.5-1.7,5-2.9,7.4c0.6-2,1.1-4.1,2.1-6c0.1-0.3,0.7-0.7-0.2-0.7
			C110.4,19.2,110.4,19.2,110.4,19z"/>
		<path fill="#0B0A09" d="M116.5,26.4c-0.2,2.4-0.9,4.5-2.7,6.2C115.1,30.7,115.8,28.5,116.5,26.4z"/>
		<path fill="#0B0A09" d="M108.3,17.4c0.9-1.2,1-2.7,1.6-4c0.3-0.7,0.5-1.4,0.7-2.1c-0.5,1.7-1.1,3.4-1.6,5.1
			C108.8,16.8,108.8,17.3,108.3,17.4C108.4,17.5,108.3,17.3,108.3,17.4C108.4,17.5,108.3,17.5,108.3,17.4z"/>
		<path fill="#0B0A09" d="M116.2,10.4c-0.1,0.2-0.1,0.5-0.2,0.7c-0.5-1.5-1-2.9-1.5-4.4c0.7,0.7,0.8,1.6,1.1,2.5
			C115.9,9.6,116,10,116.2,10.4z"/>
		<path fill="#0B0A09" d="M104.6,13.5c0.7-1.2,0.8-2.7,1.9-3.6c-0.4,1.1-0.9,2.1-1.3,3.2c-0.2,0.5-0.4,1.1-0.6,1.6
			C104.6,14.3,104.6,13.9,104.6,13.5z"/>
		<path fill="#0B0A09" d="M113.6,33.1c-0.4,0.9-1,1.6-1.9,1.9C112.2,34.2,112.8,33.6,113.6,33.1z"/>
		<path fill="#584D46" d="M109.3,27.1c-0.6,0.1-1.1,0.2-1.8,0.3c0.4-0.5,0.7-0.9,1-1.4C108.5,26.8,108.5,27.3,109.3,27.1L109.3,27.1
			z"/>
		<path fill="#0B0A09" d="M107.4,8.4c0-0.6,0.6-0.8,0.8-1.3c0.2,0,0.4-0.4,0.7-0.2C108.4,7.5,108.1,8.1,107.4,8.4z"/>
		<path fill="#584D46" d="M109.3,27.1c0.4-0.3,0.8-0.4,1.1,0.2C110,28.1,109.8,26.3,109.3,27.1C109.3,27.1,109.3,27.1,109.3,27.1z"
			/>
		<path fill="#584D46" d="M111.5,5c0.5-0.3,1-0.4,1.4,0c0,0,0,0.1,0,0.1c-0.5,0-1,0-1.5,0.1C111.4,5.2,111.4,5.1,111.5,5
			C111.4,5,111.5,5,111.5,5z"/>
		<path fill="#0B0A09" d="M106.5,9.9c0.1-0.6,0.4-1.2,1-1.5C107.4,9.1,107,9.5,106.5,9.9z"/>
		<path fill="#0B0A09" d="M111.5,5c0,0.1,0,0.1,0,0.2c-0.6,0.2-1,0.8-1.7,0.8C110.2,5.4,110.8,5.2,111.5,5z"/>
		<path fill="#0B0A09" d="M113.4,5.3c0.5,0.4,1.1,0.7,1.2,1.5c-0.4-0.1-0.5-0.5-0.7-0.8c-0.1,0-0.2-0.1-0.2-0.2
			C113.6,5.6,113.3,5.6,113.4,5.3z"/>
		<path fill="#584D46" d="M109,28.2c0.2-0.2,0.5-0.4,0.9-0.9c-0.1,0.7-0.5,0.8-0.8,1C109,28.3,109,28.3,109,28.2z"/>
		<path fill="#584D46" d="M109.1,19.9c0.2-0.3,0.6-0.4,0.9-0.6c0.1,0,0.1,0.1,0.2,0.2c-0.3,0.2-0.6,0.4-0.9,0.6
			C109.1,20.1,109.1,20,109.1,19.9z"/>
		<path fill="#0B0A09" d="M108.3,17.4c0,0.2,0,0.4-0.1,0.6c0,0,0,0,0,0C108.2,17.8,108.3,17.6,108.3,17.4
			C108.3,17.4,108.3,17.4,108.3,17.4z"/>
		<path fill="#0B0A09" d="M111,35.5c-0.1,0.4-0.4,0.5-0.7,0.5C110.3,35.6,110.6,35.5,111,35.5z"/>
		<path fill="#0B0A09" d="M111.7,35c-0.1,0.4-0.4,0.5-0.7,0.5C111.1,35.1,111.3,35,111.7,35z"/>
		<path fill="#584D46" d="M107.2,30.5c-0.1,0.2-0.3,0.4-0.4,0.6c-0.1,0-0.1-0.1-0.2-0.2c0.1-0.2,0.3-0.4,0.4-0.5
			C107.2,30.4,107.2,30.4,107.2,30.5z"/>
		<path fill="#584D46" d="M108.4,29.1c-0.1,0.2-0.3,0.4-0.4,0.6c-0.1,0-0.2-0.1-0.2-0.2c0.1-0.2,0.3-0.4,0.4-0.5
			C108.4,28.9,108.4,29,108.4,29.1z"/>
		<path fill="#0B0A09" d="M109.3,6.5c-0.1-0.4,0.2-0.5,0.5-0.5C109.9,6.4,109.6,6.4,109.3,6.5z"/>
		<path fill="#0B0A09" d="M111.1,10.3c-0.1,0-0.2,0-0.2,0.2c0,0,0,0,0.1,0C111,10.5,111,10.4,111.1,10.3
			C111,10.3,111.1,10.3,111.1,10.3z"/>
		<path fill="#0B0A09" d="M110.3,36c-0.1,0.3-0.3,0.3-0.5,0.3C109.8,35.9,110,35.8,110.3,36z"/>
		<path fill="#0B0A09" d="M113.9,32.6c0,0.2,0,0.4-0.3,0.5C113.5,32.8,113.7,32.7,113.9,32.6z"/>
		<path fill="#0B0A09" d="M113,5.2c0-0.1,0-0.1,0-0.1c0.2,0,0.4-0.1,0.5,0.2C113.3,5.3,113.1,5.2,113,5.2z"/>
		<path fill="#584D46" d="M110.6,19.2c-0.1,0.2-0.3,0.2-0.5,0.3c-0.1-0.1-0.1-0.1-0.2-0.2c0.2-0.1,0.3-0.2,0.5-0.3
			C110.5,19.1,110.5,19.2,110.6,19.2z"/>
		<path fill="#584D46" d="M107.8,29.9c-0.1,0.1-0.2,0.3-0.3,0.4c-0.1,0-0.2-0.1-0.2-0.2c0.1-0.1,0.3-0.3,0.4-0.4
			C107.7,29.7,107.8,29.8,107.8,29.9z"/>
		<path fill="#0B0A09" d="M109.1,6.7c-0.1-0.3,0-0.3,0.3-0.3C109.3,6.7,109.3,6.7,109.1,6.7z"/>
		<polygon fill="#0B0A09" points="111,10.3 111,10.3 111.1,10.3 		"/>
		<path fill="#EFA63E" d="M113.7,5.7c0.2,0,0.3,0,0.2,0.2C113.8,5.9,113.7,5.8,113.7,5.7z"/>
		<path fill="#584D46" d="M106.2,31.4c0.1-0.1,0.2-0.2,0.2-0.2c0.1,0,0.2,0.1,0.2,0.2c-0.1,0.1-0.2,0.2-0.3,0.3
			C106.2,31.6,106.2,31.5,106.2,31.4z"/>
		<path fill="#584D46" d="M106.3,31.6c-0.1,0.1-0.2,0.2-0.2,0.2c-0.1,0-0.2-0.1-0.2-0.2c0.1-0.1,0.2-0.2,0.2-0.2
			C106.2,31.5,106.3,31.5,106.3,31.6z"/>
		<path fill="#584D46" d="M106.1,31.9c-0.1,0.1-0.2,0.2-0.3,0c0,0,0.1-0.2,0.2-0.2C106,31.7,106,31.8,106.1,31.9z"/>
		<path fill="#0B0A09" d="M108.4,20.6C108.4,20.6,108.5,20.5,108.4,20.6C108.5,20.6,108.4,20.6,108.4,20.6
			C108.4,20.7,108.4,20.6,108.4,20.6z"/>
		<path fill="#0B0A09" d="M108.1,20.9c0.2,0.1,0.3,0,0.3-0.2c0,0,0,0,0,0C108.2,20.6,108.1,20.7,108.1,20.9L108.1,20.9z"/>
		<polygon fill="#0B0A09" points="108.1,20.8 108.1,20.9 108.1,20.9 		"/>
		<path fill="#584D46" d="M108.7,28.4c0.1-0.1,0.2-0.2,0.2-0.2c0.1,0.1,0.1,0.1,0.2,0.2c-0.1,0.1-0.2,0.2-0.2,0.2
			C108.8,28.6,108.7,28.5,108.7,28.4z"/>
		<path fill="#584D46" d="M108.5,28.7c0.1-0.1,0.2-0.2,0.2-0.2c0.1,0.1,0.1,0.1,0.2,0.2c-0.1,0.1-0.2,0.2-0.2,0.2
			C108.6,28.8,108.5,28.8,108.5,28.7z"/>
		<path fill="#584D46" d="M108.7,28.8c-0.1,0.1-0.2,0.2-0.2,0.2c-0.1-0.1-0.1-0.1-0.2-0.2c0.1-0.1,0.2-0.2,0.2-0.2
			C108.5,28.7,108.6,28.8,108.7,28.8z"/>
		<path fill="#584D46" d="M107.6,29.7c0.1-0.1,0.1-0.2,0.2-0.3c0.1,0.1,0.1,0.1,0.2,0.2c-0.1,0.1-0.1,0.2-0.2,0.2
			C107.7,29.8,107.7,29.8,107.6,29.7z"/>
		<path fill="#584D46" d="M107.1,30.4c0.1-0.1,0.1-0.2,0.2-0.2c0.1,0.1,0.1,0.1,0.2,0.2c-0.1,0.1-0.2,0.2-0.2,0.3
			C107.2,30.5,107.1,30.4,107.1,30.4z"/>
		<path fill="#584D46" d="M106.8,31.1c-0.1,0.1-0.1,0.2-0.2,0.2c-0.1-0.1-0.1-0.1-0.2-0.2c0.1-0.1,0.2-0.2,0.2-0.2
			C106.7,31,106.8,31,106.8,31.1z"/>
		<path fill="#584D46" d="M109.2,20.1c-0.1,0.1-0.3,0.2-0.4,0c0,0,0.1-0.1,0.2-0.2C109.1,19.9,109.2,20,109.2,20.1z"/>
		<path fill="#0B0A09" d="M108.9,7c-0.1-0.3,0-0.3,0.3-0.3C109.1,6.9,109,7,108.9,7z"/>
		<path fill="#0B0A09" d="M51.3,19c0.4-1.1,0.1-2.2,0.3-3.3c0.3-1.8,0.4-3.5,0.6-5.3c0.6-0.9,0.6-2,1.2-3c0.2-0.4,0.3-0.9,0.8-1.1
			c-2.7,6-2.4,12.4-2.4,18.7c0,2,1,3.8,1.7,5.7c-0.7-0.3-0.7-1-0.9-1.6c-1.1-2.9-1.3-5.9-1.2-8.9C51.3,19.8,51.3,19.4,51.3,19z"/>
		<path fill="#0B0A09" d="M60.1,17.8c-0.7-1.9-1.4-3.9-2-5.8c0,0,0.1,0,0.1,0C58.8,13.9,59.4,15.9,60.1,17.8L60.1,17.8L60.1,17.8z"
			/>
		<path fill="#584D46" d="M58,20.8c0.9,1.7,1.2,3.5,2,5.2c0,0.1,0,0.1-0.1,0.1c-1.1-1.6-1.3-3.5-2.1-5.2
			C57.8,20.9,57.9,20.8,58,20.8z"/>
		<path fill="#0B0A09" d="M54.8,5.5c0.2-0.7,0.8-0.8,1.4-0.7c1.3,0.2,2.4,0.7,3.2,1.9c-0.6-0.4-1.2-0.8-1.8-1.1
			C56.7,5.1,55.8,5,54.8,5.5z"/>
		<path fill="#584D46" d="M58.4,27.6c-0.4-0.1-0.5-0.4-0.6-0.7c0.6-0.1,1.3-0.1,1.9,0c0.3,0,0.5,0,0.3-0.4c0-0.1,0.1-0.1,0.2-0.1
			c0.2,0.3,0.5,0.6,0.9,1.1c-0.9-0.2-1.6-0.3-2.2-0.4c-0.3,0-0.5,0-0.3,0.4C58.6,27.6,58.6,27.6,58.4,27.6z"/>
		<path fill="#584D46" d="M60.3,29.4c-0.3-0.6-0.9-1.1-1.5-1.4c0-0.1,0-0.2,0.2-0.2c0.5,0.5,1,0.9,1.5,1.4
			C60.4,29.3,60.4,29.4,60.3,29.4z"/>
		<path fill="#584D46" d="M57.6,18.9c0.6,0.2,1.2,0.4,1.7,1c-0.6,0.2-1-0.6-1.5-0.4c0,0-0.1,0-0.1-0.1c-0.1-0.1-0.2-0.2-0.2-0.4
			C57.4,18.9,57.5,18.8,57.6,18.9z"/>
		<path fill="#584D46" d="M57.7,19.4c-0.4,0.6,0.4,0.9,0.3,1.4c-0.1,0.1-0.2,0.1-0.2,0.2c-0.2-0.5-0.4-1-0.6-1.4
			c0-0.1,0-0.2,0.1-0.2C57.5,19.3,57.6,19.3,57.7,19.4L57.7,19.4z"/>
		<path fill="#0B0A09" d="M54.2,32.1c-0.6-0.3-0.8-0.8-0.8-1.4C53.8,31.1,54.1,31.6,54.2,32.1z"/>
		<path fill="#0B0A09" d="M61.5,9.1c0.5,0.3,0.7,0.7,0.7,1.2C61.8,10.1,61.5,9.7,61.5,9.1z"/>
		<path fill="#584D46" d="M57.1,19.5c-0.2-0.3-0.4-0.6-0.3-1c0.3-0.1,0.5,0.1,0.8,0.3c0,0-0.1,0.1-0.1,0.1c-0.1,0.1-0.1,0.3-0.2,0.4
			C57.2,19.5,57.2,19.5,57.1,19.5z"/>
		<path fill="#0B0A09" d="M60.8,8.2c0.5,0.2,0.7,0.5,0.7,1C61,9,60.8,8.7,60.8,8.2z"/>
		<path fill="#0B0A09" d="M60.1,7.4c0.4,0.1,0.7,0.3,0.7,0.8C60.3,8.2,60.3,7.8,60.1,7.4z"/>
		<path fill="#584D46" d="M58.8,17.9c-0.3-0.2-0.5-0.4-0.6-0.8c0.4,0.1,0.5,0.4,0.7,0.7l0,0.1L58.8,17.9z"/>
		<path fill="#0B0A09" d="M55.3,33.6c-0.5,0-0.7-0.3-0.7-0.7C55.1,32.9,55.2,33.3,55.3,33.6z"/>
		<path fill="#0B0A09" d="M57.8,11.3C57.8,11,57.8,11.2,57.8,11.3C57.8,11.2,57.7,11,57.8,11.3z"/>
		<path fill="#0B0A09" d="M54.7,32.9c-0.4-0.1-0.5-0.4-0.5-0.7C54.5,32.2,54.7,32.5,54.7,32.9z"/>
		<path fill="#584D46" d="M61.5,30.9c-0.1-0.2-0.3-0.4-0.4-0.6c0-0.1,0.1-0.2,0.2-0.2c0.1,0.2,0.3,0.3,0.4,0.5
			C61.6,30.8,61.6,30.8,61.5,30.9z"/>
		<path fill="#584D46" d="M60.2,18.9c0.2,0,0.3,0.2,0.2,0.3c-0.1,0.1-0.2,0-0.3-0.2l0-0.1L60.2,18.9z"/>
		<path fill="#0B0A09" d="M56.8,35c-0.3,0-0.5-0.1-0.5-0.5C56.5,34.6,56.8,34.7,56.8,35z"/>
		<path fill="#0B0A09" d="M54.1,6.3c0-0.3,0.1-0.6,0.5-0.5C54.5,6,54.5,6.3,54.1,6.3z"/>
		<path fill="#0B0A09" d="M57.8,35.7c-0.3,0-0.6-0.1-0.5-0.5C57.5,35.4,57.8,35.4,57.8,35.7z"/>
		<path fill="#584D46" d="M59.7,20.1c0.1,0,0.3,0.1,0.2,0.3c-0.1,0.1-0.3,0-0.3-0.1C59.6,20.2,59.6,20.1,59.7,20.1z"/>
		<path fill="#0B0A09" d="M60.1,7c0,0.1,0,0.3,0,0.4c-0.3-0.1-0.5-0.2-0.5-0.5C59.8,6.8,59.9,7,60.1,7z"/>
		<path fill="#0B0A09" d="M57.3,35.3c-0.2,0-0.4,0-0.5-0.3C57,34.9,57.2,35.1,57.3,35.3z"/>
		<path fill="#584D46" d="M58.6,27.5c0.1,0.1,0.3,0.2,0.4,0.3c-0.1,0.1-0.1,0.1-0.2,0.2c-0.1-0.1-0.2-0.2-0.4-0.4
			C58.5,27.6,58.5,27.5,58.6,27.5z"/>
		<path fill="#0B0A09" d="M62.2,10.3c0.3,0.1,0.3,0.3,0.3,0.5C62.2,10.8,62.1,10.6,62.2,10.3z"/>
		<path fill="#0B0A09" d="M58.2,35.8c-0.2,0.3-0.3,0.2-0.5-0.1C57.9,35.5,58,35.7,58.2,35.8z"/>
		<path fill="#0B0A09" d="M62.5,10.8c0.3,0.1,0.3,0.3,0.3,0.5C62.4,11.3,62.4,11.1,62.5,10.8z"/>
		<path fill="#0B0A09" d="M59.4,6.7c0.2,0,0.3,0,0.3,0.3C59.5,7,59.4,6.9,59.4,6.7z"/>
		<path fill="#0B0A09" d="M54.6,5.8c-0.1-0.2,0-0.3,0.3-0.3C54.9,5.7,54.8,5.8,54.6,5.8z"/>
		<path fill="#584D46" d="M62.3,31.7c-0.1-0.1-0.3-0.1-0.1-0.3c0,0,0.2,0,0.3,0.1C62.3,31.6,62.3,31.6,62.3,31.7z"/>
		<path fill="#0B0A09" d="M55.6,33.8c-0.2,0-0.3-0.1-0.3-0.3C55.5,33.6,55.6,33.7,55.6,33.8z"/>
		<path fill="#0B0A09" d="M55.8,34.1c-0.2,0-0.3-0.1-0.3-0.3C55.7,33.8,55.8,33.9,55.8,34.1z"/>
		<path fill="#0B0A09" d="M56.1,34.3c-0.2,0-0.3-0.1-0.3-0.3C56,34.1,56.1,34.1,56.1,34.3z"/>
		<path fill="#0B0A09" d="M56.3,34.5c-0.2,0-0.3-0.1-0.3-0.3C56.2,34.3,56.3,34.4,56.3,34.5z"/>
		<path fill="#584D46" d="M60,26.1c0.1,0.1,0.1,0.2,0.2,0.3c-0.1,0.1-0.1,0.1-0.2,0.1c0-0.1-0.1-0.2-0.1-0.3
			C59.9,26.1,59.9,26.1,60,26.1z"/>
		<path fill="#584D46" d="M60.4,29.2c0.1,0.1,0.3,0.2,0.1,0.3c0,0-0.2-0.1-0.3-0.2C60.3,29.3,60.4,29.3,60.4,29.2z"/>
		<path fill="#584D46" d="M61,30.3c-0.1-0.1-0.3-0.2-0.1-0.3c0,0,0.2,0.1,0.2,0.2C61.1,30.2,61.1,30.2,61,30.3z"/>
		<path fill="#584D46" d="M61.6,30.7c0.1,0.1,0.3,0.2,0.1,0.3c0,0-0.2-0.1-0.3-0.1C61.5,30.8,61.6,30.7,61.6,30.7z"/>
		<path fill="#584D46" d="M59.5,18.2c0.1,0.1,0.2,0.2,0.2,0.2c0,0,0,0.1,0,0.1l-0.1,0c-0.1-0.1-0.2-0.1-0.3-0.2
			C59.3,18.3,59.4,18.2,59.5,18.2z"/>
		<path fill="#584D46" d="M59.2,18c0.1,0.1,0.2,0.2,0.2,0.2c-0.1,0.1-0.1,0.1-0.2,0.2c-0.1-0.1-0.1-0.2-0.2-0.3l0-0.1L59.2,18z"/>
		<polygon fill="#0B0A09" points="60,17.8 60.1,17.8 60.1,17.8 		"/>
		<path fill="#584D46" d="M59,17.7c0.1,0.1,0.2,0.2,0.2,0.2c0,0-0.1,0.1-0.1,0.1c-0.1-0.1-0.2-0.2-0.2-0.2
			C58.9,17.8,58.9,17.8,59,17.7z"/>
		<path fill="#584D46" d="M59.5,20.3c-0.1-0.1-0.2-0.2-0.2-0.2c0.2-0.2,0.2,0,0.3,0.1C59.6,20.2,59.6,20.2,59.5,20.3z"/>
		<path fill="#584D46" d="M60,19c-0.1-0.1-0.2-0.2-0.2-0.2l0-0.1l0.1,0c0.1,0.1,0.2,0.2,0.2,0.2C60.1,19,60.1,19,60,19z"/>
		<path fill="#584D46" d="M59.8,18.8c-0.1-0.1-0.2-0.2-0.2-0.2c0,0,0.1-0.1,0.1-0.1c0.1,0.1,0.2,0.2,0.2,0.2
			C59.9,18.7,59.8,18.8,59.8,18.8z"/>
		<path fill="#6C4639" d="M65.2,64c-0.4,0-0.7-0.2-0.8-0.7c0-0.5,0.2-0.8,0.7-0.9c0.4,0,0.7,0.2,0.7,0.6
			C65.9,63.5,65.7,63.9,65.2,64z"/>
		<path fill="#6C4639" d="M103.3,62.4c0.5,0,0.8,0.2,0.8,0.7c0,0.5-0.2,0.9-0.7,0.9c-0.5,0-0.7-0.3-0.7-0.8
			C102.6,62.7,102.8,62.4,103.3,62.4z"/>
		<path fill="#6C4639" d="M68.5,65.1c0,0.4-0.2,0.7-0.6,0.7c-0.4,0-0.6-0.3-0.7-0.7c0-0.4,0.2-0.6,0.6-0.6
			C68.3,64.4,68.4,64.7,68.5,65.1z"/>
		<path fill="#6C4639" d="M100.6,65.8c-0.4,0-0.6-0.2-0.6-0.6c0-0.4,0.1-0.7,0.6-0.7c0.4,0,0.6,0.2,0.6,0.6
			C101.2,65.4,101,65.6,100.6,65.8z"/>
		<path fill="#6C4639" d="M105.4,66.1c0,0.4-0.2,0.6-0.6,0.6c-0.4,0-0.6-0.1-0.6-0.5c0-0.4,0.2-0.6,0.6-0.7
			C105.1,65.5,105.3,65.7,105.4,66.1z"/>
		<path fill="#6C4639" d="M64.3,66.1c0,0.4-0.1,0.6-0.4,0.6c-0.4,0-0.7-0.2-0.7-0.6c0-0.4,0.2-0.6,0.6-0.6
			C64,65.5,64.2,65.8,64.3,66.1z"/>
		<path fill="#584D46" d="M76.7,73.7c0.2,0,0.4,0,0.5,0.3c-0.7,0.8-1.4,1.1-2.1,0c0.1-0.1,0.2-0.1,0.3-0.2
			C75.8,73.8,76.2,73.6,76.7,73.7z"/>
		<path fill="#0B0A09" d="M75.2,73.9L75.2,73.9c-0.1,0-0.2,0-0.2,0C75,73.8,75,73.8,75,73.7c0,0,0.1-0.1,0.1-0.1
			C75.3,73.7,75.4,73.8,75.2,73.9z"/>
		<path fill="#0B0A09" d="M93.3,73.9c0,0.2-0.1,0.2-0.2,0.3c0,0-0.1-0.1-0.1-0.1c0-0.1,0.1-0.2,0.2-0.2
			C93.2,73.9,93.2,73.9,93.3,73.9z"/>
		<path fill="#584D46" d="M62,106.1c-0.1,0-0.3,0-0.4,0c0.1-0.4,0.2-0.8,0.6-1.1C62.4,105.4,62.1,105.7,62,106.1z"/>
		<path fill="#0B0A09" d="M107.8,99.7c-0.1-0.2-0.1-0.4-0.1-0.3c0-0.1,0.3-0.1,0.3,0.2C107.9,99.6,107.8,99.7,107.8,99.7z"/>
		<path fill="#584D46" d="M106.6,105.6c-0.1,0-0.2,0-0.4,0c0-0.2-0.1-0.3-0.1-0.6C106.5,105.2,106.6,105.4,106.6,105.6z"/>
		<path fill="#FAF4C4" d="M96.5,129c-0.1,0.1-0.1,0.3-0.2,0.4c-0.3-0.2-0.1-0.4-0.1-0.6C96.3,128.8,96.4,128.9,96.5,129z"/>
		<path fill="#B1ADA2" d="M109.4,101.8c0,0.1,0,0.2-0.1,0.2c-0.1,0-0.2-0.1-0.2-0.2c0-0.1,0.1-0.1,0.1-0.2
			C109.3,101.7,109.3,101.8,109.4,101.8z"/>
		<path fill="#FAF4C4" d="M72.3,129c0.1,0.1,0.1,0.3,0,0.4c-0.1-0.1-0.1-0.2-0.2-0.2C72.2,129.1,72.2,129,72.3,129z"/>
		<path fill="#B1ADA2" d="M59.2,101.7c0-0.1,0.1-0.2,0.1-0.2c0.1,0.1,0.1,0.2,0,0.3C59.3,101.8,59.2,101.8,59.2,101.7z"/>
		<path fill="#C53F26" d="M109.6,82.6c0.1,0,0.3,0,0.4,0c0,0.2,0,0.3-0.2,0.4C109.8,82.8,109.5,82.8,109.6,82.6z"/>
		<path fill="#B1ADA2" d="M107.7,82.7c-0.1-0.1-0.1-0.2,0-0.3c0,0,0.1,0.1,0.2,0.1C107.9,82.6,107.8,82.6,107.7,82.7z"/>
		<path fill="#584D46" d="M45,316.8c-1-1-1.2-2.4-0.6-3.5c0.2-0.4,0.6-0.7,1.1-0.6c0.5,0.1,0.7,0.5,0.7,1
			C46.2,314.9,45.8,315.9,45,316.8z"/>
		<path fill="#584D46" d="M33.4,314.7c-0.9-1-1.1-2.5-0.5-3.6c0.2-0.4,0.5-0.6,1-0.5c0.5,0.1,0.8,0.5,0.8,1
			C34.8,312.5,34.3,313.8,33.4,314.7z"/>
		<path fill="#584D46" d="M59.4,315.4c-0.6-0.9-0.9-1.8-0.6-2.8c0.2-0.4,0.4-0.8,1-0.7c0.5,0.1,0.6,0.5,0.6,0.9
			C60.5,313.8,60.1,314.6,59.4,315.4z"/>
		<path fill="#584D46" d="M123.6,316.8c-1-0.9-1.2-2.1-1.1-3.3c0-0.4,0.3-0.7,0.7-0.7c0.4-0.1,0.8,0.1,1,0.5
			C124.8,314.1,124.5,315.9,123.6,316.8z"/>
		<path fill="#584D46" d="M135.2,314.8c-1-0.9-1.3-2-1.3-3.1c0-0.5,0.2-1,0.8-1.1c0.6-0.1,1,0.4,1.1,0.9
			C136.1,312.6,136.1,313.7,135.2,314.8z"/>
		<path fill="#584D46" d="M109.1,315.5c-0.6-0.9-1.1-1.6-1-2.6c0.1-0.4,0.2-0.8,0.7-0.9c0.5-0.1,0.9,0.3,1,0.7
			C110,313.6,110,314.6,109.1,315.5z"/>
		<path fill="#0B0A09" d="M90.1,58.1c-4.2-0.8-8.3-0.9-12.5,0.2c0,0-0.1-0.1-0.1-0.1c0-0.1,0-0.3,0.1-0.4l0,0c1.2-0.7,2.5-1,3.9-1
			c2.4-0.1,4.8-0.2,7.1,0.2c0.6,0.1,1.2,0.2,1.5,0.8C90.1,57.9,90.1,58,90.1,58.1z"/>
		<path fill="#0B0A09" d="M90.9,58.3c-0.3,0-0.5,0-0.7-0.2c0,0,0,0,0,0c0.2-0.2,0.5-0.2,0.7,0l0,0C90.9,58.1,91,58.2,90.9,58.3
			C90.9,58.3,90.9,58.3,90.9,58.3L90.9,58.3z"/>
		<path fill="#0B0A09" d="M77.6,58.3c-0.1,0.2-0.3,0.2-0.5,0.2c0-0.1,0-0.1,0-0.2C77.3,58.2,77.5,58.1,77.6,58.3L77.6,58.3z"/>
		<path fill="#0B0A09" d="M77.2,58.6c-0.1,0.1-0.2,0.2-0.2,0.2c0,0,0,0,0,0C76.8,58.6,76.9,58.5,77.2,58.6L77.2,58.6z"/>
		<path fill="#FEFEFE" d="M104.1,48.8c-0.1,0.1-0.2,0.2-0.4,0.4c-1.6,1-3.1,2-4.9,2.6c-0.1,0-0.2-0.1-0.2-0.2
			c1.1-2.1,1.4-4.3,0.5-6.5c-0.4-1-0.9-1.9-1.8-2.5l0,0c-0.3-0.6-1-0.7-1.5-1c2.6-1.2,7.7,0.8,8.9,4.8
			C105.1,47.3,104.7,48,104.1,48.8z"/>
		<path fill="#EC6D1A" d="M94.1,44.4c-1.5,0-2.2,0.7-2.8,2.6c-0.1,0.1-0.3,0.1-0.4,0.1c0.4-1.5,0.8-3,2-4.1c1.4-1.5,2.2-1.6,4-0.6
			c0.2,0.1,0.3,0.2,0.5,0.1c0,0,0,0,0,0c1,1.5,2,2.9,1.9,4.8c-0.4,1.2-1.1,1.4-2.6,0.7c-0.2-0.6-0.4-1.2-0.6-1.8
			c0-0.3,0.2-0.4,0.4-0.6c-0.2,0-0.4,0.2-0.6,0c-0.1-0.1-0.2-0.3-0.3-0.4c0.1-0.4,0.4-0.6,0.6-0.8c0.3-0.3,0.4-0.7,0.1-1.1
			c-0.3-0.3-0.7-0.3-1.1,0C94.7,43.6,94.7,44.2,94.1,44.4z"/>
		<path fill="#EFA63E" d="M96.7,48c0.9-0.1,2,0.4,2.6-0.7c0.1,1-0.1,2-0.4,2.9c-0.6,1.7-1.7,2.6-3.5,2.6l0,0
			C96.3,51.3,96.8,49.7,96.7,48z"/>
		<path fill="#FEFEFE" d="M94.1,44.4c0.2-0.4,0.5-0.8,0.7-1.2c0.3-0.4,0.6-0.6,1.1-0.5c0.4,0.1,0.8,0.4,0.9,0.9
			c0.1,0.5-0.2,0.8-0.5,1.1c-0.3,0.2-0.5,0.4-0.8,0.5c-0.5,0.2-0.9,0.7-1.5,0.6C93.7,45.3,94,44.9,94.1,44.4z"/>
		<path fill="#FEFEFE" d="M95.8,45.6c0.5-0.1,0.8-0.6,1.4-0.4c-0.2,0.6-0.8,0.6-1.2,1c-0.5,0.1-0.8,0.5-1.4,0.4
			C94.9,46,95.6,46,95.8,45.6z"/>
		<path fill="#754613" d="M90.9,47.1c0.1,0,0.3,0,0.4-0.1c0.1,0.5-0.2,0.8-0.3,1.5C90.8,47.9,90.8,47.5,90.9,47.1z"/>
		<path fill="#FEFEFE" d="M98.9,51.7c-0.1,0.1-0.2,0.2-0.4,0c0,0,0.1-0.2,0.1-0.3C98.7,51.6,98.8,51.6,98.9,51.7z"/>
		<path fill="#EFA63E" d="M95.4,52.8c0,0-0.1,0.1-0.1,0.1c0,0,0-0.1,0-0.1C95.3,52.8,95.4,52.8,95.4,52.8
			C95.4,52.8,95.4,52.8,95.4,52.8z"/>
		<path fill="#FEFEFE" d="M65,49.4c-0.1-0.1-0.3-0.2-0.4-0.3c-1.1-1-1.2-2.2-0.6-3.6c1.4-3.1,5.3-5,8.6-4.1
			c-0.4,0.5-1.2,0.4-1.5,1.1c0,0,0,0.1,0,0.1c0,0.1-0.1,0.2-0.1,0.2c0,0-0.1,0.1-0.1,0.1c-0.1,0.1-0.1,0.1-0.2,0.2
			c0,0-0.1,0.1-0.1,0.1c-0.1,0.1-0.1,0.1-0.2,0.2c0,0-0.1,0.1-0.1,0.1c-0.1,0.2-0.2,0.3-0.3,0.5c0,0.1-0.1,0.2-0.2,0.3
			c-0.5,0.6-0.7,1.3-0.8,2.1c-0.1,1-0.1,1.9-0.2,2.9c0,0.9,0.5,1.5,0.8,2.3c0,0.1-0.1,0.2-0.2,0.2c-1.5-0.4-2.7-1.3-4-2
			C65.4,49.6,65.2,49.5,65,49.4z"/>
		<path fill="#EC6D1A" d="M72.9,45.2c-0.1,0.1-0.2,0.3-0.3,0.4c-0.3,0.1-0.5,0-0.8-0.1c0.2,0.3,0.5,0.4,0.6,0.7
			c-0.2,0.5-0.4,1.1-0.5,1.6c-1.2,0.9-2.1,0.8-2.8-0.4c-0.2-1.3,0.3-2.4,0.9-3.5l0,0c0.2-0.2,0.4-0.5,0.5-0.7l0,0
			c0.1-0.1,0.2-0.1,0.3-0.3l0,0c0.1-0.1,0.2-0.1,0.3-0.3l0,0c0.1-0.1,0.2-0.1,0.3-0.3c0,0,0,0,0,0c0.1,0,0.3,0,0.3,0
			c2-1.5,3.5-0.5,4.8,1.3c0.8,1.1,1.2,2.4,1.4,3.7c-0.1,0.2-0.2,0.2-0.4,0c-0.4-2.1-1.3-3-2.9-3.1c-0.4-0.1-0.5-0.4-0.7-0.7
			c-0.3-0.5-0.7-0.8-1.3-0.4c-0.5,0.4-0.3,0.9,0.1,1.3C72.6,44.8,72.9,44.9,72.9,45.2z"/>
		<path fill="#EFA63E" d="M69.1,47.2c0.7,1.1,1.7,0.8,2.7,0.5c-0.1,1.8,0,3.5,1.3,5c-2.4,0-3.4-1.1-4-4c-0.2-0.4-0.3-0.8-0.3-1.3
			C68.9,47.3,69,47.2,69.1,47.2z"/>
		<path fill="#FEFEFE" d="M72.9,45.2c-0.3-0.2-0.6-0.4-0.9-0.6c-0.6-0.5-0.7-1-0.1-1.6c0.5-0.5,1.1-0.6,1.6,0
			c0.3,0.4,0.5,0.9,0.8,1.3c0.1,0.5,0.5,0.9,0.1,1.4C73.8,45.9,73.4,45.4,72.9,45.2z"/>
		<path fill="#FEFEFE" d="M72.4,46.2c-0.5-0.3-0.9-0.6-1.5-0.9c0.8-0.3,1.2,0.3,1.7,0.4c0.4,0.3,0.8,0.6,1.3,1
			C73.2,46.7,72.8,46.3,72.4,46.2z"/>
		<path fill="#584D46" d="M69,47.3c0.1,0.5,0.1,1,0.2,1.4c-0.1,0.2-0.1,0.3-0.2,0.5c-0.4-1.1-0.4-2.1,0-3.2
			C69.2,46.5,69.2,46.9,69,47.3z"/>
		<path fill="#754613" d="M77.2,47.5c0.1,0,0.2,0,0.4,0c0,0.3,0,0.5,0.1,0.9C77.1,48.2,77.2,47.8,77.2,47.5z"/>
		<path fill="#FEFEFE" d="M69.8,51.5c0.1,0,0.2,0.1,0.1,0.2c0,0-0.2,0-0.3,0C69.7,51.7,69.7,51.6,69.8,51.5z"/>
		<path fill="#C53F26" d="M80.8,74c-0.7-0.5-0.3-1.5-1-2.1c1.5-0.3,2.8-0.7,4.1-0.5c0.4,0.5,0,1.1,0.4,1.6c0.4-0.5,0-1.1,0.4-1.6
			c1.2-0.2,2.4,0.3,3.8,0.4c-0.2,0.8-0.5,1.4-0.5,2.1c-0.4,0.1-0.9-0.5-1.2,0.2c0,0,0,0.1,0,0.1c0,0.1-0.1,0.1-0.1,0.2
			c0,0-0.1,0.1-0.1,0.1c-0.1,0.1-0.1,0.1-0.2,0.2c-0.1,0-0.2,0.1-0.3,0.1c-0.1,0-0.2,0-0.3-0.1c0,0-0.1,0-0.1-0.1
			c-0.1,0-0.2-0.1-0.2-0.1c-0.5-0.1-0.8,0.5-1.2,0.5c-0.1,0-0.2,0-0.3-0.1c-0.2-0.1-0.3-0.2-0.5-0.4c-0.1,0-0.2-0.1-0.3-0.1
			c-0.3,0-0.4,0.2-0.6,0.3C81.8,74.8,81.4,74.2,80.8,74z"/>
		<path fill="#FEFEFE" d="M80.8,74c0.5-0.1,0.9,0.1,1.2,0.5c0.2,0.4,0.4,0.2,0.5-0.1c0.3-0.1,0.5-0.5,0.9-0.2l0,0
			c0.2,0.1,0.4,0.3,0.5,0.5l0,0c0.3,0.2,0.5,0.1,0.7-0.1c0.3-0.2,0.5-0.6,0.9-0.5c0.2,0.1,0.2,0.2,0.3,0.4l0,0
			c0.2,0.2,0.4,0.2,0.6,0.1l0-0.1c0-0.1,0.1-0.2,0.2-0.3l0,0c0.1-0.1,0.2-0.2,0.3-0.3c0,0,0,0,0,0c0.5-0.2,0.9,0.2,1.3,0.4
			c0.4-0.8,0.1-1.7,0.8-2.3c1.2,0.3,1.3,0.6,0.8,1.6c-0.8,1.4-2.1,2.1-3.6,2.2c-1.4,0.1-2.9,0.2-4.3-0.1c-1.3-0.2-2.3-0.9-2.9-2.1
			c-0.6-1-0.4-1.3,0.7-1.6c0.5,0.5,0.5,1.1,0.6,1.8C80.2,74.1,80.3,74.5,80.8,74z"/>
		<path fill="#FEFEFE" d="M93.1,73.8c-0.1,0.1-0.1,0.2-0.2,0.2c-1.5,0.5-1.1-0.9-1.6-1.5c1-0.1,1.8-0.3,2.6-0.6
			C94,72.7,93.4,73.2,93.1,73.8z"/>
		<path fill="#FEFEFE" d="M75.2,73.9c0.1-0.2,0-0.3-0.1-0.3c-0.3-0.5-0.6-0.9-0.7-1.6c0.9,0.1,1.6,0.6,2.5,0.5
			c0.1,0.5-0.1,0.8-0.2,1.2C76.3,74.5,75.8,74.1,75.2,73.9z"/>
		<path fill="#6C4639" d="M90.8,58.1c-0.2,0-0.5,0-0.7,0c-1.1-1-2.5-0.8-3.7-0.9c-2.8-0.1-5.6-0.3-8.3,0.7c-0.1,0-0.3,0-0.5,0
			c0-0.4,0.4-0.4,0.5-0.7c2.1-1,4.3-1.5,6.6-1.4c2,0.1,3.8,0.7,5.6,1.4c0.1,0.2,0.3,0.3,0.5,0.2C90.9,57.6,90.9,57.8,90.8,58.1z"/>
		<path fill="#6C4639" d="M90.8,58.3c0-0.1,0-0.2,0-0.2c0.1-0.1,0.3-0.1,0.4,0.1C91.3,58.4,91,58.3,90.8,58.3z"/>
		<path fill="#6C4639" d="M77.2,58.6c-0.1,0.1-0.2,0.2-0.2,0.2c-0.3-0.1-0.2-0.3-0.2-0.5c0.1-0.1,0.2-0.2,0.2-0.2
			c0.1-0.1,0.2-0.2,0.2-0.2c0.2,0,0.3,0,0.5,0c0,0.2,0,0.3,0,0.5C77.5,58.4,77.3,58.5,77.2,58.6z"/>
		<path fill="#C53F26" d="M104.7,39c0,0.1,0.1,0.2,0.1,0.3c-0.1,0.1-0.2,0-0.3-0.1C104.5,39.1,104.6,39.1,104.7,39z"/>
		<path fill="#C53F26" d="M63.5,39.1c0.2-0.1,0.3-0.2,0.5-0.3c0.2,0.2,0,0.3,0,0.5c-0.1,0.1-0.3,0.1-0.4,0.2
			C63.5,39.4,63.5,39.3,63.5,39.1z"/>
		<path fill="#C53F26" d="M80.5,27.4c0-0.1,0-0.2,0-0.3c0.1,0.1,0.2,0.1,0.2,0.2C80.7,27.4,80.6,27.4,80.5,27.4z"/>
		<path fill="#FAF4C4" d="M57.3,19.4c0-0.2-0.1-0.4,0.2-0.4c0,0.2,0.4,0.2,0.3,0.4C57.6,19.7,57.4,19.4,57.3,19.4z"/>
		<path fill="#0B0A09" d="M69,47.3c0-0.4,0-0.8,0-1.2c0.2-0.8,0.2-1.6,1-2.2c-0.2,1.1-0.9,2.1-0.8,3.3C69.1,47.2,69,47.2,69,47.3z"
			/>
		<path fill="#0B0A09" d="M70.4,43.2c0,0.4-0.1,0.6-0.5,0.7C69.9,43.5,70.1,43.3,70.4,43.2z"/>
		<path fill="#0B0A09" d="M71.2,42.4c0,0.2-0.1,0.3-0.3,0.3C70.8,42.5,71,42.4,71.2,42.4z"/>
		<path fill="#0B0A09" d="M70.9,42.7c0,0.2-0.1,0.3-0.3,0.3C70.6,42.7,70.7,42.6,70.9,42.7z"/>
		<path fill="#0B0A09" d="M70.7,42.9c0,0.2,0,0.3-0.3,0.3C70.4,43,70.4,42.9,70.7,42.9z"/>
		<path fill="#0B0A09" d="M85.5,74.2c-0.6,0-0.9,0.5-1.2,0.9c-0.3,0-0.4-0.2-0.4-0.5c0.7,0.2,1-1.1,1.8-0.5
			C85.7,74.2,85.6,74.3,85.5,74.2z"/>
		<path fill="#0B0A09" d="M83.4,74.2c-0.3,0.1-0.6,0.1-0.9,0.2C82.8,74,83,73.7,83.4,74.2z"/>
		<path fill="#584D46" d="M86.4,74.5c0,0.1,0,0.3-0.1,0.3c-0.3,0.1-0.4-0.2-0.5-0.4C86,74.4,86.2,74.5,86.4,74.5z"/>
		<path fill="#0B0A09" d="M83.9,74.7c-0.2-0.2-0.3-0.3-0.5-0.5C83.7,74.2,83.9,74.3,83.9,74.7z"/>
		<path fill="#0B0A09" d="M86.8,73.9c0,0.2-0.1,0.2-0.3,0.3C86.5,74,86.6,73.9,86.8,73.9z"/>
		<path fill="#584D46" d="M85.5,74.2c0-0.1,0.1-0.1,0.2-0.1c0,0.1,0.1,0.2,0.1,0.3C85.7,74.3,85.6,74.3,85.5,74.2z"/>
		<path fill="#584D46" d="M86.5,74.2c0,0.2,0,0.3-0.2,0.3C86.3,74.3,86.4,74.2,86.5,74.2z"/>
	</g>
</g>
</svg>
