<?xml version="1.0" encoding="utf-8"?>
<!-- Generator: Adobe Illustrator 21.1.0, SVG Export Plug-In . SVG Version: 6.00 Build 0)  -->
<svg version="1.1" id="Layer_1" xmlns="http://www.w3.org/2000/svg" xmlns:xlink="http://www.w3.org/1999/xlink" x="0px" y="0px"
	 viewBox="0 0 168.7 323.1" enable-background="new 0 0 168.7 323.1" xml:space="preserve">
<g id="QHf8NH.tif">
	<g>
		<path d="M168.5,192.7c0,0.3,0,0.6,0,0.9c0,0.5,0,1,0,1.5c0,0.3,0,0.6,0,1c-0.4,1.5-0.8,3-1.6,4.3c-0.2,0.4-0.2,0.7-0.2,1.1
			c0,0.6-0.1,1.3-0.3,1.9c-0.7,1.6-1.6,1.7-2.8,0.3c-0.6,1.3-1.2,2.6-2.2,3.7c-0.2,0.2-0.2,0.5-0.2,0.8c0,0.5-0.2,1-0.4,1.5
			c-0.4,0.7-0.8,1.6-1.7,1.7c-1,0.1-1.1-0.9-1.4-1.4c-2.4-0.8-4.3,0.6-6.3,1.3c-0.3,0.1-0.3,0.3-0.3,0.6c0,0.3-0.1,0.6-0.2,0.8
			c-0.3,0.6-0.4,1.4-1.2,1.5c-0.8,0.1-1.3-0.6-1.6-1.2c-0.4-0.9-0.9-1.4-2-1.6c-1.8-0.3-3.4-1.3-4.8-2.6c-0.8-0.8-1.9-0.7-2.5,0.2
			c-0.7,1-1.5,1.1-2.3,0c-0.1-0.2-0.4-0.4-0.4-0.6c-0.5-2.2-2.4-3.6-3.5-5.5c-2.4-4.1-3.1-8.6-1.9-13.2c1.7-6.3,0.5-12.3-0.9-18.3
			c-1.3-5.9-3.5-11.7-4.2-17.7c-0.7-5.9-3.2-11-5.2-16.3c-2.1-5.4-4.2-10.9-6.2-16.3c0-0.1-0.1-0.2-0.2-0.4
			c-0.5,2.4-0.4,4.8-0.5,7.2c-0.4,6.5-0.6,12.9-0.5,19.4c0.1,8.4,1.4,16.7,3.5,24.8c2.4,8.9,4.8,17.7,7.1,26.6
			c1.4,5.3,2.8,10.6,3.6,16c1,7,1.6,14,1.3,21c-0.1,2.8-0.8,5.6-1.3,8.4c-2,11.4-2.8,22.8-2.1,34.3c0.2,3.3,0.6,6.6,1.1,9.9
			c0.3,2.4,0.9,4.8,1.3,7.1c5.4,0.4,9.2,3.4,12.4,7.2c2.2,2.6,2.5,6,2.7,9.3c0.1,1.9-0.1,3.8-0.2,5.7c-0.1,2.5-1.6,3.6-3.8,4
			c-0.5,0-1,0-1.4,0c-0.6,0-1.1,0-1.7,0c-2.1,0-4.2,0-6.2,0c-7.9,0-15.8,0-23.7,0c-1.2,0-2.3,0-3.5,0c-3-0.9-4-3.4-4.5-6.1
			c-0.8-4.1-1-8.3-1-12.4c0-7.8-0.9-15.5-1.3-23.2c-0.4-7.2-1.9-14.3-2.4-21.5c-0.4-5.8-0.1-11.6,1.5-17.2c0.8-2.5,0.7-5-0.1-7.6
			c-3.3-10.7-5.6-21.5-6.6-32.7c-0.1-1.1-0.3-2.1-0.5-3.3c-1.8-0.2-3.6-0.2-5.5-0.1c-0.4,2-0.6,4-0.9,6c-0.9,8.3-2.5,16.4-4.7,24.4
			c-0.6,2.3-1.3,4.5-2,6.8c-0.6,2-0.3,4.1,0.2,6c1.8,6.2,2.2,12.6,1.5,19c-0.6,5.8-1.6,11.6-2,17.5c-0.6,8.6-1.5,17.1-1.5,25.7
			c0,4.6-0.1,9.4-1.3,13.9c-0.6,2.2-1.7,4.2-4.3,4.7c-10.6,0-21.1,0-31.7,0c-1,0-2.1,0-3.1,0c-0.6,0-1.1,0-1.7,0
			c-2.6-0.5-3.6-2-3.8-4.6c-0.2-4.2-0.3-8.4,1.4-12.4c0.5-1.3,1.1-2.5,2.2-3.4c1.9-1.7,4-3.2,6.2-4.5c1.6-0.9,3.4-1.2,5.2-1.3
			c1.1-6,2.4-12,2.4-18.1c0-2.4,0.2-4.8,0.2-7.2c0.2-8-0.8-15.8-2-23.7c-0.6-4.2-1.8-8.3-1.8-12.5c0-5.3,0.3-10.6,1-15.9
			c1.3-10,4.2-19.6,6.7-29.2c2.2-8.5,5-16.9,6.5-25.6c1.3-7.3,1.8-14.7,1.5-22.2c-0.2-4.1-0.2-8.3-0.4-12.4
			c-0.1-2.6-0.3-5.2-0.5-7.7c-0.1-0.3-0.1-0.5-0.1-0.7c-0.1,0.1,0.1,0.5-0.1,0.6c-2.2,6.1-4.8,12.1-7,18.2c-0.8,2.3-1.9,4.5-2.8,6.7
			c-1.2,3-1.2,6.2-2,9.3c-1.3,5.6-2.8,11.2-4.1,16.7c-0.9,3.8-1.6,7.7-1.8,11.7c-0.1,1.8,0.5,3.6,0.9,5.4c1.4,6.4,0.4,12.1-4.1,17
			c-0.8,0.8-0.7,2.1-1.5,3c-1,1.1-1.6,1.1-2.4-0.1c-0.5-0.7-1.6-0.9-2.2-0.3c-1.6,1.6-3.6,2.6-5.9,3c-0.3,0-0.5,0.2-0.6,0.5
			c-0.2,0.4-0.4,0.9-0.7,1.3c-0.7,1.1-1.5,1.1-2.2,0c-0.4-0.6-0.4-1.3-0.6-1.9c-1.1-0.4-2.1-0.7-3.1-1.4c-0.7-0.5-1.5,0-2.2-0.1
			c-0.8-0.2-1.3,0.1-1.7,0.9c-0.4,0.8-1.1,0.9-1.8,0.2c-0.5-0.5-1.1-1-1.1-1.7c-0.1-2.2-2.2-3.4-2.6-5.7c-0.5,0.7-0.8,1.4-1.6,1.2
			c-0.7-0.1-1.2-0.6-1.2-1.2c-0.3-2.8-2-5.2-2.3-8c-0.3-2.9,0.6-5.6,2.1-8.1c0.9-1.6,1.9-3.1,3.2-4.4c2.3-2.4,3.6-5.3,5-8.3
			c2.6-5.6,5.3-11.3,7.4-17.1c1.1-3.2,2-6.6,2.9-9.9c1.4-4.8,2.9-9.5,4.5-14.3c2.2-6.5,3.9-13.2,5.3-19.9c1-4.9,1.7-9.8,2.6-14.7
			c0-0.1,0-0.2,0-0.3c-2.5,0-2.5,0-1.6-2.4c0.4-1.1,0.9-2.1,1.3-3.2c-0.9-0.4-1.8-0.7-2.6-1.1c-0.8-0.4-1-1.2-0.2-1.5
			c2.7-1,3.9-3.7,6-5.3c-0.4-0.7-0.8-1.3-1.2-1.8c-0.2-0.3-0.3-0.6-0.1-0.9c0.2-0.2,0.5-0.4,0.7-0.3c3.3,1.5,6.4,0,9.4-0.8
			c3.9-1,7.7-2.3,11.4-3.9c0.8-0.4,1.5-0.9,2-1.7c1.2-1.9,2.4-3.9,3.2-6.2c-3.2-0.8-6.4-0.8-9.4,0.5c-1.4,0.6-1.7,0.4-1.7-1.1
			c0-1,0.1-2.1,0.2-3.1c0,0,0,0,0,0c-0.6,0.4-1.1,0.7-1.7,1.1c-0.4,0.2-0.9,0.3-1.4-0.1c-0.4-0.3-0.3-0.7-0.2-1.1
			c1-3.2,0.6-6.6,1.4-10c-1.3,0.2-2.5,0.4-3.6,0.3c-0.5,0-1,0-1.2-0.6c-0.2-0.6,0.4-0.7,0.7-0.9c1.6-1.3,2.7-3.1,3.9-4.8
			c0.5-0.7,0.9-1.4,1.6-2c-0.7-0.4-1.4-0.7-2-1.2c-0.4-0.2-1-0.4-0.9-1c0.1-0.7,0.7-0.6,1.2-0.8c1.5-0.4,3-0.8,4.6-1.1
			c-0.6-0.8-1.1-1.5-1.7-2.3c-2.4-3.4-3.3-7.2-3.6-11.2c-0.8-8.4,0.2-16.6,3.1-24.5c0.4-1.1,0.9-2,1.6-2.9c1.5-1.7,3-2,5-1.1
			c4.5,2,7.9,5.4,10.9,9.3c1.1,1.4,2.1,2.8,3.2,4.4c1.4-2.2,3.9-3.5,4.9-6c0.3-0.8,0.6-1.7,0.8-2.5C77.1,6.3,77.2,6,77.7,6
			c0.5,0,0.7,0.3,0.8,0.7c0.4,1,0.2,2.1,0.3,3.2c1.4-0.6,2.8-1.2,4.1-1.8c0.8-0.4,1.6-0.8,2.1-1.6c0.2-0.4,0.6-0.7,1-0.5
			c0.5,0.2,0.4,0.7,0.3,1.2c-0.3,1-0.5,2-1.1,3.1c4.5-0.2,8.7,2.6,13,0c0.6,0.7,0.1,1.2-0.1,1.8c1.1-0.4,2-0.9,2.7-1.8
			c2.9-3.7,6.2-6.9,10.5-8.9c2.1-1,3.6-0.6,5.1,1.2c1.6,1.8,2.1,4.1,2.7,6.3c2.5,8.5,2.9,17.2,1.2,25.9c-0.6,3-2.2,5.6-4.1,8
			c-0.1,0.1-0.3,0.2-0.2,0.6c1.5,0.3,3,0.7,4.5,1.1c0.5,0.1,1.1,0.2,1.2,0.8c0.1,0.6-0.5,0.7-0.9,1c-0.6,0.4-1.3,0.7-2,1.1
			c2,2.4,3.3,5.2,5.9,7.2c0.5,0.4,0.4,1-0.4,1.2c-1.4,0.3-2.7,0-4.1-0.3c0.8,3.3,0.5,6.7,1.4,9.9c0.1,0.4,0.2,0.9-0.2,1.2
			c-0.4,0.3-0.9,0.2-1.4,0c-0.5-0.3-1-0.6-1.7-1c0.1,1.2,0.2,2.3,0.2,3.3c0,1.2-0.4,1.4-1.5,0.9c-3.1-1.4-6.2-1.4-9.6-0.6
			c0.5,1.8,1.5,3.4,2.3,5c0.9,1.6,2,2.8,3.8,3.4c5.3,1.8,10.5,3.9,16,4.8c1.2,0.2,2.3,0,3.4-0.4c0.4-0.1,0.8-0.2,1.1,0.1
			c0.3,0.3,0.1,0.7-0.1,1c-0.4,0.6-0.7,1.1-1.1,1.7c1.2,1.3,2.3,2.5,3.5,3.8c0.6,0.7,1.4,1,2.2,1.4c0.4,0.2,0.7,0.4,0.7,0.8
			c0,0.4-0.3,0.7-0.7,0.9c-0.8,0.4-1.7,0.7-2.6,1.1c0.5,1.3,1.1,2.6,1.6,3.9c0.2,0.5,0.7,0.9,0.3,1.4c-0.4,0.5-1,0.3-1.6,0.3
			c-0.2,0-0.4-0.1-0.7-0.1c0.3,2.1,0.6,4.1,0.9,6.1c1.2,7.7,2.8,15.4,5,22.9c1,3.5,2.2,7,3.4,10.5c2,5.8,3.4,11.8,5.3,17.6
			c1.3,4.2,3,8.3,4.8,12.2c1.4,3,2.9,5.9,4.2,8.9c0.9,2.2,2.2,4.2,3.8,5.9C165.5,185.7,167.5,188.9,168.5,192.7z"/>
		<path fill="#454545" d="M54.7,120.7c0-0.2,0-0.3,0-0.5c0-0.1,0.1-0.2,0.2-0.6c0,0.5,0,0.8,0,1.1C54.8,120.8,54.7,120.8,54.7,120.7
			z"/>
		<path fill="#B1ADA2" d="M125.5,142.3c0-0.2-0.1-0.3-0.1-0.5c-0.4-0.5-0.2-1.1-0.3-1.6c-0.1-0.1,0.1-0.3-0.1-0.4
			c0.1,0.9,0,1.8-0.1,2.8c-0.2,0.3-0.3,0.6-0.7,0.4c-1.8-3-2.6-6.4-4-9.6c-2-4.8-3.7-9.8-5.6-14.6c-0.6-1.5-0.8-2.9-0.3-4.5
			c0.7-2.5,1.3-5.1,1.6-7.7c0.1-0.1,0.1-0.2,0.1-0.3c0-0.1,0-0.3,0-0.4c-0.3-0.2-0.3,0.1-0.3,0.2c-0.8,3.4-1.5,6.8-2.5,10.2
			c-0.6,2-0.9,4.1-0.9,6.2c0,0.3,0.1,0.6-0.2,0.9c-0.3-0.5,0-1.1-0.2-1.6c-0.2,0-0.1,0-0.1,0c0.2,1.4-0.1,2.9,0.2,4.4
			c-0.1,1.6-0.3,3.1-0.4,4.7c-0.4-0.5,0-1.1-0.1-1.4c0-0.4-0.1-0.2-0.1-0.2c0.2,1.3,0.1,2.6,0.1,3.9c-0.2,3.4-0.4,6.7-0.1,10.1
			c-0.3,10.8,1.3,21.4,4.2,31.8c1.3,4.8,2.7,9.5,4,14.3c-0.4,0.4-0.9,0.2-1.4,0.1c-1.3-0.3-2.7-0.6-4-0.8c-0.4-0.1-0.8-0.1-1.2,0
			c-1.2,0.3-1.6,1.1-0.8,2.1c1.1,1.6,2.7,2.8,4.3,3.9c1.3,0.9,2.7,1.6,4.3,2.2c0.4,0.1,0.7,0.3,1,0.7c1.3,3.8,2.1,7.7,2.9,11.7
			c-0.3,0.5-0.7,0.2-1.1,0.2c-2.8,0-5.5-0.7-8.3-1.3c-0.7-0.2-1.4-0.2-2.1,0.2c-0.7,0.4-0.9,0.9-0.5,1.6c0.4,0.7,0.9,1.3,1.4,1.8
			c3.1,2.8,6.6,4.7,10.7,5.6c0.4,0.1,0.9,0.1,1.2,0.5c0.2,0.7,0.3,1.4,0.3,2.1c-0.2,0.3-0.1,0.7-0.1,1.1c0.1-0.4-0.1-0.7,0.2-0.9
			c0.1,0.8,0.1,1.6,0.2,2.4c-0.2,1.4,0.1,2.8,0.2,4.3c0.1,1,0.1,2,0,3c-0.6,1-1.6,0.7-2.5,0.7c-2.7-0.1-5.3-0.7-7.9-1.2
			c-0.6-0.1-1.3-0.3-1.9-0.2c-1.4,0.1-1.9,1.1-1.1,2.2c1,1.4,2.3,2.4,3.7,3.4c2.5,1.8,5.3,2.9,8.3,3.6c0.4,0.1,0.9,0,1.2,0.5
			c-0.5,3.5-1,6.9-1.6,10.4c-0.2,1.1-0.2,2.3-0.6,3.4c-0.2,0.6-0.8,0.7-1.4,0.8c-4.5,1-9,1.5-13.6,1.3c-4.4-0.2-8.8-0.7-13.1-1.8
			c-0.6-0.1-1.1-0.4-1.8-0.4c0,1,0,2,0,3c0,0.5,0.1,1.1-0.4,1.4c-0.4-3.5-0.1-6.9,0.4-10.3c0.5-3.2,1.4-6.3,2.3-9.4
			c0-0.8,0.4-1.4,0.8-2c0.4-0.6,0.7-1.3,1.1-1.9c0.2-0.2,0.3-0.5,0.5-0.8c-0.2,0.3-0.3,0.5-0.4,0.7c-0.4,0.6-0.7,1.3-1.1,1.8
			c-0.3,0.4-0.5,0.9-0.7,1.4c-0.3,0.4-0.4,0.2-0.6-0.1c-0.3-1.3-0.7-2.5-1-3.8c0.8-1.9,2.1-3.5,3.1-5.2c3.2-5.3,6.2-10.7,7.6-16.9
			c0.6-2.8,0.9-5.6,1-8.4c0.2-7.7-0.5-15.2-2.3-22.7c-0.7-2.7-1.8-5.1-3.8-7.1c-2.4-2.4-5.2-3.4-8.5-2.3c-0.4,0.1-0.8,0.3-1.2,0
			c-0.3-0.4-0.1-0.8,0.1-1.1c2.8-4.2,5.6-8.4,7.9-12.9c1.7-3.4,3.7-6.7,5.3-10.2c1.6-3.5,2.5-7.2,2.8-11.1c0.4-4.7-0.5-9.2-1.7-13.7
			c-1.2-4.6-2.5-9.2-2.9-14c-0.3-3.6-0.1-7.3,0.6-10.9c0.5-2.4,1-4.8,1.8-7.1c0.3-0.6,0.3-1.5,1.3-1.4c0.2,0,0.3-0.3,0.4-0.6
			c0.6-1.1,1-2.3,1.5-3.4c0.5-1,0.7-2,1.3-2.9c0.3-0.4,0.5-0.9,1-1.1c0.4-0.9,1.1-0.9,1.9-0.6c2.8,0.9,5.6,1.9,8.4,2.8
			c2.9,1,5.8,1.5,8.8,2.1c0,0.1-0.1,0.2-0.2,0.1c-0.1-0.1-0.3,0-0.1,0c0.4,0.1,0.7,0,1.1,0c0.4,0,0.8-0.1,1,0.4
			c-0.1,0.4-0.6,0.4-1,0.8c1.9,0.6,3,2.2,4.2,3.6c0.7,0.9,1.6,1.7,2.8,2.2c-1.1,0.8-2.4,0.9-3.6,1.3c1.5,1.4,1.7,3.3,2.7,5.1
			c-1.3-0.3-2.1-0.9-3.1-1.5c1.9,4.2,1.7,8.6,2.5,12.9c1.7,8.9,3.7,17.8,6.7,26.4c0.1,0.2,0.1,0.5,0.1,0.7c-0.2,0.6-0.8,0.5-1.2,0.6
			c-3.7,0.8-7.4,2.1-10.9,3.4c-1.3,0.5-2.6,1.1-3.8,1.8C126.4,142.2,126,142.5,125.5,142.3z"/>
		<path fill="#B1ADA2" d="M73.3,232.5c-0.4,1.3-0.8,2.7-1.2,4c-0.5-0.1-0.4-0.6-0.7-0.9c-0.6-0.6-0.9-1.4-1.3-2.1
			c-0.3-0.4-0.6-0.8-0.7-1c0.1,0.2,0.3,0.6,0.7,1c0.3,0.8,0.9,1.5,1.1,2.4c1.8,5.1,3.4,10.3,3.4,15.8c-0.3,0.5-0.8,0.7-1.3,0.8
			c-4.2,1.2-8.5,1.8-12.9,2c-3.8,0.2-7.6,0-11.3-0.5c-1.3-0.2-2.7-0.5-4-0.9c-0.4-0.1-0.8-0.2-1-0.6c-0.6-3.6-1.1-7.2-1.7-10.8
			c-0.2-1-0.3-2-0.5-3.1c0.3-0.5,0.9-0.4,1.3-0.5c4.3-0.9,7.9-2.8,11-5.9c0.4-0.4,0.7-0.8,1-1.2c0.7-1.1,0.3-1.8-1-2
			c-0.7-0.1-1.4,0.1-2.1,0.2c-2.5,0.5-5.1,1.1-7.7,1.2c-1,0-2,0.4-2.7-0.7c0-2.1,0.3-4.2,0.2-6.3c0.1-1.9,0.2-3.8,0.6-5.7
			c0.4-0.5,1-0.5,1.5-0.6c4.2-0.9,7.8-2.9,10.8-6c0.2-0.2,0.4-0.5,0.6-0.7c0.4-0.5,0.8-1.1,0.4-1.8c-0.4-0.6-1-0.7-1.7-0.7
			c-1.5,0.1-2.9,0.5-4.3,0.8c-1.7,0.4-3.5,0.5-5.2,0.6c-0.3,0-0.6,0-0.7-0.3c0-0.1,0-0.3,0.1-0.4l0,0c0.9-3.7,1.6-7.5,2.8-11.1
			c0-0.1,0.1-0.2,0.2-0.3l0,0c0.3-0.4,0.8-0.5,1.3-0.6c2.9-1.1,5.3-2.9,7.4-5.1c0.6-0.6,1.5-1.4,0.9-2.4c-0.5-0.9-1.6-0.7-2.5-0.5
			c-1.3,0.3-2.6,0.6-4,0.8c-0.5,0.1-1.1,0.4-1-0.6c2.2-7.7,4.6-15.4,6.2-23.3c0.5-2.7,0.9-5.4,1.3-8c0.1,0.1,0.2,0.2,0.1,0.4
			c0.2-2.3,0.4-4.7,0.6-7c0.3-4.9-0.1-9.7,0-14.6c0-0.1-0.1-0.3-0.1-0.4c0-1.7-0.1-3.4-0.2-5.2c-0.1-1.1-0.1-2.3-0.3-3.4
			c-0.2-1.3-0.1-2.7-0.3-4.1c0-1.1,0-2.3,0-3.2c-0.2,0.4,0.2,1.1-0.1,1.7c-0.5-5-2.4-9.8-3.4-14.7c-0.3-0.3-0.3-0.8-0.3-0.9
			c0,0.1,0,0.4,0.1,0.7c0,0.1-0.1,0.3,0,0.4c0.2,2.6,1,5,1.6,7.5c0.3,1.2,0.2,2.3-0.2,3.4c-2.8,7.5-5.6,15.1-8.6,22.6
			c-0.4,1-0.9,1.9-1.3,2.8c-0.4-0.3-0.7-0.7-0.9-1.2c0.2-0.9,0-1.9,0.1-2.7c-0.3,0.7,0.3,1.6-0.3,2.4c-0.6,0.4-1.1,0-1.6-0.3
			c-4.7-2.4-9.7-4-14.8-5.2c-0.4-0.1-0.8-0.1-1-0.5c1-3.2,2.1-6.4,3-9.7c1.6-6.2,3-12.4,4.1-18.7c0.1-0.3,0-0.7,0.3-1
			c0.3-0.9,0.6-3.4,0.5-4.2c0.1-2.1,0.5-4.2,1.5-6.3c-1.1,0.5-1.8,1.1-3.1,1.5c0.9-1.8,1.1-3.7,2.6-5.2c-1.1-0.6-2.4-0.6-3.5-1.3
			c1.7-0.8,2.7-2.2,3.8-3.5c0.7-0.9,1.5-1.8,2.7-2.1c0.3-0.1,0.4-0.2,0.2-0.5c-0.1-0.3-0.5-0.3-0.4-0.7c1-0.2,2.1-0.2,3.1-0.3
			c0.2,0,0.2,0,0.1,0c0-0.1,0-0.1-0.1-0.2c3.8-0.9,7.6-1.9,11.3-3.3c1.4-0.5,2.8-0.9,4.2-1.4c1-0.3,1.7-0.2,2.1,0.9
			c0.5,0.2,0.7,0.7,1,1.1c0.5,0.8,0.7,1.6,1.1,2.5c0.6,1.3,1.2,2.7,1.9,4.1c0.9-0.3,1.1,0.4,1.3,1.1c1,3.4,1.9,6.8,2.3,10.3
			c0.1,0.7,0.2,1.3,0.1,2c0,0.1,0,0.3-0.1,0.4c-0.2,1.5-0.1,3-0.1,4.4c0,0.1,0.1,0.2,0.1,0.4c0.1,3.2-0.7,6.2-1.4,9.3
			c-0.7,3.3-1.8,6.5-2.4,9.8c-1.4,7.1-0.8,13.9,2.3,20.5c3.8,8.1,8.2,15.9,13.2,23.3c0.2,0.4,0.3,0.7,0.1,1.1
			c-0.4,0.2-0.8-0.1-1.2-0.2c-3.4-1.1-6.6-0.2-9,2.5c-2.2,2.6-3.4,5.6-4,8.9c-0.9,4.7-1.5,9.5-1.8,14.3c-0.4,5.6,0,11.1,1.4,16.5
			c1.1,4.3,3.1,8.2,5.3,12.1c1.3,2.3,2.7,4.6,4.2,6.8C72.9,231.5,73.1,232,73.3,232.5z"/>
		<path fill="#584D46" d="M109.8,80.9c-0.5,1-0.9,1.9-1.4,2.9c-0.7,0.9-1,2-1.4,3c-0.3,0.5-0.5,1-1.1,0.4c-1.1,2.1-2.5,3.8-3.9,5.7
			c-0.8-0.7-0.5-1.5-0.8-2.2c0.1,0.7,0,1.6,0.6,2.4c0.8-0.9,1.4-1.9,2.1-2.8c0.4-0.5,0.5-1.3,1.3-1.4c-0.5,2.4-1.2,4.7-1.7,7.1
			c-1.4,6.9-0.6,13.7,1.1,20.5c1,3.8,2.1,7.5,2.6,11.4c0.8,6.1,0.1,12-2.5,17.6c-3.7,8-8,15.8-13,23.1c-0.1,0.2-0.3,0.3-0.4,0.4
			c-0.5-0.6-0.3-1.3-0.3-1.9c0-3.2-1.3-5.7-4.4-7c-0.3-0.1-0.6-0.3-0.7-0.6c-0.4-1.8-0.2-3.6,0-5.5c0.4-2.8,0.8-5.5,1.5-8.2
			c1.2-4.7,3.7-8.6,6.7-12.3c0.9-1.1,1.8-2.1,3-3.2c-1-1-1.9-1.9-2.7-2.9c-1.4-1.7-2.9-3.5-3.9-5.4c-2.5-4.5-2.7-9.2-1.3-14
			c0.8-2.8,1.9-5.5,3.3-8.1c0.3-0.5,0.6-1,0.6-1.5c0.2-0.7,0.6-1.1,1.3-1.3c0.5,0.4,0,1.1,0.5,1.6c1.7-1.9,3.6-3.5,5-5.7
			c-1.3,2.1-3.2,3.7-5,5.7c-0.5-1.1-0.1-2.1-0.1-2.8c0.1-0.3-0.2-0.2-0.1-0.2c0.1,0,0.1,0,0,0.1c-0.1,0.4,0,0.9-0.7,0.6
			c-3.4-3.8-5-8.3-5.7-13.2c-0.2-1.6-0.2-3.2-0.4-4.8c-0.1-0.8-0.2-1.7,0.1-2.5c0.1-0.3,0.4-0.4,0.9-0.4c-0.6-0.1-1,0-1.1-0.6
			c0-2,0-4.1,0-6.1c0-0.5,0.2-1,0.3-1.5c2-3.4,3.8-6.9,7.2-9.4c-1.2-0.4-2.1,0.1-3.2,0.3c1.2-2.1,2.7-3.7,4.2-5.3
			c-0.8-0.8-1.5,0.1-2.3-0.3c-0.1-0.3,0.3-0.5,0.4-0.7c2-2.6,2.6-5.6,3.2-8.7c0.5-2.7,1.1-5.4,2.8-7.7c0.1-0.1,0-0.3,0.1-0.5
			c-1,0-1.8,0.3-2.8,0.6c1.6-4,2.1-8,2-12.2c-1.4,1.6-3,2.8-4.3,4.5c-0.5-1.5-0.9-3-1.4-4.5C94,23,94,22.7,94.2,22.4
			c2-3.2,3.8-6.5,6-9.5c1.3,0.2,2.5,0.7,3.8,1.1c4.6,1.7,9.2,3.5,13.6,5.5c0.8,0.4,1.7,0.8,2.3,1.5c0.4,1,0.3,2,0.2,3
			c-0.2,3.1-0.3,6.1-0.7,9.1c-0.7,4.2-2.8,7.7-5.5,10.8c-0.2,0.2-0.3,0.4-0.4,0.6c-0.4,0.5-0.8,1-1.4,1.4c-1.4-0.9-2.2-2.3-3.5-3.2
			c-0.4-0.2-0.7-0.5-1-0.8c-0.4-0.2-0.7-0.5-1-0.8c-1.4-1.1-3-2-4.4-3c-0.2-0.2-0.5-0.3-0.7-0.5c0,0,0,0,0,0s0,0,0.1,0
			c0.2,0.1,0.4,0.3,0.6,0.4c1.4,1.1,3,2,4.4,3c0.4,0.2,0.7,0.5,1,0.8c0.4,0.2,0.7,0.6,1,0.8c2.4,2.1,4.7,4.3,5.7,7.5
			c0.2,0.7,0.7,1.3,1,2c0,0.2-0.2,0.2-0.4,0.3c0.1,0,0.2,0.1,0.3,0.1c0.1,0,0.1,0,0.1-0.1c0-0.1,0-0.1,0-0.1c0-0.1-0.1-0.2-0.1-0.3
			c-0.5-0.7-0.9-1.5-1.2-2.3c-0.4-1.2-1.1-2.3-1.8-3.5c0.4-0.6,0.8-1.1,1.5-1.4c0.3-0.3,0.5-0.5,0.9-0.4c1.5,0.4,3,0.8,4.6,1.3
			c-1.5,1-3,1.1-4.6,0.9c3.9,1.4,5.2,5.2,8,8c-2.1-0.2-3.7-0.9-5.3-1.8c3,3.6,1.9,8.1,2.9,12.5c-1.7-0.9-2.8-2.1-4.2-3.2
			c0.9,2.2,1.4,4.3,1.5,6.3c-0.4,0.3-0.6,0.1-0.9,0c-5.5-1.7-10.6-0.5-15.5,1.9c-0.2,0.1-0.3,0.3-0.4,0.4c0,0,0,0,0,0
			c1.7-0.5,3.2-1.3,5-1.6c1,1.8,1.6,3.9,2.7,5.6c0.6,1,1.2,2,1.9,2.9c0.6,0.7,0.5,1.1,0.1,1.8C110.3,79.9,109.8,80.3,109.8,80.9z"/>
		<path fill="#FBF4C4" d="M44.1,252.5c3,1,6,1.5,9.1,1.7c6.1,0.4,12.1,0,18-1.4c1.1-0.3,2.2-0.6,3.3-1c0.3,3.7-0.1,7.4-0.6,11.1
			c-0.2,1.9-0.4,3.7-0.8,5.5c-0.3-0.3-0.2-0.7-0.1-0.8c0.1,1.3-0.5,2.7-0.4,4.3c0,0.7,0.1,1.3-0.2,2c-0.1-0.1-0.1-0.3-0.2-0.6
			c0.1,1.6-0.4,2.9-0.1,4.4c0,0.5,0.1,1-0.2,1.5c-0.1-0.1-0.2-0.2-0.2-0.2c0,2.4-0.5,4.8-0.4,7.4c-0.2,3.9-0.4,7.7-0.5,11.6
			c-0.1,4.5-0.2,8.9-0.7,13.4c-0.3,2.6-0.2,5.3-1.9,7.5c-0.4,0.5-0.8,1.1-1.5,1.3c-12.1,0.1-24.2,0-36.3,0c-0.7,0-1.2-0.3-1.9-0.3
			c-0.8-0.2-1.1-0.9-1.2-1.6c-0.6-4.8-0.5-9.6,1.5-14.1c1.5-3.4,4.7-4.8,8.3-3.9c0.2-0.1,0.1-0.2,0-0.3c-0.9-0.5-1.9-0.6-3.2-0.5
			c2.2-1.9,4.4-2.9,7.2-2.7c-0.7,2.9-1.1,5.7-1.6,8.6c-0.3-0.4-0.1-0.8-0.1-1.2c0.1,1.4-0.2,2.8,0.1,4.1c0.1,0.1,0.2,0.2,0.4,0.5
			c0.4-3.3,0.8-6.5,1.4-9.6c1.2-6.4,2.9-12.8,3.2-19.4c0.5-9,0.5-18-0.7-26.9C44.1,252.8,44.1,252.6,44.1,252.5z"/>
		<path fill="#FBF4C4" d="M94,256.8c0-1.6,0-3.3,0-5c1.9,0.6,3.7,1,5.6,1.4c2.9,0.6,5.7,0.8,8.6,1c5,0.4,9.8-0.1,14.7-1.3
			c0.5-0.1,1-0.3,1.5-0.5l0,0c0.1,0.2,0.1,0.4,0,0.5c-0.2,2.8-0.5,5.6-0.7,8.3c-0.3,4.3-0.3,8.5-0.1,12.8c0.2,5.1,0.4,10.3,1.4,15.4
			c1,4.9,2.1,9.8,2.9,14.8c0.2,1.5,0.3,3,0.6,4.4c0.5-4-0.5-7.9-1.3-11.9c2.8-0.2,5,0.8,7.1,2.6c-1.2,0.2-2.4,0-3.3,0.8
			c0.2,0,0.3,0.1,0.4,0c3.5-0.9,6.7,0.6,8.1,4c1.9,4.4,2,9,1.5,13.7c-0.1,0.6-0.1,1.4-0.9,1.7c-1.1,0.4-2.2,0.5-3.3,0.5
			c-10.9,0-21.9,0-32.8,0c-1.4,0-2.7-0.1-3.7-1.2c-0.4-0.4-0.8-0.9-0.9-1.5c-0.9-3.8-0.9-7.8-1.4-11.7c0-0.3,0-0.6,0-1
			c0.1-5.6-0.2-11.2-0.5-16.7c-0.3-5-0.7-10-1.2-15c-0.1-0.9-0.2-1.7-0.4-2.6c0,0,0,0-0.1,0c0,0-0.1,0.1-0.1,0.1
			c-0.7-3.2-1-6.4-1.4-9.7C94.1,259.5,94.1,258.2,94,256.8z"/>
		<path fill="#584D46" d="M77.2,169.2c-4-5.7-7.5-11.8-10.7-18c-1.8-3.5-3.6-7-4.6-10.8c-1.7-6.4-1.1-12.7,0.6-19
			c1.3-4.6,2.5-9.2,2.9-14c0-0.4,0.1-0.9,0.1-1.3c0-0.1,0-0.2,0.1-0.4c0.1-1.5,0-2.9,0.1-4.4c0-0.1-0.1-0.2-0.2-0.3
			c-0.3-3.8-1-7.5-2.1-11.2c-0.1-0.4-0.2-0.8-0.3-1.3c0.6,0.1,0.8,0.7,1.1,1.1c0.8,1.1,1.5,2.2,2.4,3.2c0.7-0.7,0.5-1.5,0.6-2.2
			c-0.1,0.7,0.1,1.4-0.6,2.1c-1.5-1.7-2.8-3.6-3.9-5.6c-0.7,0.5-0.9,0-1.2-0.6c-0.5-1-0.8-2.2-1.5-3.1c-0.4-0.8-0.8-1.6-1.2-2.4
			c0-0.5-0.4-0.9-0.5-1.4c-0.6-0.8-0.4-1.4,0.2-2.2c1.7-2.2,2.9-4.6,3.9-7.1c0.2-0.4,0.4-0.8,0.6-1.2c1.8,0.4,3.5,1,5.2,1.6
			c-5.3-2.8-10.8-4.3-16.9-2.1c-0.1-2.4,0.4-4.5,1.4-6.6c-1.3,1.1-2.5,2.3-4.2,3.2c1-4.3-0.2-8.9,2.9-12.5c-1.6,0.9-3.3,1.8-5.5,2
			c2.8-2.8,4.1-6.8,8.2-8.1c-1.7,0.1-3.3,0.1-4.9-1c1.7-0.4,3.3-0.9,4.8-1.2c0.7-0.2,2.1,1.5,1.9,2.3c-1,1.8-1.7,3.8-2.6,5.6
			c0.9-1.8,1.4-3.8,2.8-5.4c0.7-1.2,1.9-2,2.7-3.1c0,0,0-0.1,0-0.1c0-0.1,0.1-0.2,0.2-0.2c0,0,0.1-0.1,0.1-0.1
			c0.1-0.1,0.1-0.1,0.2-0.2c0.1-0.1,0.2-0.1,0.2-0.2c1.8-1.5,3.8-2.8,5.7-4.2c0.1-0.1,0.2-0.1,0.3-0.2c0.2-0.1,0.5-0.2,0.7-0.4
			c0.4-0.3,0.8-0.7,1.3-0.9c0.1,0,0.1,0,0.2,0c0.7-0.1,0.7,0.4,0.8,0.8c0.8,2.2,1.2,4.5,1.6,6.7c0.6,2.8,1.4,5.4,3.6,7.5
			c-0.9,0.3-1.8-0.4-2.7,0.1c1.6,1.7,3,3.5,4.4,5.5c-1.1-0.2-2-0.8-3.2-0.4c3.8,3.1,5.8,7.2,8.2,11.2c0.6,2,0.5,3.9,0.3,5.9
			c-0.1,0.4-0.4,0.4-0.8,0.6c0.3,0,0.4,0.2,0.5,0.3c0.3,0.9,0.2,1.9,0.1,2.9c-0.2,5.4-1.1,10.6-4.2,15.2c-0.5,0.8-1,1.7-1.9,2.3
			c-0.2,0-0.3,0-0.5,0c0,0.8,0,1.4-0.4,2.3c-1.8-1.9-3.6-3.6-5-5.7c1.5,2.2,3.4,4,5.2,5.9c0.4-0.5,0-1.1,0.5-1.6
			c0.5-0.1,0.6,0.4,0.8,0.7c1.8,3.3,3.5,6.7,4.4,10.3c1.5,5.9,0.8,11.4-3,16.3c-1.3,1.7-2.5,3.4-4.1,4.9c-1,1-1,1,0,2
			c3.3,3.4,6.2,7.2,7.9,11.7c1.4,3.8,1.9,7.7,2.5,11.7c0.2,1.6,0.5,3.2,0.1,4.8c-0.2,0.4-0.6,0.5-1,0.7c-3,1.4-4.7,4.6-4.2,7.8
			C77.5,168.3,77.6,168.8,77.2,169.2z"/>
		<path fill="#FBF4C4" d="M73.3,232.5c-0.9-0.6-1.3-1.6-1.8-2.4c-3.2-4.9-6.2-9.9-8.1-15.5c-1.3-3.7-1.9-7.5-2.1-11.5
			c-0.5-7.8,0.5-15.4,2-23c0.6-2.8,1.7-5.5,3.7-7.7c2.7-3.1,6.5-4.4,10.4-2.3c0.5,0.2,0.5,0.7,0.7,1c1,2.1,2.2,4.2,4,5.8
			c1.4,1.2,2.2,1.4,3.7,0.3c2.2-1.6,3.4-3.9,4.5-6.2c0.2-0.4,0.3-0.9,0.8-1.1c1.1-0.1,2-0.7,3.1-0.7c4.1-0.2,6.7,2.1,8.7,5.4
			c1.9,3.1,2.5,6.5,3.1,10c1.1,6.1,1.4,12.2,1.2,18.3c-0.2,5.1-1.3,10-3.3,14.7c-2.2,5.1-5.2,9.9-8.3,14.6c-0.1,0.2-0.3,0.3-0.4,0.4
			c-1.4-4.2-2.4-8.5-3.3-12.9c-1.5-7.1-2.7-14.3-3.4-21.5c0-0.4-0.1-0.8,0.1-1.2c0.5,0,1,0,1.5,0c-1.6-1.5-9.2-1.6-11.7-0.2
			c0.5,0.3,1,0,1.7,0.3C78.9,209.1,76.8,220.9,73.3,232.5z"/>
		<path fill="#C53F26" d="M76.7,12.9c1.4-1.5,3.2-2.6,5.2-3.4c1.1-0.4,2.2-1,3.3-1.9c-0.7,2.3-2.1,3.7-4.1,4.4
			c-0.1,0.1-0.1,0.2-0.2,0.2c-0.2,0.1-0.3,0.2-0.3,0.1c0,0,0.3-0.1,0.5-0.1c0.1,0,0.1,0,0.2-0.1c3.2-1.2,6.4-0.8,9.6-0.2
			c2,0.4,4,0.7,6.1-0.2c-1.4,2-3.4,2.3-5.4,2.6c1.3,0.1,2.6-0.1,3.8-0.4c1.3-0.3,2.5-0.8,3.7-1.3c-0.3,1.4-1.7,3-3.2,4
			c-1.6,1.1-3.4,0.7-5.1,0.9c1.6,0.4,3.2,0.7,4.7,1.5c-0.6,1-1.2,1.9-1.9,2.9c-0.7-1-0.9-2.1-1.8-3.1c-0.8,2.1-1.5,4-1.8,6.4
			c-0.6-1.3-1-2.3-1.4-3.3C88,22,88,22.5,87.9,22.9c-0.2,0.8-0.2,1.6-0.3,2.6c0-0.1,0.2-0.3,0.1-0.3c0,0-0.1,0-0.1-0.1
			c0-0.7,0.1-1.4,0.2-2.1c0.1-0.3,0.1-0.8,0.6-0.6c0.3,1.5,1.2,2.8,1.6,4.3c0.6-2.2,0.9-4.5,2-6.7c1.5,3.6,3.3,7,2.5,11.1
			c0.7-2.7,2.6-4.4,4.7-6.3c-0.4,4.8-0.7,9.5-4,13.3c1.2-1.2,2.5-1.9,4.3-2.3c-1.9,3-2.3,6.4-2.9,9.6c-0.7,3.6-2.5,6.4-5.3,8.7
			c-0.1,0.1-0.1,0.2-0.3,0.3c0.2,0.1,0.3,0,0.5,0c1.2-0.5,2.4-1.2,4-1.3c-2,1.9-3.3,4-4.8,6.3c1.1-0.4,2-0.8,3-1.2
			c-4.4,4.4-6.7,10.2-10.1,15.3C80.3,68.2,78,62.5,73.3,58c1.2,0.4,2.2,0.7,3.4,1.4c-1.6-2.3-2.8-4.5-4.7-6.2c1.5-0.2,3.5,0.7,4.8,2
			c0.5,0.2,0.8,0.6,0.9,1c-0.4-0.9-0.1-2.1-0.5-3.1c0-0.8,0.3-0.6,0.6-0.2c0.6,0.8,1.1,1.6,1.3,2.2c-0.4-0.7-0.9-1.8-1.8-2.7
			c-0.3,0.3-0.2,0.6-0.1,0.8C77.1,53.8,78,54.5,77,55c-0.2-0.3-0.4-0.6-0.7-0.8c-3.6-2.6-5.2-6.2-5.8-10.4c-0.4-2.7-1-5.4-2.6-7.9
			c1.6,0.2,2.8,0.8,3.8,1.9c0.1,0.1,0.1,0.1,0.2,0.1c0.1-0.1,0.1-0.2,0-0.3c-2.5-2.7-3-6.2-3.5-9.6c-0.2-1.6-0.3-3.2-1-4.9
			c3.3,1.7,5.1,4.3,6,7.5c0.2,0.2,0.2,0.4,0.3,0.6c0,0.2,0,0.3,0,0.5c0-0.2,0-0.5,0-0.7c0-1.9,0.2-3.7,0.7-5.7
			c1.8,1.7,2.4,3.7,2.7,5.4c0-1.5-1.2-4.1-2.6-5.3c-0.6,0.9-0.4,1.9-0.7,2.8c-0.1,0.4,0.2,0.9-0.5,1c-0.7-1.6-1.5-3.2-2.8-4.5
			c-0.3-0.3-0.4-0.6-0.4-1c-0.1-3.8,0.9-7.2,3.6-9.8c1.6-1.6,3-3.2,3.6-5.6c0.3,1.6,0,3-1,4.5c-0.1,0.2-0.1,0.4-0.4,0.6
			C76.4,13.2,76.5,13,76.7,12.9z"/>
		<path fill="#FBF4C4" d="M125.5,142.3c5.1-3,10.7-4.6,16.3-6c0.3-0.1,0.6-0.2,0.9-0.3c1.3,3.4,2.3,6.9,3.3,10.3
			c1.9,6.6,3.8,13.1,6.5,19.4c2.1,4.9,4.5,9.6,6.7,14.4c0.8,1.7,2.2,2.9,3.4,4.3c2,2.4,3.8,4.9,4.4,8c0.7,3.6-0.3,6.6-2.9,9.2
			c-0.7,0.7-1.6,0.9-2.5,0.4c-1.6-0.7-2.5-2.1-3.3-3.5c-0.6-1.1-1.3-2.2-1.8-3.4c-0.1-0.1-0.1-0.3-0.2-0.4c-0.8-1-1.7-1.9-3.1-1.7
			c-1.3,0.2-1.5,1.4-1.8,2.4c-0.5,1.8-0.2,3.6,0.2,5.4c0.3,1.4,0.5,2.9,1.7,4c2.2,2.1,5.1,1.5,6.1-1.4c0.3-0.7,0.3-1.6,0.5-2.3
			c0.8,0.1,1.1,0.6,1.5,1c0.3,0.2,0.6,0.4,0.9,0.6c-1.1,4.5-5.4,6.4-8.7,5.5c-1-0.3-1.6-1-2.1-1.9c-1.5-2.7-2-5.7-2.4-8.7
			c-0.2-1.5-0.8-2.7-2.2-3.4c-1.3-0.7-2.6-0.4-3.4,0.9c-0.5,0.8-0.9,1.7-1,2.7c-0.2,2.3-0.5,4.5,0.4,6.7c0.9,2,2.5,3.2,4.7,3.5
			c1.3,0.2,2.4-0.3,3.3-1.4c0.6,0.8,1.1,1.6,2.1,2c-0.9,1-2.1,1.2-3.3,1.4c-2.2,0.4-4.3,0-6.3-1c-1.8-1-2.7-2.6-3.1-4.6
			c-0.5-3-0.5-6-0.5-9.1c0-1.4-0.3-2.7-1.4-3.8c-1.8-1.8-3.9-1.3-4.6,1.1c-0.8,2.9-0.5,5.6,1,8.2c1,1.7,2.4,2.8,4.7,2.5
			c0.3,1.1,0.3,2.2,0.8,3.2c-1,0.7-1.9,0.3-2.8-0.1c-3-1.6-4.7-4.2-5.7-7.4c-1.1-3.3-1.3-6.8-0.3-10.1c1.4-4.7,0.9-9.3-0.1-13.9
			c-1.4-6.4-3.1-12.8-4.5-19.2C126.4,151.5,125.4,146.9,125.5,142.3z"/>
		<path fill="#FBF4C4" d="M25.7,136.1c3.7,0.7,7.2,1.9,10.7,3.1c2.3,0.8,4.3,2,6.5,2.9c0.4,0.9,0,1.8,0,2.6
			c-0.6,5.3-1.5,10.5-2.8,15.6c-1.3,5.1-2.4,10.2-3.6,15.4c-0.7,2.9-0.9,5.9-0.8,8.8c0.1,2.2,0.9,4.3,1.2,6.4
			c0.7,4.9-0.2,9.5-3.5,13.3c-1.1,1.3-2.3,2.3-4,2.7c-0.5,0.1-1,0.1-1.5-0.2c0.3-1.1,0.6-2.1,0.7-3.2c3,0,4.9-1.6,5.8-4.9
			c0.5-2,0.6-4.1-0.1-6.1c-0.7-2-2.5-2.5-4.1-1.2c-1.2,1-1.7,2.3-1.7,3.9c0,1.9,0.2,3.8-0.1,5.7c-0.1-0.1-0.1-0.2-0.1-0.3
			c0-1.9,0-3.7,0-5.1c0.1,1.5-0.2,3.6,0.1,5.6c0,1.7-0.2,3.5-0.8,5c-1.1,2.7-3.5,3.7-6.2,4.1c-2,0.2-4.1,0-6.1-1.4
			c0.9-0.6,1.6-1.2,2.1-2.1c1.5,1.8,3.4,1.7,5.2,0.9c1.9-0.9,3.1-2.5,3.3-4.6c0.3-2.5,0.4-5-0.9-7.3c-1.1-2-3.4-2.1-4.8-0.3
			c-0.6,0.8-0.9,1.7-1.1,2.7c-0.2,2.3-0.7,4.6-1.6,6.8c-1.5,3.9-5,4.9-8.4,2.4c-1.3-1-2.2-2.3-2.9-3.7c-0.3-0.6-0.1-0.9,0.4-1.1
			c0.4-0.5,0.9-1,1.5-1.2c0.5,0.4,0.4,0.9,0.5,1.3c0.5,2.4,2.4,3.9,4.6,3.4c1.5-0.3,2.4-1.4,2.9-2.8c0.9-2.4,1.1-4.8,0.9-7.3
			c0-0.3-0.1-0.6-0.2-0.9c-0.4-1-0.8-1.9-2-2c-1.1-0.1-2,0.5-2.6,1.4c-0.8,1.2-1.4,2.5-2.1,3.7c-0.9,1.7-1.9,3.3-3.8,4.1
			c-1.4,0.3-2.3-0.6-3-1.5c-2.7-3.6-2.9-7.4-0.9-11.3c1-2,2.2-3.8,3.8-5.4c2-2,3.4-4.4,4.5-6.9c1.8-4.2,4-8.3,5.7-12.5
			c1.6-4,3-8.1,4.2-12.2c1.6-5.2,3-10.5,4.8-15.7C25.5,136.5,25.6,136.3,25.7,136.1z"/>
		<path fill="#584D46" d="M68.4,13.2c1,1,1.5,2.3,2.3,3.5c0.2,0.2,0.2,0.5,0.1,0.8c-0.9,2-1.3,4-1.1,6.3c-1-0.6-1.8-1.3-2.9-1.3
			c1.4,4.2,0.8,8.8,2.9,12.9c-1.1,0-1.8-0.6-2.8-0.4c-0.2,1,1.4,1.5,0.7,2.6c0,0,0,0,0,0c-0.5,0.3-1,0.7-1.5,1
			c-0.2,0.1-0.4,0.3-0.6,0.4l0,0c-2.1,1.5-4.3,2.9-6.2,4.6l0,0c-0.1,0.1-0.2,0.2-0.3,0.3l0,0c-0.1,0.1-0.2,0.2-0.3,0.3c0,0,0,0,0,0
			c-1,0.3-1.4,1.3-2.4,1.9c-1.5-1.1-2.5-2.6-3.6-4c-2.6-3.5-3.8-7.5-4.1-11.8c-0.2-3-0.5-5.9-0.2-8.9c1.2-1.2,2.8-1.7,4.3-2.3
			c4.4-2.1,9.1-3.7,13.7-5.4C67,13.2,67.7,12.8,68.4,13.2z"/>
		<path fill="#6D4639" d="M68.4,13.2c-3,0.8-5.9,2-8.9,3.1c-3.8,1.4-7.4,3.1-11,4.8c0-0.2,0-0.3,0-0.5c0.1-0.2,0-0.5,0.1-0.7
			c0-2.7,0.6-5.3,1.2-7.9c4.3-2.2,8.7-3.9,13.2-5.3C65.1,8.7,66.7,10.9,68.4,13.2z"/>
		<path fill="#6D4639" d="M119.9,21.1c-2-0.9-4-1.9-6.1-2.8c-4-1.8-8.2-3.3-12.4-4.8c-0.4-0.1-0.9-0.2-1.3-0.6c1.6-2.1,3-4.3,5-6
			c1-0.1,2,0.3,2.9,0.6c3.1,1.1,6.3,2.4,9.3,3.8c0.4,0.2,0.7,0.4,1.1,0.4C119.3,14.8,119.9,17.9,119.9,21.1z"/>
		<path fill="#F0A63E" d="M41.9,229.9c2.4,0.5,4.7,0,7-0.4c1.5-0.3,3.1-0.6,4.6-0.9c0.6-0.1,1.1,0,1.6,0.2c0.9,0.4,1.2,1,0.7,1.9
			c-0.6,1.1-1.5,1.9-2.4,2.7c-3.3,2.9-7.1,4.7-11.5,5.2c-0.4-2.9-0.7-5.8-0.4-8.7C41.7,229.8,41.8,229.8,41.9,229.9z"/>
		<path fill="#F0A63E" d="M126.4,238.6c-5.2-0.6-9.6-3-13.2-6.9c-0.1-0.1-0.2-0.2-0.3-0.4c-0.4-0.6-0.8-1.3-0.4-2
			c0.4-0.6,1.2-0.9,2-0.8c1.3,0.2,2.6,0.4,3.9,0.7c2,0.5,4,0.6,6,0.8c0.6,0.1,1.3,0,1.9-0.2c0.1-0.1,0.1-0.1,0.2-0.1
			c0.1,0,0.2,0.1,0.2,0.1C127.1,232.8,126.9,235.7,126.4,238.6z"/>
		<path fill="#C53F26" d="M43.9,209.1c2.9,0.2,5.8-0.6,8.6-1.1c0.8-0.2,1.7-0.5,2.6-0.2c1.4,0.4,1.7,1.2,0.9,2.4
			c-1,1.5-2.4,2.6-3.9,3.7c-2.9,2.1-6.1,3.4-9.7,3.8C42.7,214.8,43.2,211.9,43.9,209.1z"/>
		<path fill="#C53F26" d="M125.9,217.7c-5-0.7-9.1-2.9-12.7-6.4c-0.1-0.1-0.3-0.3-0.4-0.5c-0.5-0.7-1.2-1.4-0.7-2.2
			c0.6-0.9,1.6-1.1,2.7-0.9c2,0.4,3.9,0.8,5.9,1.1c1.3,0.2,2.5,0.2,3.8,0.3C125.3,212,125.7,214.8,125.9,217.7z"/>
		<path fill="#6E4639" d="M25.6,200.8c0.2,1.8-0.3,3.4-1.4,4.9c-1.2,1.6-3.7,2.4-5.3,1.7c-1.1-0.5-1.3-1-0.8-2.1
			c0.9-2.2,1.4-4.5,1.6-6.8c0-0.2,0-0.4,0.1-0.6c0.4-1.9,1.6-3.3,2.9-3.3c1.3,0,2.4,1.2,2.8,3.3C25.6,198.7,25.7,199.7,25.6,200.8z"
			/>
		<path fill="#6E4639" d="M143,200.9c0-1.5,0-2.7,0.3-3.8c0.6-1.8,1.5-2.7,2.6-2.7c1.3,0.1,2.6,1.5,2.8,3.2c0.3,1.9,0.5,3.7,1,5.5
			c0.2,0.7,0.4,1.4,0.7,2c0.5,1.2,0.3,1.8-1,2.2c-1.9,0.7-4.4-0.4-5.6-2.4C143,203.6,142.8,202.1,143,200.9z"/>
		<path fill="#F0A63E" d="M63.1,6.7c0,0.3-0.2,0.4-0.5,0.5c-4.2,1.2-8.2,2.9-12.2,4.8c-0.2,0.1-0.4,0.3-0.6,0
			C50.4,9.6,51.1,7.3,52,5c1.2-2.9,2.8-3.5,5.6-2.1C59.6,3.9,61.4,5.2,63.1,6.7z"/>
		<path fill="#F0A63E" d="M118.6,11.7c-0.2,0.8-0.6,0.2-0.9,0.1c-2.9-1.4-5.9-2.6-8.9-3.7c-1.2-0.4-2.3-0.8-3.5-1.2
			c1.8-1.8,3.9-3.3,6.2-4.3c2.1-0.9,3.5-0.5,4.6,1.5C117.3,6.5,117.9,9.1,118.6,11.7z"/>
		<path fill="#6E4639" d="M139.7,198.4c0,1.2,0,2.5,0,3.7c0,0.9-0.4,1.1-1.1,0.9c-1.1-0.2-1.9-0.8-2.5-1.7c-1.9-2.8-2.4-5.8-1.4-9
			c0.5-1.7,2.5-1.8,3.9-0.3c0.7,0.8,1.1,1.7,1.1,2.7c0,0.6,0,1.2,0,1.8S139.6,197.8,139.7,198.4
			C139.6,198.4,139.6,198.4,139.7,198.4z"/>
		<path fill="#6D4639" d="M121.6,197.5c-3.2-1-6-2.7-8.4-4.9c-0.5-0.4-0.9-0.9-1.3-1.4c-0.5-0.6-1-1.3-0.5-2c0.5-0.7,1.3-1,2.2-0.8
			c1.9,0.3,3.8,0.7,5.7,1.1C120.3,192,121.1,194.7,121.6,197.5z"/>
		<path fill="#6D4639" d="M49.1,188.9c0,0.6,0.4,0.5,0.7,0.4c1.2-0.3,2.4-0.5,3.6-0.8c0.6-0.1,1.2-0.3,1.8-0.3
			c0.7,0,1.5,0.2,1.8,0.9c0.3,0.6,0.1,1.2-0.3,1.7c-2.6,3.1-5.7,5.5-9.7,6.5c-0.2-0.9,0.3-1.7,0.5-2.6
			C48,192.8,48.6,190.8,49.1,188.9z"/>
		<path fill="#6E4639" d="M34.3,195.4c0,2.1-0.5,4-1.7,5.8c-0.7,1-1.5,1.7-2.8,1.9c-0.7,0.1-1.2-0.1-1.1-0.9
			c0.4-2.6,0.1-5.2,0.2-7.8c0.1-1.6,0.9-2.6,2.3-3.2c1.1-0.5,2.1,0,2.5,1.1c0.2,0.5,0.3,1.1,0.4,1.6
			C34.3,194.4,34.3,194.9,34.3,195.4z"/>
		<path fill="#C63F26" d="M80.3,75c0-2.1,0-4.1,0-6.2c1.1,1.7,1.9,3.7,3.4,5.4c2-2.1,2.9-4.8,4.5-7.1c0,2.4,0,4.7,0,7.1
			c0,0.3-0.1,0.5-0.2,0.8c-0.2,0.3-0.6,0.4-0.9,0.4c-1.9,0-3.9,0-5.8,0C80.9,75.4,80.6,75.4,80.3,75z"/>
		<path fill="#FDFDD3" d="M100.3,319C100.3,318.9,100.3,318.9,100.3,319c1.5,1.3,3.4,0.9,5.1,0.9c10.5,0,21.1,0,31.6,0
			c1.1,0,2.1-0.3,3.1-0.3c-0.9,0.8-2,0.8-3,0.8c-11.4,0-22.8,0-34.2,0C101.7,320.4,100.8,319.9,100.3,319z"/>
		<path fill="#FDFDD3" d="M28.7,319.9c0.7-0.4,1.4,0,2.2,0c11.5,0,23.1,0,34.6,0c0.5,0,1-0.2,1.4,0.2c-0.4,0.3-0.8,0.3-1.3,0.3
			c-11.4,0-22.8,0-34.2,0c-0.8,0-1.5,0-2.2-0.3C29.1,320,28.9,320,28.7,319.9L28.7,319.9z"/>
		<path fill="#F8F7CD" d="M95.7,270.6c0-0.3,0.1-0.5,0.1-1.2c0.5,2.9,0.7,5.4,0.9,8c0.3,3.5,0.6,6.9,0.9,10.4
			c0.1,1.7,0.2,3.4,0.2,5.1c0.1,3.5,0.3,7.1,0.4,10.6c0.1,4.5,0.2,9,1.3,13.3c0.1,0.3,0.1,0.5-0.2,0.6c0,0,0,0,0,0
			c-0.1-0.1-0.1-0.3-0.2-0.5c-0.1-0.1-0.1-0.1,0-0.2c-0.2-0.2,0-0.5-0.2-0.8c0-0.1,0-0.2-0.1-0.3c-0.1-0.3,0-0.6-0.2-0.9
			c-0.1-0.2-0.1-0.4,0-0.6c-0.2-0.4,0-0.9-0.2-1.3c-0.4-3.4-0.8-6.8-0.8-10.2c0-4.7-0.2-9.3-0.5-14c0-0.5,0-1,0-1.4
			c-0.3-0.6,0.1-1.3-0.2-2c-0.1-0.3-0.1-0.5,0-0.8c-0.3-0.8,0.1-1.7-0.2-2.5c-0.1-0.3-0.2-0.5,0-0.8c-0.2-0.7,0-1.4-0.2-2.1
			c0-0.4,0-0.8-0.1-1.1c-0.2-0.6,0.1-1.3-0.2-2c0-0.4,0-0.7-0.1-1.1c-0.2-0.7,0.1-1.4-0.2-2c-0.1-0.1-0.1-0.1,0-0.2
			c-0.3-0.5,0.1-1-0.2-1.5C95.6,271,95.6,270.8,95.7,270.6z"/>
		<path fill="#090705" d="M6.4,202.3c2.4-1.6,3.5-4.1,4.8-6.6c0.5-1,1.1-2,2.2-2.6c1.6-0.9,2.8-0.5,3.6,1.2c0.9,1.9,0.6,3.8,0.3,5.8
			c-0.1,0.9-0.4,1.9-0.7,2.8c-0.6,2.3-2.5,3.8-4.5,3.6c-2.2-0.3-3.7-2-3.8-4.5c0-0.2,0-0.3,0-0.6c-0.7,0.2-1,0.9-1.7,1.1
			C6.6,202.4,6.5,202.4,6.4,202.3z"/>
		<path fill="#0A0706" d="M161.5,202.3c-0.5-0.1-0.8-0.7-1.3-0.9c0,1-0.1,1.9-0.6,2.8c-1.5,2.9-5.2,3.3-6.9,0.5
			c-1.8-3.1-2.4-6.5-1.3-10c0.7-2.1,2.1-2.5,3.9-1.4c0.8,0.5,1.2,1.1,1.6,1.9c0.5,0.9,1,1.9,1.5,2.8c0.8,1.6,1.8,3,3.2,4.1
			C161.6,202.1,161.5,202.2,161.5,202.3z"/>
		<path fill="#1A0805" d="M73.6,31c-0.1-0.2-0.1-0.3-0.2-0.5c0.5-0.5,0-0.9,0-1.4c0.5-1.4,0.5-2.9,0.8-4.6c2.2,2,3,4.5,3.1,7.2
			c-0.6-2.2-1-4.5-2.8-6.4c-0.4,1.9-0.8,3.7-0.7,5.6C73.7,31.1,73.7,31.1,73.6,31z"/>
		<path fill="#0E0C0B" d="M115.1,52.3c-0.6-0.9-1.1-1.9-1.5-3c-0.8-2.2-2.3-3.8-4-5.3c-0.4-0.4-0.8-0.9-1.2-1.3l0.1-0.1
			c1.4,0.8,2.3,2.2,3.5,3.1c0.6-0.2,0.9-0.9,1.5-1.2c0.1,0.1,0.1,0.1,0.2,0.2c-0.4,0.5-1,0.8-1.3,1.5c1.4,1.8,1.9,4,3.1,6
			C115.3,52.4,115.2,52.4,115.1,52.3z"/>
		<path fill="#B7B3A8" d="M57.3,136.1c0.4,0.4,0.2,0.8,0.2,1.2c0,4.6,0,9.3,0,13.9c-0.2,0.1-0.3,0-0.3-0.1c0-0.7-0.1-1.5,0.1-2.2
			c-0.1-1.6-0.1-3.2,0-4.8C57.1,141.4,57.1,138.7,57.3,136.1z"/>
		<path fill="#F5F4CD" d="M71.5,286.3c-0.3-0.2-0.3-0.6-0.2-0.9c0.2-2.4,0.3-4.8,0.7-7.3c0,0.3,0.1,0.7,0.1,1
			C71.9,281.6,71.8,283.9,71.5,286.3z"/>
		<path fill="#13110F" d="M56.1,47c-0.8,1.7-1.7,3.4-2.5,5.1c0.2,0.3,0.4-0.1,0.7,0.1c-0.4,0.4-0.9,0.6-1.8,0.5
			c1.8-1.7,1.9-4.2,3.4-5.9C55.9,46.9,56,46.9,56.1,47z"/>
		<path fill="#574C45" d="M158.1,208.7c0.6-0.3,1.1-0.6,1.7-0.9c0.1,1.2-0.1,1.6-1.1,2.4C158.4,209.8,158.2,209.3,158.1,208.7z"/>
		<path fill="#5A4E47" d="M8.7,207.9c0.6,0.3,1.1,0.6,1.7,0.9c0,0.6-0.3,1-0.5,1.4C8.9,209.8,8.6,209.1,8.7,207.9z"/>
		<path fill="#534942" d="M149.1,213.1c-0.4-0.7-0.7-1.4-1.1-2.1c0.7-0.1,1.2-0.1,1.8-0.1C149.9,211.7,149.7,212.4,149.1,213.1z"/>
		<path fill="#BAB6AA" d="M111.3,143.3c-0.4-3.4-0.4-6.7,0-10.1c0.2,1,0.1,2,0,3C111.3,138.5,111.3,140.9,111.3,143.3z"/>
		<path fill="#5A4F48" d="M19.3,213c-0.5-0.6-0.7-1.3-0.6-2.2c0.5,0,1.1,0,1.7,0.1C20.1,211.8,19.8,212.4,19.3,213z"/>
		<path fill="#B6B2A6" d="M57.3,151.2c0.1,0,0.2,0,0.2,0c-0.5,1.4-0.1,2.9-0.4,4.3c-0.2,1-0.2,2-0.4,3.1c0-0.3-0.1-0.7-0.1-1
			c0-0.3,0.1-0.6,0.1-0.9c0.2-0.4,0-0.9,0.2-1.3c0-0.3,0-0.6,0.1-0.9c0.2-0.6,0-1.2,0.2-1.8c-0.1-0.5-0.1-1,0.1-1.6
			C57.2,151.1,57.2,151.1,57.3,151.2z"/>
		<path fill="#1A0805" d="M88.5,22.3c-0.8,0.9-0.5,2-0.6,3c0,0.3,0.2,0.6-0.2,1.1c-0.4-1.8-0.2-3.3,0.3-4.8c0.5-0.1,0.5,0.2,0.6,0.5
			C88.6,22.2,88.5,22.3,88.5,22.3z"/>
		<path fill="#290D08" d="M77.3,53c0.4,1.3,0.3,2.7,0.7,4c-0.4-0.6-0.8-1.3-1.2-1.9c0.1-0.1,0.1-0.1,0.2-0.2c0.6-0.6-0.1-1.3,0-1.9
			C77.1,52.9,77.2,52.9,77.3,53z"/>
		<path fill="#594E47" d="M136.3,206.5c1.9,0.7,2,0.9,1.3,2.1C136.8,208.1,136.6,207.3,136.3,206.5z"/>
		<path fill="#5A4F48" d="M32.3,206.4c-0.4,0.8-0.6,1.6-1.3,2.2C30.2,207.4,30.2,207.4,32.3,206.4z"/>
		<path fill="#B7B3A8" d="M126.7,229.9c-0.1,0-0.2,0-0.2,0c0-2.1,0-4.1-0.2-6.2c-0.1-0.4-0.2-0.9,0.2-1.2l0,0c0.2,0.3,0.1,0.6,0,0.9
			l0,0c0.2,0.4,0,0.9,0.2,1.3c0.1,0.6,0.2,1.2,0,1.8C126.8,227.6,126.9,228.7,126.7,229.9z"/>
		<path fill="#BEBAAE" d="M40.4,83.7c0.2,0,0.3,0,0.6,0.1c-1.2,0.5-2.3,0.4-3.4,0.4c-0.4,0.4,0.5,0.4,0.1,0.7
			c-0.7,0-0.9-0.6-1.3-1.1C37.8,84.1,39.1,83.7,40.4,83.7z"/>
		<path fill="#B1ADA2" d="M57.3,136.1c0,2.7,0,5.3,0,8c-0.4-1.8-0.1-3.7-0.2-5.5c0-0.8,0-1.7,0-2.5C57.1,136,57.2,136,57.3,136.1
			L57.3,136.1z"/>
		<path fill="#574C45" d="M3.6,203.7c-0.6-0.7-0.8-1.4-0.7-2.3c0.4,0.6,0.8,1,1.1,1.5C4.2,203.1,4,203.4,3.6,203.7z"/>
		<path fill="#BCB8AD" d="M41.9,229.9c-0.1,0-0.3,0-0.4,0c0.1-1,0.1-2.1,0.2-3.1c0.3-1.1-0.1-2.2,0.2-3.2c0-0.1,0-0.1,0-0.1
			c0.5,1,0.3,2.1,0.2,3.1C42,227.7,42,228.8,41.9,229.9z"/>
		<path fill="#B4B0A5" d="M111.3,136.2c0-1,0-2,0-3c0-1.3,0-2.7,0-4c0.1,0,0.1,0,0.2,0c0,0.6,0.1,1.2,0.1,1.7
			C111.6,132.7,111.6,134.4,111.3,136.2z"/>
		<path fill="#F5F4CD" d="M72.7,271.9c-0.5-0.5-0.2-1.1-0.1-1.7c0.2-1,0.2-1.9,0.5-2.9c0,0.3,0.1,0.7,0.1,1
			C73.1,269.6,73,270.8,72.7,271.9z"/>
		<path fill="#F5F4CD" d="M72.2,277.7c-0.5-0.9-0.2-1.8-0.2-2.7c0-0.7,0.2-1.4,0.2-2.2c0.4,0.4,0.2,0.8,0.3,1.1
			C72.5,275.1,72.3,276.4,72.2,277.7z"/>
		<path fill="#BFBBAF" d="M33.6,102.5c0.7,1.1-0.1,2.1-0.1,3.2c0,0.5-0.2,1-0.4,1.8c-0.1-0.4-0.1-0.6-0.1-0.8
			C33,105.3,33.4,103.9,33.6,102.5z"/>
		<path fill="#B4B0A5" d="M56.3,121.7c0-0.7,0-1.3,0-2c0.1,0,0.2,0,0.3,0c0,1.2,0,2.4,0,3.6c0.1,1,0.2,2,0,2.9
			C56.3,124.8,56.3,123.2,56.3,121.7z"/>
		<path fill="#1B1B18" d="M42.9,144.7c0-0.9,0-1.8,0-2.6c0.1-0.9,0.2-1.8,0.3-2.7c0.1,0,0.1,0,0.2,0c0,1.1,0,2.1,0,3.2
			c0.1,0.2,0.1,0.3-0.1,0.5C42.9,143.5,43.4,144.2,42.9,144.7z"/>
		<path fill="#5A4F48" d="M164.9,203.7c-0.7-0.9-0.7-0.9,0.6-2.1C165.7,202.4,165.5,203.1,164.9,203.7z"/>
		<path fill="#FEFEE2" d="M28.3,201.1c-0.5-0.8-0.2-1.7-0.2-2.6c-0.1-1.3,0-2.6,0.2-3.9c0,2.1,0,4.2,0,6.3
			C28.3,201,28.3,201,28.3,201.1z"/>
		<path fill="#B5B1A6" d="M57.3,136.1l-0.1,0l-0.1,0c0-0.8,0-1.7,0-2.5c-0.2-0.8-0.1-1.7-0.1-2.6c0-0.1,0.1-0.1,0.1-0.2
			c0.5,1.1,0.1,2.3,0.2,3.5C57.3,134.9,57.3,135.5,57.3,136.1z"/>
		<path fill="#E7E6C6" d="M124.2,143c0.2-0.1,0.5-0.2,0.6-0.5c0-0.1,0.1-0.1,0.2-0.1c0.1,0.1,0.1,0.2,0.2,0.4
			c-0.1,0.6-0.1,1.2-0.2,1.9C124.5,144.2,124.3,143.7,124.2,143z"/>
		<path fill="#F5F3D0" d="M43.3,143c0-0.2,0.1-0.3,0.1-0.5c0.4,0.2,0.7,0.5,0.7,1c-0.2,0.4-0.3,0.7-0.5,1.1c-0.1,0-0.1,0-0.2,0
			C43.4,144.1,43.4,143.5,43.3,143z"/>
		<path fill="#B4B0A5" d="M112,126.2c-0.5-1.5,0-3-0.2-4.5c0.3,0.6,0.1,1.2,0.2,1.7C112.1,124.3,112.2,125.3,112,126.2z"/>
		<path fill="#FEFEDD" d="M39.8,308.3c-0.1,0.1-0.3,0.1-0.3,0c0-1.4,0-2.8,0.2-4.2c0,0.4,0.1,0.8,0.1,1.3
			C39.8,306.3,39.8,307.3,39.8,308.3z"/>
		<path fill="#5D5A55" d="M125.2,142.8c-0.1-0.1-0.1-0.2-0.2-0.3c-0.1-1.2-0.2-2.4,0.1-3.6c0.4,0.2,0.5,0.6,0.4,1
			c-0.2,0.6,0.1,1.3-0.1,1.9C125.2,142.2,125.2,142.5,125.2,142.8z"/>
		<path fill="#C5C0B4" d="M131.5,84.5c-0.8-0.5-1.8-0.1-2.6-0.3c0.2-0.3,0.5-0.1,0.8-0.2c0.8,0,1.5,0,2.3,0
			C132,84.2,131.7,84.3,131.5,84.5z"/>
		<path fill="#C5C0B4" d="M56.5,126.3c0-1,0-2,0-2.9c0.5,1.3,0.1,2.7,0.2,4.1c0,0-0.1,0.1-0.1,0.1c0,0-0.1-0.1-0.1-0.1
			C56.6,127.1,56.6,126.7,56.5,126.3z"/>
		<path fill="#3C3A37" d="M71.2,235.9c-0.5-0.7-0.9-1.6-1.3-2.4c0.1-0.1,0.2-0.1,0.3,0c0.4,0.7,0.8,1.4,1.2,2.2
			C71.4,235.8,71.3,235.8,71.2,235.9z"/>
		<path fill="#191817" d="M97.6,235.2c-0.3,0.7-0.6,1.3-0.9,2c-0.1-0.3-0.6-0.4-0.5-0.8c0.2,0.1,0.3,0.4,0.5,0
			c0.2-0.5,0.5-0.9,0.7-1.3C97.6,234.9,97.8,235,97.6,235.2z"/>
		<path fill="#B1ADA2" d="M126.7,229.9c0-1.2,0-2.3,0-3.5c0.3,1.2,0.2,2.3,0.2,3.5C126.8,229.9,126.7,229.9,126.7,229.9z"/>
		<path fill="#B5B1A5" d="M56.8,127.4c0.5,1.1,0.1,2.2,0.2,3.4c0,0,0,0,0,0c-0.1,0.1-0.2,0.1-0.2,0c0-0.5,0-1.1,0-1.6
			C56.7,128.6,56.6,128,56.8,127.4L56.8,127.4z"/>
		<path fill="#B1ADA2" d="M41.9,223.6c0,1.1,0.2,2.2-0.2,3.2C41.7,225.7,41.6,224.6,41.9,223.6z"/>
		<path fill="#B1ADA2" d="M56.8,130.8c0.1,0,0.2,0,0.2,0c0,0.9,0,1.8,0,2.7C56.7,132.6,57,131.7,56.8,130.8z"/>
		<path fill="#43150D" d="M76.7,12.9c-0.3,0.4-0.6,0.8-1.2,1.2c0.3-0.7,0.6-1.1,1-1.4C76.6,12.8,76.6,12.8,76.7,12.9z"/>
		<path fill="#1F1D1B" d="M109.8,80.9c-0.3-0.6,0.3-1,0.5-1.4c0.1,0.1,0.1,0.2,0.2,0.2C110.3,80.1,110.1,80.5,109.8,80.9z"/>
		<path fill="#4F190F" d="M81.3,12.2c-0.5,0.2-1,0.5-1.5,0.7c0.3-0.5,0.7-0.7,1.2-0.9C81.2,12.1,81.2,12.2,81.3,12.2z"/>
		<path fill="#FBF4C4" d="M96.7,282c0.5,0.8,0.1,1.7,0.2,2.5C96.7,283.7,96.6,282.8,96.7,282z"/>
		<path fill="#B1ADA2" d="M57.3,151.2c-0.1,0-0.1,0-0.2,0c0-0.8-0.1-1.5,0.2-2.3C57.3,149.7,57.3,150.4,57.3,151.2z"/>
		<path fill="#1D1C1B" d="M52.7,107.3c-0.3-0.5-0.3-1-0.2-1.7c0.3,0.5,0.4,1,0.5,1.5C52.9,107.1,52.8,107.2,52.7,107.3z"/>
		<path fill="#1F1C1A" d="M58.3,79.7c0.3,0.4,0.8,0.8,0.5,1.4c-0.2-0.4-0.5-0.8-0.7-1.2C58.1,79.8,58.2,79.7,58.3,79.7z"/>
		<path fill="#FBF4C4" d="M96.9,285.3c0.4,0.6,0.2,1.3,0.2,2C96.9,286.7,96.9,286,96.9,285.3z"/>
		<path fill="#FBF4C4" d="M96.5,279.1c0.4,0.7,0.1,1.4,0.2,2.1C96.4,280.5,96.4,279.8,96.5,279.1z"/>
		<path fill="#FBF4C4" d="M96.2,276c0.4,0.6,0.1,1.3,0.2,2C96.1,277.3,96.3,276.7,96.2,276z"/>
		<path fill="#FBF4C4" d="M96,272.9c0.4,0.6,0.2,1.3,0.2,2C95.9,274.2,95.9,273.5,96,272.9z"/>
		<path fill="#22211F" d="M125.3,141.8c0-0.6-0.2-1.3,0.1-1.9c0,0.6,0,1.3,0,1.9C125.4,141.8,125.3,141.8,125.3,141.8z"/>
		<path fill="#43150D" d="M91.6,54.2c-0.3,0.2-0.6,0.5-1.2,0.9c0.3-0.7,0.5-0.9,1-1.1C91.5,54.1,91.6,54.2,91.6,54.2z"/>
		<path fill="#B1ADA2" d="M57,152.7c0,0.6,0.2,1.2-0.2,1.8C56.9,153.9,56.8,153.3,57,152.7z"/>
		<path fill="#B1ADA2" d="M56.8,127.4c0,0.6,0,1.2,0,1.8c-0.3-0.6-0.1-1.2-0.2-1.8C56.7,127.4,56.7,127.4,56.8,127.4z"/>
		<path fill="#FBF4C4" d="M95.7,271.2c0.4,0.4,0.2,1,0.2,1.5C95.7,272.2,95.7,271.7,95.7,271.2z"/>
		<path fill="#CFCABD" d="M126.2,220c0,0.3-0.1,0.7-0.1,1c-0.2-0.4-0.3-0.8,0.1-1.2C126.2,219.9,126.2,219.9,126.2,220z"/>
		<path fill="#FBF4C4" d="M98.4,312.9c0.4,0.4,0.2,0.9,0.2,1.3C98.3,313.9,98.4,313.4,98.4,312.9z"/>
		<path fill="#B1ADA2" d="M126.6,224.6c-0.4-0.4-0.2-0.9-0.2-1.3C126.8,223.7,126.7,224.2,126.6,224.6z"/>
		<path fill="#B1ADA2" d="M56.8,155.4c0,0.4,0.2,0.9-0.2,1.3C56.6,156.3,56.6,155.8,56.8,155.4z"/>
		<path fill="#4C180F" d="M71.9,37.4c0.2,0.1,0.3,0.3,0.4,0.6c-0.4,0.1-0.5-0.2-0.6-0.4C71.8,37.6,71.9,37.5,71.9,37.4z"/>
		<path fill="#3D3C38" d="M115.7,106.1c0-0.3,0.1-0.5,0.2-0.6c0.2,0.1,0.2,0.3,0.1,0.4C115.9,105.9,115.8,106,115.7,106.1z"/>
		<path fill="#584D46" d="M48.6,19.9c0,0.2,0.1,0.5-0.1,0.7C48.4,20.3,48.4,20.1,48.6,19.9z"/>
		<path fill="#FBF4C4" d="M98.8,316.1c0.3,0.2,0.2,0.5,0.2,0.8C98.9,316.6,98.8,316.3,98.8,316.1z"/>
		<path fill="#FBF4C4" d="M98.6,314.9c0.3,0.2,0.2,0.6,0.2,0.9C98.6,315.5,98.6,315.2,98.6,314.9z"/>
		<path fill="#B1ADA2" d="M126.4,223.3c0-0.3,0-0.6,0-0.9C126.6,222.7,126.6,223,126.4,223.3z"/>
		<path fill="#62604D" d="M37.4,300c0.2,0,0.3,0.1,0.2,0.3c0,0.1-0.1,0.1-0.2,0C37.4,300.2,37.4,300.1,37.4,300z"/>
		<path fill="#FBF4C4" d="M99.1,317c0.2,0.1,0.2,0.3,0.2,0.5C99.1,317.4,99.1,317.2,99.1,317z"/>
		<path fill="#FBF4C4" d="M28.8,319.9c0.2,0,0.4,0,0.5,0.2C29,320.1,28.9,320.1,28.8,319.9z"/>
		<path fill="#B1ADA2" d="M124.3,253c0-0.2,0-0.4,0-0.5C124.6,252.6,124.4,252.8,124.3,253z"/>
		<path fill="#C53F26" d="M44,208.7C44,208.7,44,208.7,44,208.7C44,208.7,44,208.7,44,208.7z"/>
		<path fill="#6D4639" d="M47,197.3c-0.1,0.1-0.1,0.2-0.2,0.3C46.9,197.4,46.9,197.4,47,197.3z"/>
		<path fill="#494949" d="M50.3,65.8c0-0.1,0.1-0.1,0.1-0.2C50.5,65.8,50.3,65.7,50.3,65.8C50.3,65.8,50.3,65.8,50.3,65.8z"/>
		<path fill="#3D3C38" d="M116,106.3c0,0.1-0.1,0.2-0.1,0.3C115.9,106.5,116,106.4,116,106.3z"/>
		<path fill="#050404" d="M91.1,169.9c-0.9,2.1-1.8,4.2-3.4,6c-0.3,0.3-0.5,0.6-0.8,0.9c-2,2-3.5,2-5.4,0c-1.7-1.8-2.9-3.9-3.8-6.1
			c-0.1-0.2-0.2-0.4-0.2-0.5c-0.1-0.3-0.2-0.6-0.3-0.9c-0.3-2.1-0.3-4.1,0.7-6.1c1-1.9,2.5-3.2,4.6-3.8c1.2-0.9,2.4-0.6,3.6,0
			c4,1.8,5.4,4,5.3,8.3c0,0.4,0,0.9,0,1.3C91.3,169.3,91,169.5,91.1,169.9z"/>
		<path fill="#0F0D0C" d="M105.3,88.8c-1.3,1.4-2.3,3.1-3.5,4.7c-0.6-1.2-0.7-2.3-0.5-3.5c0.3,0.8,0.2,1.7,0.7,2.7
			c1.5-2,3-3.8,3.9-6.1c0.5,0,0.3,0.5,0.7,0.7c0.6-1.2,1.1-2.5,1.7-3.7c0,0,0.1,0,0.1-0.1c0.1,0.1,0.1,0.2,0.2,0.3
			c-0.6,1.5-1.3,3-2,4.6c-0.2-0.3-0.4-0.6-0.6-0.9C105.7,88,105.5,88.4,105.3,88.8z"/>
		<path fill="#C4C0B4" d="M110.9,149.5c0-1.9,0-3.8,0-5.7c0,0,0.1,0,0.1,0C111,145.7,111,147.6,110.9,149.5
			C110.9,149.5,110.9,149.5,110.9,149.5z"/>
		<path fill="#CBC6BA" d="M125,138.9c0,1.2,0,2.4-0.1,3.6c-0.1,0-0.1,0-0.2,0C124.9,141.4,124.4,140.1,125,138.9z"/>
		<path fill="#474541" d="M97.6,235.2c-0.1-0.1-0.1-0.2-0.2-0.2c0.3-0.6,0.6-1.3,1.1-1.7l0,0C98.4,234,98.1,234.6,97.6,235.2z"/>
		<path fill="#727069" d="M98.6,233.2c0-0.6,0.4-0.9,0.8-1.3C99.3,232.5,99.1,233,98.6,233.2C98.6,233.3,98.6,233.2,98.6,233.2z"/>
		<path fill="#110F0E" d="M59.9,83.5c0.6-0.1,0.5,0.5,0.6,0.7c0.5,1,0.9,1.9,1.4,2.9c0.5,0.1,0.3-0.5,0.6-0.7c0.9,2.3,2.5,4.1,4,6.2
			c0.7-0.9,0.1-2.1,0.7-3c0.2,1.4,0,2.6-0.6,3.9c-1.3-1.8-2.5-3.4-3.7-5c-0.1-0.3-0.3-0.6-0.4-0.9c-0.4,0.1-0.2,0.5-0.7,0.7
			C61.3,86.7,60.6,85.1,59.9,83.5z"/>
		<path fill="#878077" d="M65.5,101c0.1,0,0.1,0,0.2,0c0.3,1.7,0.2,3.4,0,5c-0.1,0-0.1,0-0.2,0c0,0-0.1,0-0.1,0
			c-0.1-1.6-0.1-3.2,0-4.8C65.5,101.2,65.5,101.1,65.5,101z"/>
		<path fill="#C0BEB2" d="M65.4,101.3c0,1.6,0,3.2,0,4.8C65.1,104.5,65.1,102.9,65.4,101.3z"/>
		<path fill="#7A776F" d="M70.2,233.5c-0.1,0-0.2,0-0.3,0c-0.5-0.5-0.8-1.1-1-1.7C69.5,232.3,69.9,232.9,70.2,233.5z"/>
		<path fill="#C53F26" d="M86.1,159.3c-1.2-0.1-2.4-0.3-3.6,0c-0.2-6.7-1-13.3-4.1-19.4c-1.8-3.5-4.2-6.5-7-9.2
			c-0.2-0.2-0.4-0.3-0.8-0.6c2.4-2.1,4.2-4.5,6-6.9c1.9-2.7,2.9-5.7,3.1-9c0.3-5.9-2.2-10.8-4.7-15.8c-0.2-0.3-0.4-0.6-0.4-1
			c1.3,0.5,2.1,1.6,3.1,2.5c1.7,1.5,3.6,2.8,5.4,4.1c0.8,0.5,1.5,0.5,2.2,0c2.4-1.5,4.6-3.3,6.7-5.2c0.4-0.4,0.7-1,1.3-0.8
			c0.4,0.5-0.1,0.8-0.3,1.2c-1.9,3.7-3.6,7.4-4.2,11.5c-0.7,4.8,0.3,9.1,3.2,13c1.7,2.2,3.4,4.5,5.6,6.4c-2.1,1.8-3.8,4-5.4,6.2
			c-2.9,3.8-4.5,8.1-5.3,12.8C86.5,152.5,85.9,155.9,86.1,159.3z"/>
		<path fill="#C53F26" d="M74.1,96c2.4-2.5,3.8-5.6,4.8-8.9c1.1-3.7,1.2-7.6,1.2-11.5c0.2-0.3,0.5-0.3,0.8-0.3c2.2,0,4.4,0,6.6,0
			c0.3,0,0.6,0,0.8,0.3c0.2,4.5,0.4,9,1.9,13.4c1,2.7,2.5,5,4.1,7.2c0.1,0.4-0.1,0.6-0.3,0.8c-2.6,2.8-5.6,5.3-8.9,7.4
			c-0.6,0.4-1.2,0.4-1.9,0c-2-1.3-4-2.7-5.8-4.4c-1.1-1-2.3-1.9-3.2-3.2C74.1,96.6,73.8,96.4,74.1,96z"/>
		<path fill="#0F0807" d="M74.1,96c0.1,0.6,0.5,1.1,0.9,1.5c2.5,2.5,5.1,4.7,8.1,6.6c0.8,0.5,1.5,0.5,2.3,0c2.8-1.8,5.3-3.9,7.7-6.3
			c0.5-0.5,1-1,1.2-1.6c0.2-0.3,0.3-0.6,0.6-1.1c0.3,1.1-0.1,2-0.1,3.3c1.9-2.3,4-3.9,5.4-6.2c-1.1,2.8-3.7,4.5-5.5,7
			c-0.4-0.8-0.1-1.4-0.3-2.2c-0.4,0.4-0.7,0.8-1,1.1c-2.4,2.3-4.9,4.5-7.8,6.3c-1,0.6-1.8,0.6-2.7,0c-3-2-5.7-4.3-8.3-6.8
			c-0.1-0.2-0.2-0.3-0.4-0.5c-0.3,0.7,0.1,1.4-0.4,2c-1.8-2.4-4.5-4.2-5.6-7.1c1.3,2.4,3.5,4.1,5.3,6.1c0.1-0.9,0.2-1.8,0-2.6
			C74,95.3,73.8,95.9,74.1,96z"/>
		<path fill="#161311" d="M97.8,102.3c0.3,3.8,0.7,7.6,1.6,11.3c0.6,2.1,1.6,3.7,3.7,4.5c0.4,0.2,0.8,0.4,1.1,0.7
			c-2.3-0.8-4.2-1.8-4.9-4.4c-1-3.9-1.7-7.8-1.7-11.9C97.5,102.2,97.6,102.2,97.8,102.3z"/>
		<path fill="#0D0604" d="M88.3,75.6c-2.7,0-5.4,0-8.1,0c-0.4-0.1-1,0.1-1.2-0.5c0.5-0.3,1,0.1,1.4-0.1c2.6,0.2,5.1,0.1,7.7,0
			c0.5,0.2,1-0.3,1.6,0C89.3,75.8,88.7,75.5,88.3,75.6z"/>
		<path fill="#13110F" d="M110.8,60.9c1.2-1.7,1.9-3.6,2.7-5.5l0,0c-0.2,2.2-1.1,4-2.6,5.6C110.8,61,110.8,60.9,110.8,60.9z"/>
		<path fill="#191614" d="M113.5,55.4c0-0.2-0.1-0.4-0.1-0.8c0.5,0.5,0.8,0.8,1.2,1.3c0.3-1-0.3-1.8-0.4-3c0.9,1.3,1,2.3,0.6,3.6
			C114.1,56.4,114,55.6,113.5,55.4C113.5,55.4,113.5,55.4,113.5,55.4z"/>
		<path fill="#100E0D" d="M106.5,41.3c-1.6-0.9-3.2-1.9-4.6-3.1l0.1-0.1C103.6,39,105.2,40,106.5,41.3L106.5,41.3z"/>
		<path fill="#141210" d="M110.9,61c-0.5,1.1-1.5,1.8-2.6,2.4c0.8-0.8,1.6-1.7,2.5-2.5C110.8,60.9,110.8,61,110.9,61z"/>
		<path fill="#0B0909" d="M91.8,74.8c-0.4,0.5-0.9,0.6-1.7,0.3C90.7,74.7,91.2,74.9,91.8,74.8z"/>
		<path fill="#141210" d="M92.8,74.8c0.5-0.5,1-0.4,1.5-0.5C93.9,74.7,93.5,75,92.8,74.8z"/>
		<path fill="#3C3430" d="M97.8,102.3c-0.1,0.1-0.2,0.1-0.2,0.2c-0.3-0.3-0.3-0.7-0.1-1.1C98.1,101.6,97.8,102,97.8,102.3z"/>
		<path fill="#141210" d="M115.1,52.3c0.1,0,0.2,0,0.3,0c0,0,0,0,0,0c0.1,0.2,0.1,0.3,0,0.5c-0.4,0-0.7-0.2-1.1-0.5
			C114.6,52,114.9,52.4,115.1,52.3z"/>
		<path fill="#0C0A0A" d="M107.5,42c0.4,0.1,0.7,0.4,1,0.7c0,0-0.1,0.1-0.1,0.1C108,42.7,107.7,42.4,107.5,42L107.5,42z"/>
		<path fill="#0D0B0A" d="M107.4,42c-0.4-0.1-0.7-0.4-1-0.7c0,0,0.1-0.1,0.1-0.1C107,41.3,107.3,41.6,107.4,42
			C107.5,42,107.4,42,107.4,42z"/>
		<path fill="#231E1C" d="M101.2,37.7c-0.3,0-0.5-0.1-0.6-0.4C101,37.2,101.1,37.4,101.2,37.7L101.2,37.7z"/>
		<path fill="#0F0E0C" d="M101.2,37.7c0.3,0,0.6,0.2,0.8,0.4c0,0-0.1,0.1-0.1,0.1C101.6,38.1,101.3,38,101.2,37.7
			C101.2,37.7,101.2,37.7,101.2,37.7z"/>
		<path fill="#0E0C0B" d="M115.4,52.8c0-0.2,0-0.3,0-0.5c0.2,0.1,0.4,0.2,0.3,0.4C115.7,52.7,115.5,52.7,115.4,52.8z"/>
		<path d="M100.5,70.8c0,0-0.1,0.1-0.1,0.1C100.4,70.9,100.4,70.8,100.5,70.8C100.4,70.8,100.5,70.8,100.5,70.8
			C100.5,70.8,100.5,70.8,100.5,70.8z"/>
		<path fill="#FEFEE2" d="M45.4,272.9c0-2.9,0-5.7,0-8.6c0,0,0.1,0,0.1,0C45.5,267.1,45.5,270,45.4,272.9
			C45.4,272.9,45.4,272.9,45.4,272.9z"/>
		<path fill="#13100F" d="M70.8,104.6c-0.1,3.4-0.8,6.8-1.7,10.1c-0.6,2.1-2.2,3-4.2,3.9c0.1-0.2,0.1-0.3,0.1-0.3
			c3.1-1.2,3.9-3.9,4.5-6.8c0.6-3,0.9-6,1-9C71.2,103.2,70.8,103.9,70.8,104.6z"/>
		<path fill="#161412" d="M59.6,63.1c-2.4-2-4-4.5-4.8-7.5c-0.4,0.2-0.5,0.8-1,0.9c-0.7-1.2-0.5-2.2,0.7-3.5
			c-0.5,1.1-0.7,1.9-0.7,2.8c0.7-0.1,0.6-0.9,1.2-1C55.7,58.1,57.4,60.8,59.6,63.1z"/>
		<path fill="#110F0E" d="M59.2,43.4c1.8-1.9,4-3.3,6.2-4.6c-1.4,1.4-3.2,2.2-4.7,3.5C60.3,42.8,59.9,43.4,59.2,43.4z"/>
		<path fill="#493C36" d="M65.7,106.1c0-1.7,0-3.4,0-5C66.1,102.7,66.1,104.4,65.7,106.1z"/>
		<path fill="#302A26" d="M70.8,104.6c-0.2-0.7,0.2-1.5-0.2-2.1c0-0.4,0-0.7,0.5-1.2C70.9,102.6,71.2,103.6,70.8,104.6z"/>
		<path fill="#0E0C0B" d="M76.7,74.9c0.5,0,1.1-0.2,1.7,0.3C77.7,75.5,77.2,75.3,76.7,74.9z"/>
		<path fill="#1A1715" d="M66,38.4c0.5-0.4,1-0.9,1.7-1c-0.4,0.5-0.9,0.8-1.5,1.2C66.1,38.6,66,38.5,66,38.4z"/>
		<path fill="#181513" d="M74.2,74.4c0.5,0,1-0.2,1.5,0.3C75,75,74.7,74.6,74.2,74.4z"/>
		<path fill="#090807" d="M66,38.4c0.1,0.1,0.1,0.1,0.2,0.2c-0.2,0.1-0.4,0.3-0.7,0.3C65.5,38.6,65.7,38.5,66,38.4z"/>
		<path d="M58.7,43.9c0.1-0.1,0.2-0.2,0.3-0.3C58.9,43.7,58.8,43.8,58.7,43.9z"/>
		<path d="M59,43.7c0.1-0.1,0.2-0.2,0.3-0.3C59.1,43.5,59.1,43.6,59,43.7z"/>
		<path fill="#060504" d="M59.8,63.2C59.8,63.2,59.8,63.2,59.8,63.2C59.8,63.2,59.8,63.2,59.8,63.2c-0.1,0-0.1,0-0.1,0
			C59.7,63.1,59.8,63.1,59.8,63.2z"/>
		<path fill="#C53F26" d="M97.5,177.5c0.9,0.2,1.8,0.2,2.6,0.5c1,0.3,1,0.7,0.3,1.4c-0.6,0.6-1.4,1-2.2,1.4c0.1,0.9,0.3,1.7,0.4,2.6
			c0,0.3,0,0.7-0.3,1c-0.4,0.3-0.8,0-1.1-0.2c-0.7-0.5-1.3-1-2-1.6c-0.8,0.4-1.6,0.9-2.4,1.2c-0.9,0.4-1.3,0-1.1-1
			c0.2-0.9,0.6-1.6,1-2.5c-0.7-0.7-1.5-1.2-2-2c-0.5-0.7-0.3-1.1,0.5-1.3c0.9-0.1,1.8,0,2.8,0.1c0.4-0.8,0.8-1.7,1.3-2.4
			c0.5-0.8,1.1-0.8,1.4,0.1C97.1,175.8,97.3,176.7,97.5,177.5z"/>
		<path fill="#230B07" d="M77.3,53c-0.1,0-0.2,0-0.3,0c0-0.4-0.3-0.7-0.1-1.4c1.3,1.2,2.1,2.6,2.5,4.3c-0.6-1-1.2-2-1.8-2.9
			C77.6,52.8,77.4,52.4,77.3,53z"/>
		<path d="M73.6,31c0.1,0,0.2,0,0.3,0c0.1,0.4,0.2,0.8,0.3,1.6C73.6,31.9,73.6,31.4,73.6,31z"/>
		<path fill="#080605" d="M145.1,189.6c-1.1,0-2.2-0.2-3.1-0.8c-1.8-1.2-3.6-2.3-5.3-3.5c-1.7-1.3-2.1-3.2-1.6-5.2
			c0.6-2.2,2.3-3.1,4.6-2.6c1,0.2,2.1,0.6,3.2,0.5c1.2-0.1,2.1-0.5,2.9-1.5c0.6-0.7,1.2-1.4,1.9-2c1.5-1.3,3.7-1.6,5.2-0.7
			c1.6,1,2.6,3.1,2.1,5.1c-0.6,2.6-1.7,5-2.8,7.3C150.9,189,147.9,189.3,145.1,189.6z"/>
		<path fill="#0C0907" d="M165.8,193.6c-0.1,1.6-0.4,2.8-1.1,3.9c-1.3,1.8-3,2-4.3,0.2c-1.6-2.3-2.6-4.8-3-7.6
			c-0.2-1.5,0.6-3,1.7-3.4c1.4-0.6,2.5,0.1,3.5,1C164.3,189.3,165.6,191.4,165.8,193.6z"/>
		<path fill="#0A0806" d="M23.4,189.6c-1.9,0-3.6-0.5-5.2-1.4c-0.8-0.5-1.5-1.1-1.9-2c-1-2.3-1.9-4.6-2.7-7
			c-0.9-2.6,0.7-4.7,2.1-5.5c1.7-1,3.8-0.6,5.6,1.1c0.4,0.4,0.9,0.8,1.2,1.3c1.2,1.8,2.9,2,4.9,1.6c0.5-0.1,1-0.3,1.5-0.4
			c2.7-0.6,4.8,1.1,4.8,3.9c0,1.7-0.6,3.2-2.1,4.2c-1.6,1.1-3.3,2.2-4.9,3.2C25.6,189.4,24.5,189.6,23.4,189.6z"/>
		<path fill="#0A0807" d="M5.7,188.1c0.8-1.3,2.3-2,3.5-1.6c1.1,0.3,2,1.7,1.9,3.3c-0.3,3-1.4,5.7-3.1,8c-1.2,1.7-2.9,1.5-4-0.2
			c-1.2-1.8-1.6-3.7-0.8-5.8C3.7,190.4,4.3,189,5.7,188.1c0.3,0.5-0.2,0.9-0.4,1.3c-0.7,1-1.2,2-1.6,3.2c-0.6,1.7,0,3.2,1,4.6
			c0.9,1.2,2,1.2,2.9,0c1.6-2.3,2.8-4.8,2.7-7.8c-0.1-2.1-1.5-2.8-3.2-1.7C6.6,188,6.2,188.4,5.7,188.1z"/>
		<path fill="#6E4639" d="M17.2,197.4c-0.2,2-0.4,4-1.1,5.9c-0.8,2.1-3,3.2-4.9,2.5c-1.6-0.5-2.9-3.2-2.3-4.9c0.2-0.6,0.7-1.1,1-1.7
			c0.7-1.3,1.4-2.7,2.1-4c0.4-0.7,0.9-1.3,1.6-1.7c1.3-0.7,2.5-0.2,3,1.2C16.9,195.5,17.3,196.4,17.2,197.4z"/>
		<path fill="#6E4639" d="M151.4,197.6c-0.1-0.8,0.1-1.7,0.4-2.6c0.3-0.9,0.6-1.6,1.6-1.8c1.1-0.2,2,0.2,2.6,1.1
			c0.7,1,1.2,2.1,1.7,3.1c0.4,0.8,0.9,1.6,1.4,2.4c1.6,2.4,0.2,5.7-2.6,6.2c-1.6,0.3-3.4-0.9-4-2.7
			C151.7,201.5,151.3,199.6,151.4,197.6z"/>
		<path fill="#473E38" d="M90.9,167.1c-0.2,4.1-2,7.3-5,10c-1.1,1-2,0.9-3.2,0.2c-4.1-2.6-6.4-9.6-4.6-13.6c1.4-3.2,4.2-4.4,6.9-4
			c3.5,0.6,5.7,3.2,5.8,6.5C90.9,166.6,90.9,166.8,90.9,167.1z"/>
		<path fill="#6E4639" d="M145.3,189.1c-1.5,0-2.5-0.2-3.4-0.9c-1.5-1-3.1-2-4.6-3.1c-2.1-1.5-2.6-4.3-1.2-6.2
			c0.7-1,1.7-1.4,2.9-1.2c1.1,0.2,2.2,0.5,3.4,0.6c1.7,0.1,2.9-0.6,3.9-1.9c1-1.3,2.1-2.5,3.9-2.7c2.8-0.2,5,2.1,4.4,4.9
			c-0.2,1-0.5,1.9-1,2.8c-0.5,0.8-0.9,1.7-1.1,2.7c-0.6,2.8-2.6,4.1-5.1,4.7C146.6,189,145.8,189,145.3,189.1z"/>
		<path fill="#6E4639" d="M165.3,193.9c0,1.5-0.5,2.8-1.6,3.9c-0.9,0.9-1.7,0.9-2.7-0.1c-1.7-1.8-2.4-4.1-3-6.4
			c-0.2-0.9-0.4-1.7-0.1-2.6c0.5-1.7,1.7-2.3,3.3-1.5C163.4,188.3,165.3,191.6,165.3,193.9z"/>
		<path fill="#6E4639" d="M23.4,189.1c-1.4-0.1-2.8-0.3-4.2-0.9c-1.7-0.8-2.8-2-3.3-3.9c-0.3-1.3-0.9-2.5-1.5-3.6
			c-0.6-1.3-1-2.7-0.6-4.1c0.7-2.4,3.3-3.6,5.5-2.5c0.8,0.4,1.6,0.8,2.1,1.6c1.6,2.7,3.9,3.1,6.7,2.4c2.4-0.6,3.8-0.1,4.5,1.6
			c0.8,2,0.2,4.4-1.6,5.5c-1.4,1-2.8,2-4.3,2.9C25.9,188.7,24.7,189.2,23.4,189.1z"/>
		<path fill="#6E4639" d="M5.7,188.1c0.6-0.1,0.9-0.6,1.4-0.9c1.5-0.9,3.3-0.2,3.4,1.6c0.3,3.4-1,6.3-3.1,8.9c-0.9,1.1-1.9,1-2.8,0
			c-1.3-1.5-1.9-3.3-1.3-5.3C3.8,190.8,4.9,189.5,5.7,188.1C5.7,188.1,5.7,188.1,5.7,188.1z"/>
	</g>
</g>
</svg>
