<?xml version="1.0" encoding="utf-8"?>
<!-- Generator: Adobe Illustrator 21.1.0, SVG Export Plug-In . SVG Version: 6.00 Build 0)  -->
<svg version="1.1" id="Layer_1" xmlns="http://www.w3.org/2000/svg" xmlns:xlink="http://www.w3.org/1999/xlink" x="0px" y="0px"
	 viewBox="0 0 168.7 323.1" enable-background="new 0 0 168.7 323.1" xml:space="preserve">
<g id="DxBEFh.tif">
	<g>
		<path fill="#0C0A09" d="M126.6,277.1c0.1,0.6,0.3,1.2,0.4,1.9c0.1,0.3,0.1,0.7-0.2,0.9c-0.3,0.2-0.6,0-0.9-0.2
			c-4.7-3.5-10-6.1-14.5-9.7c-4.7-3.7-8.4-8.4-9.9-14.5c-0.6,0.3-0.8,1.4-1.6,1.1c-0.7-0.3-0.7-1.2-0.9-1.9c-0.4-1.6-0.7-3.2-1-4.8
			c-0.8,0.4-1.1,1.2-1.9,1.5c-0.8,0.3-1.2,0.1-1.3-0.8c0-0.7,0.1-1.4,0.1-2.2c0.1-3.7-0.7-7.4-0.2-11.2c-0.9,0.5-1.6,1.1-2.4,1.4
			c-0.9,0.3-1.3,0-1.1-1c0.6-2.5,1.5-4.9,1.9-7.4c1-5.8,1.8-11.6,2.5-17.5c0.7-6.7,1.3-13.4,1-20.2c-0.2-3.8-1-7.6-2-11.5
			c-0.4,0.8-0.5,3.5-0.3,4.7c0,0.2,0.1,0.5,0.1,0.7c0,0.4,0.1,0.8-0.2,1c-0.3,0.2-0.7,0-1-0.2c-0.3-0.2-0.5-0.4-0.8-0.6
			c-0.6,1.5-1.1,2.9-1.7,4.3c-0.2,0.5-0.3,1.3-1.1,1.3c-0.7,0-1-0.6-1.2-1.2c-0.1-0.2-0.2-0.3-0.3-0.5c-2.2,2.8-2.3,6.1-2.8,9.4
			c-1.2,7.3-2.2,14.7-2.7,22.1c-0.3,3.9-0.5,7.8-1.1,11.7c-0.1,1,0.1,2,0.6,2.9c5.5,8.2,7.3,17.5,7.9,27.1c0.5,7.4,0.1,14.7-0.1,22
			c-0.2,5.6-0.3,11.3-0.6,16.9c-0.2,4.9-0.3,9.8-1.2,14.7c-0.4,2.4-1.5,4.3-4.1,5c-0.3,0.2-0.6,0.1-0.9,0.1c-12.7,0-25.4,0-38.1,0
			c-0.3,0-0.6,0-0.8-0.1c-2.2-0.3-4.4-0.7-6.7-0.9c-3.5-0.3-5.9-2.2-6.1-6c-2.3,0.4-2.8-0.3-2.2-2.5c0.4-1.6,1.3-2.9,2.6-3.9
			c0.6-0.4,0.9-0.9,1.2-1.6c3.8-9.4,11.9-12.6,21-11.7c1.3,0.1,2.5,0.5,3.7,0.8c2.4,0.5,3.4-0.3,3.5-2.7c0.3-9.2-1-18.2-3.3-27.1
			c-1.1-4.6-2.5-9.1-3.8-13.6c-0.8-2.8-2.2-5.4-4.1-7.7c-3.8-4.7-5.8-10.2-6.7-16.1c-1.6-10.7-0.8-21.4,0.7-32.1
			c0.2-1.5,0.6-2.9,0.9-4.3c0.1-0.5,0-0.9-0.2-1.4c-2.4-4.5-3.4-9.4-3.8-14.3c-1-10.6-1.9-21.1-1.7-31.8c0-0.3,0-0.5-0.1-0.9
			c-0.8,0.3-1.3,0.9-1.8,1.4c-1.3,1.1-2.5,2.3-3.7,3.4c-0.3,0.3-0.6,0.7-1.1,0.4c-0.5-0.2-0.5-0.7-0.5-1.1c-0.1-2.8,0.1-5.6,0.8-8.3
			c0.1-0.3,0.2-0.6,0.1-1c-0.6,0.2-1.1,0.4-1.7,0.6c-0.4,0.1-0.7,0.2-1-0.1c-0.3-0.3-0.2-0.6-0.1-1c0.3-0.7,0.6-1.5,0.9-2.2
			c1.2-2.6,1.8-5.4,2.1-8.2c0.3-2.1,0.8-4.2,1.5-6.4c-1.2,0.1-2.4,0.5-3.6,0.4c-0.4,0-0.9,0.1-1.1-0.5c-0.2-0.5,0.1-0.8,0.5-1.1
			c1.3-1.2,1.7-2.9,2.3-4.4c0.7-1.9,1.5-3.7,2.7-5.3c-0.5-0.4-1.1-0.3-1.6-0.5c-0.4-0.2-0.8-0.3-0.8-0.8c-0.1-0.5,0.3-0.8,0.6-0.9
			c2.5-0.9,3.8-2.9,5.3-4.9c0.4-0.5,0-1,0.2-1.5c0.3-0.8,0.7-1.5,1-2.4c-2-0.4-3.4-1.7-4.7-3.1c-0.3-0.3-0.6-0.6-0.4-1
			c0.2-0.5,0.6-0.6,1.1-0.6c1.8-0.1,3.2-1.1,4.2-2.5c1.3-1.8,2.5-3.8,3.8-5.7C43,87.4,42,87.3,41,87.2c-1-0.1-1.2-0.7-0.5-1.4
			c0.8-0.9,1.6-1.8,2.5-2.8c-0.5-0.3-1.2-0.6-1.9-1c-0.4-0.2-0.6-0.4-0.6-0.8c0-0.5,0.4-0.5,0.7-0.6c1.6-0.3,3.1-0.7,4.3-1.9
			c1.6-1.5,2.1-3.2,1.5-5.2c-0.6-2.1-1.9-3.4-4.1-3.6c-2.5-0.3-5,0.4-7.5,0.6c-2.9,0.2-5.8,0.8-8.7,0.4c-2.6-0.4-4.6-1.7-6.2-3.7
			c-1.6-2.2-3.3-4.3-5-6.4c-1.9-2.4-3.4-5-3.6-8.1c-0.1-1.7,0.5-2.6,2.1-3.2c2.6-1,5.3-1.3,7.9-1.9c3.4-0.7,6.7-1.6,9.9-2.9
			c0.5-0.2,1-0.5,1.5-0.8c1.3-0.8,1.6-1.4,1.1-2.9c-0.3-0.8-0.4-1.6-0.5-2.6c-3.1,2.3-6.5,4-9.7,6.1c-0.5-0.8-0.2-1.4-0.3-2.1
			c-0.9,0.6-1.7,1.3-2.6,1.6c-0.4,0.1-0.8,0.3-1.1,0c-0.3-0.3-0.1-0.8,0.1-1.1c1.3-2.4,1.2-5.1,1.6-7.8c-1.3,0.2-2.5,0.5-3.7,0.5
			c-0.3,0-0.7,0-0.8-0.4c-0.1-0.3-0.1-0.6,0.2-0.7c1.6-1,2.3-2.6,3.1-4.2c0.3-0.6,0.7-1.2,1.1-1.9c-1.9-0.7-3.8-1.3-5.1-2.9
			c-0.8-0.9-1.4-2-1.9-3c-0.2-0.3-0.3-0.7,0.1-1c0.3-0.2,0.6-0.1,0.9,0.1c1.5,1,3.2,0.7,4.8,0.4c2-0.3,3.9-1.2,5.9-2.1
			c-1.6-1.3-2.8-2.7-3.7-4.5c-0.2-0.4-0.3-0.7-0.5-1.1c-0.2-0.4-0.2-0.7,0.1-1c0.3-0.3,0.6-0.1,1,0.1c1.7,1,3.6,1.4,5.8,1.8
			c-1-1.3-1.9-2.4-2.6-3.7c-0.3-0.5-0.7-1-0.1-1.5c0.5-0.5,0.9,0,1.4,0.2c1.9,1,4,1.1,6.2,1.6c-1.2-1.6-2.2-2.9-3.5-4.1
			c-0.3-0.3-0.8-0.5-0.6-1c0.2-0.6,0.7-0.5,1.2-0.5c2.4-0.1,4.8,0.2,7.3,0.5c-0.5-1.1-1.2-1.9-1.6-2.9c-0.1-0.4-0.2-0.7,0.1-1
			c0.2-0.3,0.6-0.1,0.8,0C40.6,4.7,44,5.2,47,7.2C46.6,6,46.4,5,46.1,4c-0.1-0.4-0.3-0.9,0.1-1.2c0.4-0.3,0.8,0,1.2,0.3
			c1.7,1.4,3.7,2.1,5.3,3.6c0.4-0.7-0.3-1.6,0.7-1.9c0.8-0.2,0.7,0.7,1.3,1c0-0.8,0.1-1.6,0-2.4c-0.1-0.8,0.1-1.6,0.6-2.3
			c0.1,0,0.2,0,0.2,0c0.3,0.3,0.5,0.7,0.8,1.1c1.4,2.3,3.3,4,6,5.6C64,6.2,65.8,4.9,67.9,4c0.6-0.3,1.3-0.6,2-0.5
			c1.2,0.2,2-0.3,3-0.8c3.8-2.1,6.1-1.3,7.7,2.8c1.3,3.1,2.1,6.3,2.7,9.5c0.1,0.7,0.3,1.2,0.8,1.7c1.5,1.5,2.9,3.1,4.3,4.6
			c2.4,2.5,4.1,5.4,5.1,9c1-1.5,1.4-3.3,3.3-3.9c0.1,1.5,0.2,3,0.3,4.4c0.1,1.5,0.2,3,0.5,4.5c0.4,2.9,0,5.6-0.8,8.4
			c0.1,0.1,0.1,0.2,0.3,0.2c0.8-0.2,1.6-0.4,2.5-0.5c0.4-0.1,0.9-0.1,1.1,0.3c0.2,0.4-0.1,0.7-0.4,1c-0.6,0.5-1.1,1-1.7,1.6
			c0.7,0.2,1.4-0.1,2,0.2c0.3,0.5,0.1,0.8-0.3,1.1c-4.9,3.3-6,8.5-6.5,13.8c-0.2,1.9,0.1,3.7,0.3,5.6c0.2,2.1,1.4,3.9,2.5,5.6
			c0.3,0.5,1.2,0.8,0.8,1.6c-0.4,0.8-1.1-0.1-1.7,0.3c0.6,2.3,0.4,4.7,1.1,7c0.1,0.4,0.5,0.9,0.1,1.3c-0.5,0.5-0.9-0.1-1.2-0.1
			c-0.7,3-0.4,5.9,0,8.9c0.7,4.7-0.1,9.4-1,14.1c-1.4,7-3.8,13.8-5.4,20.7c-1.9,7.7-1.9,15.5-0.6,23.3c0.3,1.5,1.2,2.5,2.5,3.2
			c3.1,1.9,6.3,3.6,9.3,5.7c4.4,2.9,8,6.8,11.7,10.4c2.9,2.9,5.5,6,9.1,8.1c0.4,0.2,1,0.4,0.9,1c-0.1,0.6-0.8,0.6-1.2,0.8
			c-0.6,0.1-1.2,0.2-1.9,0.3c1.2,1.6,1.8,3.4,2.9,4.8c0.9,1.3,0.4,2.1-1.1,2.1c3.2,6.2,4.8,12.8,6.5,19.5c1.9,7.5,3.7,15,5.6,22.5
			c1.6,6.7,3.9,13.2,7.3,19.3c2.1,3.6,4.7,6.7,7.3,9.9c2.8,3.5,5.6,6.9,7.6,11c0.6,1.3,0.9,2.7,1.4,4c0,0.4,0,0.8,0,1.2
			c-2,4-5.6,3.9-9.2,3.8c-0.6,0-1.3-0.1-2.1-0.2c0.6,0.6,1,1.1,1.5,1.6c0.3,0.3,0.6,0.6,0.5,1c-0.2,0.5-0.7,0.4-1.1,0.5
			c-1.5,0.1-3-0.3-4.5-0.5c-0.3,0-0.6-0.1-1-0.2c0.1,1,1.3,1.5,0.6,2.8c-4.5-2.3-9.6-3.1-14.1-5.4
			C126.7,276.9,126.6,277,126.6,277.1z"/>
		<path fill="#B1ADA2" d="M90,166.2c1.1,2.7,2.1,5.5,2.9,8.2c0.4,1.2,1,2.2,2,3.3c-1.1,0-1.7-0.5-2.6-1c1,3,0.8,6,0.7,9
			c-1.1-0.8-1.4-2.2-2.3-3.2c1.1,3-0.3,5.5-1.3,8.1c-0.7-0.8-0.7-1-0.9-2.5c-0.1-0.9-0.2-1.7-0.3-2.9c-0.5,0.9-0.2,1.6-0.4,2.3
			c-0.5,1.5-1.1,2.8-1.9,4.1c-0.7,1.2-1.1,2.5-1.4,3.8c-1.9,10.3-3,20.7-3.8,31.1c-0.3,3.7-0.7,7.3-1.1,11c-0.1,0.8-0.2,1.7,0.2,2.5
			c0.1-1.1,0.3-2.2,0.4-3.6c3.3,4.5,5.1,9.3,6.5,14.4c-0.3,0.4-0.8,0.6-1.2,0.7c-7.4,2.8-15.1,4.1-23,3.7c-2.4-0.1-4.8-0.5-7.1-1.2
			c-1.2-3.9-3-7.4-5.4-10.6c-2.8-3.7-4.4-7.9-5.2-12.5c-1.6-8.7-1.4-17.5-0.7-26.3c1-12.2,4.9-23.5,9.8-34.5
			c1.7-3.7,3.4-7.5,4.4-11.5c0.1-0.6,0.4-1.1,0.1-1.7c-0.4-1.2,0.1-2.4,0.2-3.5c0.2-3.9,0.4-7.7,0.3-11.6
			c-0.2-6.2-0.8-12.3-0.1-18.5c0-0.4,0.2-0.9,0.3-1.3l0,0c0.1,0,0.2,0,0.2-0.1c0-0.1,0-0.1-0.1-0.1c1.4-1.8,2.7-3.6,3.8-5.7
			c0.8-1.5,1.5-3.1,1.7-4.9c0.8,0.8,1.2,1.8,2.2,2.4c0.4-0.6,0.1-1.3,0.1-2c-0.1-2.5,0.5-4.9-0.1-7.4c-0.1-0.5-0.2-0.9-0.5-1.3
			c-0.4-0.1-0.5-0.5-0.6-0.8c-0.9-3.1-2-6.2-2.6-9.3c-0.2-1.1,0-2.1,0.2-3.1c1.5-2.8,3.8-4.9,6.2-6.9c0.8-0.6,1.7-1.2,2.5-1.9
			c0.5-0.4,1-0.6,1.6-0.6C77,78.5,80.4,77.8,84,78c2.3,0.1,4.3,0.9,5.7,2.9c1.5,2,2.2,4.3,2.4,6.7c0.7,6.8-1.2,13.1-3.9,19.3
			c-2,4.5-4.8,8.5-7.3,12.7c-2.7,4.6-4.1,9.5-4.7,14.8c-0.7,6.1,1.5,11.2,4.5,16.2c2,3.4,4.7,6.5,6.7,9.9c0.9,1.5,1.6,3.1,2.4,4.6
			C90.1,165.4,90.3,165.7,90,166.2z"/>
		<path fill="#584D46" d="M90,166.2c-1.6-3.9-3.9-7.4-6.4-10.8c-3-4.1-5.7-8.5-7.2-13.5c-1-3.6-0.7-7.1-0.1-10.7
			c0.9-5.8,3.5-10.9,6.7-15.7c4.3-6.5,7.5-13.5,8.6-21.2c0.7-4.4,0.4-8.8-1.8-12.8c-0.1-0.2-0.1-0.4-0.1-0.6c0.6,0,0.8,0.5,1,0.9
			c2,2.8,2.6,6,3,9.3c0.7,6.2-0.4,12.2-1.9,18.2c-1.2,4.9-2.6,9.8-4,14.7c-0.2,0.8-0.2,1.7-0.6,2.4c-0.8,1.6-2.4,2.5-3.6,3.6
			c-1.1,1-1.1,0.9-0.3,2c1,1.4,2.1,2.8,2.7,4.5c-0.2,3.6,0.2,7.2,0.5,10.8c0.2,1.8,0.4,3.6,1.7,5.1c0.2,0.2,0.3,0.5,0.5,0.7l0,0
			c2,2.2,4.3,3.9,6.8,5.5c5.4,3.6,10.4,7.6,14.7,12.5c1.7,1.9,3.5,3.6,5.3,5.4c0.4,0.4,0.8,0.7,0.8,1.2c1.4,2.3,3.1,4.5,4.2,7
			c-1.1,0.1-1.9-0.7-2.8-0.9c0,0.2-0.1,0.3-0.1,0.3c3.2,4.2,4.5,9.1,5.9,14c3,10.3,5.4,20.8,7.9,31.2c0.2,0.7,0.4,1.5,0.6,2.2
			c-1,0.6-2.2,0.4-3.2,0.5c-5.2,0.5-10,2-14.5,4.5c-5.9,3.4-10.6,8-13.8,14.1c-0.2,0.4-0.4,0.9-1,0.8c-0.6-2.4-0.4-4.9,0-7.3
			c-0.9,1.9-1.5,3.9-3.4,5.4c-0.3-5.6-1-11.1,0.2-16.6c-1.3,1.2-1.9,3.1-3.8,3.9c0.5-1.7,1-3.3,1.4-5c1.1-4.5,1.5-9,2.2-13.6
			c0.8-5.4,1.2-10.8,1.6-16.2c0.5-7.8,0.1-15.5-2.6-22.9c-0.2-0.6-0.3-1,0.4-1.5c-2.6-2.8-2.7-6.5-4.2-9.6
			C91,167.4,90.9,166.5,90,166.2z"/>
		<path fill="#FAF4C4" d="M55.6,254c0.4-0.6,0.9-0.1,1.3,0c5.1,1.2,10.2,1.1,15.3,0.5c5.1-0.6,9.9-2,14.7-3.7
			c0.9,2.5,1.1,5.1,1.3,7.6c0.3,3.6,0.5,7.2,0.6,10.8c0.1,6.1-0.2,12.2-0.4,18.3c-0.3,8.4-0.7,16.8-1.2,25.3c-0.1,1.7-0.3,3.3-0.7,5
			c-0.6,2.2-1.7,3.1-4,3.3c-0.5,0-1,0.1-1.4,0.1c-11.8,0-23.6,0-35.4,0c-1.2,0-2.3-0.1-3.5-0.3c-1-0.2-1.5-0.7-1.5-1.7
			c-0.1-5.9,3.2-13.3,10.9-14.4c1.9-0.3,3.9-0.2,5.8,0c-1.4-0.9-3-0.8-4.5-0.6c-5.3,0.4-9,3.2-11.2,8c-0.2,0.4-0.4,0.8-0.9,1
			c-1.7,0.8-2.3,2.4-2.8,4.1c-0.2,0.7,0.2,0.9,0.8,0.8c0.5-0.1,0.9-0.2,1.4-0.3c0.1,0.8,0.1,1.6,0.1,2.4c-3.6,1.5-8-1.3-7.9-5.3
			c0.1-6.4,4-14,11-16.6c4-1.5,8.1-1.7,12.3-0.7c1.1,0.3,2.2,0.5,3.3,0.4c1.8-0.1,3-1.1,3.2-2.9c0.3-3.5,0.3-6.9-0.1-10.4
			c-0.9-8-2.4-15.9-4.5-23.6C57,258.6,56.2,256.3,55.6,254z"/>
		<path fill="#B1ADA2" d="M62.4,29.8c0.4,0.5,1,0.7,1.5,0.9c2.1,0.8,3.5,2.4,4.7,4.3c1.3,2.1,2.6,4.2,4.1,6.2c1.9,2.4,4.2,4,7.2,4.5
			c0.7,0.1,1.4,0.3,2.2,0.5c-1.5,1.2-3.2,1-4.9,1c1.9,0.7,3.4,1.8,4.6,3.4c1.1,1.5,2.3,3,3.5,4.6c-2.1-0.1-3.8-1.1-5.5-2
			c2,1.9,2.3,4.3,2.5,6.8c0.2,1.9,0.2,3.7,0.6,5.8c-1.7-0.7-2.7-2.1-4.2-3c1,2.1,1.4,4.2,1.4,6.5c-4-1.6-7.9-1.2-11.8-0.1
			c-0.2,0.2-0.4,0.4-0.7,0.5c-2.5,0.8-5,1.6-7.6,1.9c-0.1,0-0.2,0-0.4-0.1c-0.9-1.2-1.6-2.5-2.5-3.8c-2.4-3.6-5.9-5.6-9.9-6.9
			c-0.5-0.2-1-0.2-1.1-0.7c-1.7-1-3.6-1.1-5.4-1.2c0.4,0.4,1.1,0.1,1.6,0.5c-0.1,0.5-0.4,0.8-0.8,1.1c-3.3,3.3-7.3,5.2-11.9,5.7
			c-2.7,0.3-5.3,0.2-7.9-0.5c-2.6-0.8-3.8-2.8-3.1-5.4c0.6-2.4,1.8-4.5,2.7-6.8c0.6-1.4,1.3-2.9-0.1-4.4c2.2-0.6,4.4-1.1,6.4-1.7
			c2-0.6,4-1.1,5.9-2.1c2.2-1.2,2.7-2.3,2-4.7c-0.2-0.8-0.5-1.6-0.4-2.5c0.1-1.3,0.6-2.3,1.6-3.2c0.3,0.4,0,0.8,0.2,1.3
			c1.7-1.3,3-3.1,4.9-4.1c0.1,0.1,0.2,0.3,0.1,0.5c0,0.1-0.1,0.2-0.1,0.3c-0.3,0.5-0.6,1-0.2,1.5c0.4,0.6,1,0.4,1.5,0.2
			c2.8-0.8,5.4-0.2,7.9,1.2c0.1,0,0.2,0.1,0.3,0.1c0.1,0.1,0.2,0.1,0.3,0.2c0,0,0.1,0.1,0.1,0.1c0.2,0.2,0.4,0.3,0.6,0.4
			c0.1,0.1,0.1,0.1,0.2,0.2c0.1,0.1,0.2,0.2,0.3,0.3c0.1,0,0.1,0.1,0.2,0.2c0.1,0.1,0.3,0.2,0.4,0.3c0.1,0,0.1,0.1,0.2,0.1
			c0.1,0.1,0.1,0.1,0.2,0.2c0,0,0.1,0.1,0.1,0.1c0.1,0.1,0.1,0.1,0.2,0.2c0,0,0.1,0.1,0.1,0.1c0.1,0.1,0.1,0.1,0.2,0.2
			c0,0.1,0.1,0.1,0.1,0.1c0.2-0.2-0.1-0.2-0.1-0.4c-0.1-0.1-0.1-0.2-0.1-0.3c-0.2-0.6-0.5-1.1-0.9-1.5c-0.1-0.1-0.1-0.2-0.2-0.2
			c-0.1-0.2-0.3-0.4-0.4-0.6c-0.1-0.1-0.1-0.2-0.2-0.3c-0.4-0.6-0.8-1.2-1.5-1.4c-0.5-0.2-0.9-0.5-1.2-0.8c-0.2-0.2-0.4-0.3-0.7-0.4
			c-0.1,0-0.2-0.1-0.3-0.1c-1.8-0.9-3.7-0.8-5.6-0.5c-0.5,0.1-0.9,0.4-1.4,0c1.5-1.8,3.7-2.4,5.7-3.2c1.7-0.6,3.4-1.1,5.1-1.7
			c0.2-0.1,0.5-0.1,0.7-0.3c1.7-1.6,3.4-0.9,5.1-0.1c0.1,0.1,0.3,0,0.5,0l0,0c0.5,0.4,1,0.8,1.5,1.2c0,0,0.1,0,0.1,0
			c0.1,0.1,0.2,0.1,0.3,0.2c0.1,0,0.1,0.1,0.2,0.1c0.1,0,0.1,0.1,0.2,0.2c0,0,0.1,0.1,0.1,0.1c0.1,0.1,0.1,0.1,0.2,0.2
			c0,0,0.1,0.1,0.1,0.1c0.1,0.1,0.1,0.1,0.2,0.2c0,0,0.1,0.1,0.1,0.1c0.1,0.1,0.1,0.1,0.2,0.2c0.1,0.1,0.1,0.1,0.1,0.2
			c0.1,0.1,0.1,0.2,0.2,0.3C62.3,29.7,62.3,29.8,62.4,29.8z"/>
		<path fill="#F0A63E" d="M138,247c0.7,0.6,1,1.6,1.6,2.4c3.1,4.6,6.8,8.9,10.2,13.3c1.9,2.4,3.7,4.8,4.6,7.8
			c0.2,0.6,0.3,1.2,0.4,1.7c0.2,1.5-0.3,2.3-1.7,2.9c-2.5,1.1-5.1,1-7.7,0.6c-1.3-0.2-2.7-0.4-4.3-0.7c1.5,1.3,2.7,2.5,4.1,3.8
			c-3.2-0.3-6-0.8-8.8-2c0.9,1,1.8,2,2.8,3.3c-5.7-2.3-11.7-3.2-16.3-7.2c1,1.7,2.2,3.2,2.8,5.3c-0.7-0.6-1.3-1-1.8-1.4
			c-3.1-2.5-6.6-4.3-9.9-6.4c-1.4-0.9-2.7-1.9-3.9-3.2c-0.1-0.5,0.1-1,0.4-1.5c5.2-9.3,13.1-15.3,23.2-18.2
			C135.1,247.1,136.5,246.6,138,247z"/>
		<path fill="#C53F26" d="M56.7,10.3C56,8,55.7,5.8,55.7,3.2c2.4,3.3,5.6,5.4,8.9,7.3c-2.5,3.2-4.7,6.5-6.7,10
			c-0.5,0.9-1,1.7-1.5,2.6c-1,2-2.6,3.2-4.7,3.7c-5.3,1.2-10,3.6-13.6,7.8c-0.1,0.1-0.2,0.1-0.4,0.2c0.2-1.7,1.4-2.7,2.3-3.9
			c0.1-0.1,0-0.2-0.1-0.1c-1.1,0.6-2.1,1.1-3.3,1.8c0.7,0.3,0.9-0.2,1.3-0.2c0.1,0.1,0.2,0.1,0.2,0.2c-3,4.1-6.9,7-11.3,9.4
			c-0.2,0.1-0.5,0.3-0.7,0.4c-0.2,0.1-0.4,0.4-0.8,0.4c0.3-1.5,1.4-2.7,1.8-4.5c-1.8,1.7-3.3,3.1-5.2,4.5c1-2.5,0.9-5,1.2-7.4
			c0.2-1.4,1.1-2.4,1.8-3.5c0-0.1,0.1-0.2,0.1-0.3c0,0,0,0,0,0s0,0,0,0.1c-0.1,0.1-0.2,0.1-0.3,0c-2.1,2.4-3.1,3-5.4,2.9
			c2.3-2.2,2.6-5.8,5.5-7.6c-1.8,0.9-3.4,0.4-4.9-0.4c-1.5-0.8-2.8-1.9-3.6-3.7c2.4,0.5,4.7,0.3,6.9-0.4c2.1-0.7,4.2-1.8,6.4-2.2
			c-2.6-1.2-4.8-2.8-6.1-5.7c4,1.8,8.2,2,12.1,3.3c-1.4-0.9-3.1-1.3-4.4-2.3c-1.3-1.1-2.5-2.3-3.4-4.1c3.6,1.4,7.4,1.3,10.7,3
			c-2.8-1.8-4.3-4.8-6.7-7c3.1,0,6.2,0.2,9.4,1.1c-1-1.4-1.9-2.7-2.9-4.2c4,1.7,7.7,2.9,10.8,5.6c0.8,0.7,1.5,1.6,2.6,2l0,0
			c-0.2-0.6-0.7-1-1.2-1.4c-1.7-1.6-2.6-3.6-3-5.9c0-0.1,0.1-0.2,0.2-0.2c2.9,1.7,5.6,3.5,7.5,6.4c-0.1-1.1-0.8-2-0.8-3.2
			c0.9,0.9,1.4,2,2.3,2.8C56.7,10.5,56.7,10.3,56.7,10.3z"/>
		<path fill="#FAF4C4" d="M59.2,122.2c0.1,2.6-0.3,5.2-0.2,7.9c0.2,5.1,0.4,10.3,0.5,15.4c0.1,3.9-0.1,7.8-0.9,11.6
			c-0.4,1.4-0.9,2.8-1.3,4.2c-1.6,4.9-4.2,9.4-6.2,14.1c-1.9,4.7-3.7,9.4-4.8,14.4c-0.1,0.3-0.2,0.7-0.4,1.1
			c-0.6-0.5-0.7-1.1-0.9-1.7c-1.9-4.3-2.7-8.8-3.1-13.5c-0.9-10.7-1.7-21.4-1.6-32.2c0-0.9,0.2-1.6,0.8-2.3c1.1-1.3,2.1-2.6,3.1-4.2
			c0.2,1-0.2,1.9,0.2,2.9c2-3.3,4.4-6.2,6.4-9.6c0,0.8-0.1,1.3-0.1,2.1C53.3,128.7,56.2,125.4,59.2,122.2z"/>
		<path fill="#C53F26" d="M59.7,71.3c0.1,0,0.1,0.1,0.2,0.1c0.9,1,0.9,2.3,1,3.5c0.2,2.6-0.1,5.3-0.8,7.8c-0.1,0.2-0.2,0.3-0.2,0.5
			c0-0.1,0.1-0.2,0.2-0.3c0.4-0.8,0.8-1.7,1.8-2.3c0.6,2.1-0.3,3.9-0.3,5.9c0.6-0.5,1-1.1,1.4-1.6c0.2-0.2,0.5-0.5,0.8-0.4
			c0.4,0.1,0.5,0.5,0.5,0.9c0.1,1.5,0.1,3-0.5,4.3c-0.1,1.1-0.2,2.1-0.3,3.2c0.1,0.6,0,1.1-0.1,1.7c-1.1,4.5-3,8.8-5.2,12.9
			c-0.2,0.4-0.4,0.9-1,0.7c-0.5-0.1-0.5-0.6-0.6-0.9c-0.1-0.4-0.1-0.8-0.3-1.4c-0.9,2.5-2.3,4.5-4,6.3c-0.2,0.2-0.3,0.4-0.6,0.6
			c-0.4,0.3-0.8,0.7-1.3,0.5c-0.5-0.2-0.4-0.7-0.4-1.2c0-0.6,0.1-1.2-0.2-1.9c-2.1,2.5-4.8,3.9-7.5,5.4c-1.3,0.7-2.5,1.7-3.6,2.7
			c-0.4,0.4-0.9,0.9-1.6,1c-1.5,1.3-3.3,1.9-5.2,2.1c2-4.3,3.2-8.9,7-12.2c0-0.1,0-0.2-0.1-0.1c-1.1,0.4-2.2,1.1-3.7,0.7
			c2.2-1.1,3.5-2.9,4.9-4.7c1.7-2.1,3.9-3.6,6.2-5.1c1.5-1,3.1-2.1,4.5-3.2c0.4-0.3,0.9-0.6,1.2-1.5c-3.6,2.8-7,5.3-11.1,7.5
			c0.1-1.4,0.7-2.1,1.6-2.9c-2.1-0.8-4.2-1.2-5.5-3c2.5-0.5,4.1-2.3,5.4-4.2c1.8-2.6,3.4-5.4,5.9-7.6c-1.9,1-4,1.3-6.2,1.1
			c1.2-1.3,2.5-2.4,3.9-3.4c-0.9-0.6-2.1-0.5-3-1.2c1.8-0.5,3.3-1.3,4.4-2.7c1.9-2.5,1.9-5.3,0.1-7.9c-0.2-0.2-0.3-0.5-0.5-0.7
			c0.4-0.3,0.9-0.2,1.4-0.1c3.6,0.8,7.2,1.3,10.9,1C59.3,71.1,59.6,71.2,59.7,71.3z"/>
		<path fill="#6D4639" d="M138,247c-5,0.7-9.7,2.3-14,5c-6.1,3.8-10.9,8.7-14,15.2c-4.5-4.5-7.7-9.7-8.3-16.3
			c-0.7,1.1-0.6,2.5-1.6,3.5c-0.2-1-0.4-1.9-0.6-2.8c1-0.8,1.3-2.1,1.9-3.1c3.1-4.9,7.1-8.7,12.1-11.7c4.3-2.6,9-4.1,13.9-4.8
			c1.5-0.2,3.1-0.2,4.6-0.3C133.7,236.9,135.7,242,138,247z"/>
		<path fill="#FAF4C4" d="M37.2,119.3c2.3-2.3,5-4.2,7.9-5.7c1.9-1,3.4-2.5,5.1-4.2c0.1,1.3,0.2,2.4,0.3,3.8c2.9-2.2,4.7-5,5.9-8.5
			c0.3,1.3,0.5,2.4,0.8,3.7c3-5.1,5.1-10.2,6.3-15.6c0.7,2.5,1.5,5.1,2.2,7.6c0.3,0.9,0.5,1.7,0.8,2.6c0.5,3.2,0.1,6.5,0.1,9.9
			c-1.3-1.4-2-3-2.6-4.6c0,1.3,0.4,2.5,0.1,3.8c-0.6,2.4-1.7,4.4-3,6.4c-2.9,4.3-6.8,7.8-9.9,12.4c0.1-1.4,0.3-2.5,0.4-3.6
			c-1.4,4.3-4.8,7.2-7.1,10.9c0.1-0.9,0.1-1.9,0.3-3.2c-3,5.4-7.3,9.2-11.8,13.1c-0.2-4.4,1-8.4,2.7-12.5c-1.4,1.1-2.4,2.2-3.7,2.7
			c-0.1,0-0.2-0.1-0.2-0.2c1.6-3.4,2.1-7.1,2.7-10.8c0.4-2.6,1.2-5,2.4-7.3C37.1,119.9,37.3,119.6,37.2,119.3z"/>
		<path fill="#584D46" d="M63.9,89.7c0.1-1.7,0.3-3.3,0.1-5.2c-1.2,0.8-1.7,1.9-2.8,2.9c0-2.3,0.8-4.4,0.7-6.6
			c-0.9,0.7-1,1.8-1.9,2.3l0,0c0.2-1.8,0.5-3.5,0.7-5.3c0.2-2.2-0.1-4.3-0.7-6.4c2.9-0.6,5.7-1.4,8.5-2.2c1.2,0.2,2.4,0,3.5-0.1
			c2.9-0.1,5.7-0.1,8.3,1.2c0.1,0.1,0.3,0,0.5,0c0.2-1.7-0.1-3.4-0.4-5.1c0.9,0.6,1.7,1.2,2.6,1.7c0.2,0.1,0.5,0.3,0.8,0.1
			c0.3-0.2,0.2-0.5,0.2-0.8c-0.8-2.8-0.7-5.7-1.1-8.5c-0.1-0.7-0.3-1.4-0.5-2.2c1.7,0.4,3.3,0.8,5.2,0.3c-3-2.2-4.3-5.4-6.7-7.9
			c1.2-0.5,2.2-1,3.4-2c-2.4-1-4.9-1-7.1-2.2c0-0.6,0.5-0.7,0.9-0.9c1.2-0.8,2.1-1.8,2.9-3c0.3-0.5,0.6-0.6,1-0.3l0,0
			c0.7,1.2,1.3,2.5,2,3.7c1.9,3.2,2.5,6.9,3.5,10.4c0.1,0.3,0.1,0.7,0.5,1c0.5-0.5,0.2-1.3,0.6-1.9c1,2.1,1.2,4.4,1.8,6.7
			c0.2-0.8,0.5-1.5,0.7-2.3c0.1,0,0.1,0,0.2,0c0.2,1.2,0.3,2.4,0.5,3.6c0.8,4.6,0.8,9.3,0,13.9c-0.2,1.2-0.5,2.3-1.3,3.3
			c-0.4,0.4-0.7,0.9-1.4,0.7c-4-2.2-8-1.8-12.1-0.3c-1,0.4-2.1,0.9-2.8,1.7c-0.1,0.1-0.5,0.3-0.1,0.5c-3.8,2.2-7.1,4.9-9.5,8.5
			C64.2,89.2,64,89.4,63.9,89.7z"/>
		<path fill="#C53F26" d="M94.4,46.5c1.1-1,2.4-1.6,4.1-1.9c-1.2,1.4-2.5,2.3-3.3,4c0.8-0.4,1.4-0.6,2.1-0.7c0.1,0,0.2,0.1,0.2,0.2
			c-3.2,3.1-4.2,7.3-5.1,11.4c0,0.2,0.1,0.5-0.3,0.7c-0.5-1.5-0.3-3-0.8-4.6c-0.6,0.7-0.6,1.5-1,2.3c-0.4-2.3-0.9-4.4-1.9-6.5
			c-0.5,0.6-0.3,1.3-0.7,2c-0.4-1.4-0.7-2.6-1-3.9c-0.8-3.3-2.3-6.3-4.1-9.1c-0.2-0.3-0.2-0.7-0.7-0.7c0,0,0,0,0,0
			c-0.3-0.7-0.1-1.3,0.1-2c1.2-3,1.5-6.3,1.7-9.5c0.2-3.3,0-6.5-0.4-9.8c0-0.2-0.1-0.5,0.1-0.7c3.8,4.1,7.9,7.9,9.1,13.8
			c0.4,2.1,0.5,4.3,0.5,6.4c0.8-3.1,1-6.5,3-9.3c-0.4,3.9,1.1,7.8,0.4,11.7c-0.4,2.1-1.1,4.1-2,6c0,0.1,0,0.2-0.1,0.3
			c0,0,0.1,0,0.1,0C94.3,46.4,94.4,46.5,94.4,46.5z"/>
		<path fill="#FAF4C4" d="M74.3,36.8c-0.9,0.1-1.5,0.7-2.3,1c-0.4,0.2-0.7,0.2-1-0.2c-0.9-1.2-2-2.3-2.7-3.8
			c0.1-0.1,0.1-0.3,0.2-0.5c0.1-0.1,0.3-0.1,0.5-0.3c0.1-0.1,0.1-0.2,0.2-0.3c0.1-0.1,0.2-0.2,0.2-0.3c0.1-0.1,0.1-0.1,0.2-0.2
			c-0.1,0.1-0.1,0.1-0.2,0.2c-0.1,0.1-0.2,0.2-0.2,0.3c-0.1,0.1-0.1,0.2-0.2,0.3c-0.1,0.1-0.3,0.1-0.5,0.2c-0.1,0.1-0.1,0.2-0.3,0.3
			c-0.8-0.6-1.2-1.5-1.8-2.2c-0.2-0.2-0.1-0.5-0.1-0.8c0.8-3.2,1-6.5,0.9-9.7c-0.2-3.2,0.4-6.2,1.8-9.1c0,0,0-0.1,0-0.1
			c0.1-0.3,0.3-0.6,0.4-0.9c0-0.1,0.1-0.2,0.2-0.3c0.1-0.2,0.2-0.3,0.3-0.5c0.1-0.3,0.3-0.5,0.5-0.7C70.8,9.2,71,9.1,71.1,9
			c0.1-0.1,0.3-0.2,0.4-0.3c0.1-0.1,0.1-0.1,0.2-0.2c0.1-0.1,0.1-0.2,0.2-0.3c0-0.1,0.1-0.1,0.2-0.2c0.1-0.1,0.2-0.2,0.3-0.3
			c0.1-0.1,0.1-0.1,0.2-0.2c0.1-0.1,0.2-0.1,0.2-0.2c0.1-0.1,0.2-0.1,0.3-0.1c1.1-0.5,2.1-1.1,3.4-0.5c0.1,0.1,0.2,0.1,0.3,0.2
			C76.8,7,76.9,7.1,77,7.2c0.1,0.1,0.2,0.2,0.2,0.3c1.5,2.3,2,4.8,2.3,7.5c0.3,2.3,0.4,4.7,0.5,7c0.2,4-0.4,7.8-2.4,11.3
			c0,0.1-0.1,0.2-0.2,0.3c-0.2,0.2-0.4,0.4-0.5,0.7c-0.1,0.1-0.1,0.2-0.2,0.2c-0.8,0.6-1.4,1.3-2,2C74.6,36.7,74.5,36.8,74.3,36.8z"
			/>
		<path fill="#FAF4C4" d="M59.7,71.3c-3.9,0.6-7.7,0-11.5-0.8c-0.5-0.1-0.9-0.2-1.4-0.3c-2.8-2.2-5.9-1.6-9.1-1.2
			c-3,0.4-6.1,0.8-9.1,0.9c-3,0-5.5-1.1-7.3-3.5c-0.1-0.1-0.1-0.2-0.2-0.3c0-0.1,0-0.2,0-0.3c1.5,0.4,3.1,0.8,4.6,0.9
			c0.5,0,0.8,0.4,1.1,0.8c0.3,0.4,0.5,0.8,1.1,0.8l0,0c0.1,0.5,0.6,0.6,1,0.5c0.3-0.1,0.5-0.4,0.5-0.8c0-0.4,0.1-0.9,0.2-1.3
			c1.6-0.3,3.2-0.6,4.8-1.1c2.9-1,5.4-2.6,7.6-4.6c1.1-1,2.2-1.4,3.5-0.9c0.2,0.1,0.5,0,0.8,0.1c1.1,0.4,2.3,0.8,3.4,1.3
			C54.4,63.2,57.7,66.7,59.7,71.3z"/>
		<path fill="#584D46" d="M74.3,36.8c0.1-0.2,0.2-0.4,0.3-0.5c0.9-0.5,1.5-1.2,2.1-1.9l0,0c0.3-0.2,0.3-0.5,0.5-0.7l0,0
			c1.4-2.3,2.2-4.7,2.5-7.4c0.2-1.9,0-3.8,0.3-5.7c1.3-0.5,2,0.3,2.8,1.1c0.5,2,0.1,4.1,0,6.1c-0.2,3.9-0.4,7.8-2.3,11.4
			c-0.9,1.6-2.2,2.8-3.8,3.7c-0.5,0.3-0.9,0.2-1.4-0.1c-1.4-1.1-2.5-2.5-3.5-4.1C72.5,37.7,73.8,37.8,74.3,36.8z"/>
		<path fill="#584D46" d="M67.4,15.2c-0.7,2.5-0.5,5.2-0.5,7.7c0,2.1-0.3,4.2-0.6,6.3c-0.1,0.6-0.2,1.2-0.6,1.8
			c-1.3,0-2.2-1.2-3.4-1.2c0,0,0,0,0,0c-0.1-0.2-0.3-0.3-0.5-0.5l0,0c-0.1-0.1-0.2-0.2-0.3-0.3l0,0c-0.1-0.1-0.1-0.2-0.3-0.3l0,0
			c-0.1-0.1-0.1-0.2-0.3-0.3l0,0c-0.1-0.1-0.1-0.2-0.3-0.3l0,0c-0.1-0.2-0.3-0.3-0.5-0.5c0,0,0,0,0,0c-0.4-3.5,0.4-6.9,1.5-10.1
			c0.4-1.3,0.9-2.6,1.6-3.8C65,13.7,66.3,14.2,67.4,15.2z"/>
		<path fill="#C53F26" d="M116.4,177.7c-2.7-2.8-5.4-5.5-8.1-8.3c-4-4.2-8.5-7.7-13.3-10.8c-1.9-1.2-3.7-2.6-5.4-4.2
			c-0.4-0.3-0.8-0.7-0.8-1.3c2,0.9,3.8,2.2,5.7,3.3c7.6,4.2,13.6,10.3,19.6,16.5c1.5,1.6,3,3.1,4.9,4.2c0.2,0.1,0.5,0.2,0.5,0.6
			C118.4,177.9,117.4,178.2,116.4,177.7z"/>
		<path fill="#6D4639" d="M15.2,51.3c-0.1-0.5-0.6-0.3-1-0.5c2-1,4.2-1.4,6.3-1.7c0.8-0.1,1.2,0.6,1.3,1.3c0.2,1.3-0.4,2.4-1,3.5
			c-0.2,0.5-0.7,0-1,0.2c0,0.4,0.5,0.3,0.7,0.5c-0.3,0.7-0.6,1.4-0.8,2.1c-0.3,0.8-0.8,0.9-1.4,0.3c-0.7-0.7-1.4-1.5-2.1-2.2
			c-0.7,0.3-0.6,0.8-0.5,1.2c0.2,0.6,0.5,1.3,0.8,1.9c0.9,1.4,1.3,1.4,2.5-0.2c-0.1,1.6-0.8,2.8-0.8,4.2c-2.5-2.5-4.2-5.3-5-8.6
			c0-0.2,0-0.3,0-0.5C13.1,51.5,13.6,51.1,15.2,51.3z"/>
		<path fill="#C53F26" d="M89,78.6c2-0.9,2.2-2.8,2.5-4.6c0.8-4.4,0.4-8.8,0.2-13.2c0.8,1.5,0.7,3.1,0.8,4.8c0.1,2.6,0.9,4.9,2.4,7
			c0,0.1-0.1,0.2-0.2,0.2c-0.4-0.3-0.8-0.6-1.3-0.9c-0.1,0-0.2,0-0.2,0.2c1.7,2.8,1.6,5.9,2.1,9L95.2,81c-0.8-0.3-1.2-1.1-1.8-1.5
			c-0.1,0-0.2,0-0.2,0.2c0.6,1.6,1,3.3,0.6,5.1C92.6,82.4,91.1,80.2,89,78.6z"/>
		<path fill="#F0A63E" d="M68.2,7.7c0.5-1.1,1.6-1.6,2.5-2.3c1.2-1,2.6-1.8,4-2.3c1.9-0.8,3.2-0.3,4.2,1.4c1.2,2.2,1.8,4.6,2.4,7
			c0.1,0.4,0.2,0.9,0.2,1.3c-1,0.3-1.7-0.5-2.5-0.8c-0.6-0.6-0.6-1.3-0.9-2c-0.4-1-0.7-1.9-1.5-2.7l0,0c-0.1-0.1-0.2-0.2-0.3-0.3
			l0,0c-0.7-0.7-1.5-0.6-2.3-0.3c-0.5,0.2-1.1,0.5-1.6,0.8l0,0c-0.1,0.1-0.2,0.2-0.3,0.3l0,0C72.3,7.9,72.2,8,72,8.2
			c-0.1,0.1-0.2,0.2-0.2,0.2c0,0,0,0,0,0c-0.1,0.1-0.1,0.2-0.2,0.3C70.4,8.8,69.3,8.3,68.2,7.7z"/>
		<path fill="#6D4639" d="M68.2,7.7c1.3,0,2.3,0.7,3.5,1c-0.2,0.2-0.3,0.5-0.6,0.5c-0.1,0.1-0.2,0.1-0.2,0.2
			c-0.2,0.3-0.4,0.5-0.6,0.8c-0.1,0.2-0.3,0.3-0.3,0.5l0,0c-0.4,0.3-0.4,0.9-0.7,1.2c0,0,0,0,0,0c-0.9,0.5-0.9,1.4-1.2,2.1
			c-0.2,0.4-0.3,0.8-0.5,1.2c-1.3-0.5-2.6-1-3.9-1.2C64.5,11.4,66,9.3,68.2,7.7z"/>
		<path fill="#584D46" d="M59,26.7c-0.9-0.7-2.1-0.9-3.2-1.5c2.1-3.4,4.2-6.8,6.3-10.2c0.1,0,0.2,0.1,0.3,0.1
			c-0.5,1.9-1.3,3.7-1.8,5.6c-0.4,2-0.7,4-0.7,6C59.6,27,59.3,26.7,59,26.7C59,26.7,59,26.7,59,26.7z"/>
		<path fill="#6D4639" d="M79.2,11.8c0.9,0.1,1.6,0.8,2.4,0.9c0.7,2.9,1.2,5.9,1.2,8.9c-0.9-0.4-1.7-1-2.7-1.2
			c-0.3-0.1-0.4-0.4-0.4-0.7c0-2.5-0.3-5-0.7-7.5C79,12.1,79.1,11.9,79.2,11.8z"/>
		<path fill="#C53F26" d="M86.1,136.6c-1.2-1.7-2.1-3.6-3.6-5.2c-0.4-0.4-0.3-0.7,0.2-1c1.7-1.2,3.2-2.6,4.7-4
			c-0.4,2.5-0.7,4.9-1.1,7.4C86.2,134.7,86.2,135.7,86.1,136.6z"/>
		<path fill="#584D46" d="M29.8,314.9c0-2.3,1-3.9,2.8-5.3c-0.2,1.5-0.6,2.8-0.8,4.2C31.7,314.6,30.6,314.4,29.8,314.9z"/>
		<path fill="#F0A63E" d="M65,7c1.6-1.2,3.3-2.2,5.6-2.4c-1.4,1.2-2.5,2.2-3.7,3.2C66.2,7.8,65.4,7.9,65,7z"/>
		<path fill="#6D4639" d="M65,7c0.6,0.2,1.3,0.5,1.9,0.7c-0.6,0.7-1.2,1.4-1.9,2.2c-0.7-0.4-1.4-0.8-2.2-1.3C63.6,8,64.2,7.4,65,7z"
			/>
		<path fill="#584D46" d="M41,313.6c-0.8,3.9-0.6,3.6-2.5,3.8C39,315.9,39.5,314.6,41,313.6z"/>
		<path fill="#FEFEFE" d="M27.8,68.2c-0.3-0.4-0.7-0.9-1.2-1.5c0.9-0.1,1.6-0.1,2.4-0.2c0,0.6-0.1,1.2-0.1,1.7
			C28.5,68.7,28.2,68.1,27.8,68.2C27.8,68.2,27.8,68.2,27.8,68.2z"/>
		<path fill="#C53F26" d="M88.8,153.2c-0.4-0.1-0.4-0.4-0.5-0.7C88.5,152.7,88.9,152.7,88.8,153.2z"/>
		<path fill="#C53F26" d="M97.3,47.9c0.1,0,0.4-0.1,0.4-0.1c0.1,0.2-0.1,0.2-0.2,0.3C97.4,48,97.4,48,97.3,47.9z"/>
		<path fill="#584D46" d="M68.8,33.6c-0.1,0.1-0.3,0.2-0.4,0.3c0-0.1-0.1-0.1,0-0.2c0-0.2,0.1-0.2,0.2-0.3
			C68.7,33.4,68.8,33.4,68.8,33.6z"/>
		<path fill="#C53F26" d="M95.3,80.9c0,0.1,0.1,0.1,0.1,0.2C95.3,81,95.3,81,95.3,80.9C95.2,81,95.3,80.9,95.3,80.9z"/>
		<path fill="#FAF4C4" d="M59.3,122c0,0.1,0.1,0.1,0.1,0.2c-0.1,0-0.1,0-0.2,0C59.2,122.1,59.2,122,59.3,122z"/>
		<path fill="#FAF4C4" d="M32,138.4c-0.1,0.1-0.2,0.2-0.3,0c0,0,0.1-0.2,0.1-0.2C31.9,138.3,31.9,138.3,32,138.4z"/>
		<path fill="#FEFEFE" d="M126.6,277.1c-0.2-0.3-0.1-0.4,0.2-0.3C126.7,276.9,126.6,277,126.6,277.1z"/>
		<path fill="#C53F26" d="M47.4,4.7c0-0.1,0-0.2,0-0.3c0.1,0,0.2,0.1,0.3,0.1C47.5,4.6,47.4,4.6,47.4,4.7z"/>
		<path fill="#C53F26" d="M37.8,32.3c0.1,0,0.2-0.1,0.3-0.1c0.2,0.1,0,0.2-0.1,0.3C37.9,32.4,37.9,32.4,37.8,32.3z"/>
		<path fill="#C53F26" d="M94.8,72.5c0,0.1,0.1,0.2,0.1,0.2c-0.1,0-0.2,0-0.3-0.1C94.7,72.6,94.8,72.5,94.8,72.5z"/>
		<path fill="#FEFEFE" d="M97,43.8c-0.1,0-0.2,0.1-0.3,0.1c0-0.1,0-0.2,0-0.3C96.8,43.7,96.9,43.7,97,43.8z"/>
		<path fill="#F0A63E" d="M50.4,224.5c1.4,0.2,2.9,0.8,4.3,1.4c4.9,1.8,9.7,2,14.6,0.3c1.5-0.5,3.1-1,4.7-1.5c0.9-0.3,1.7,0,2.2,0.7
			c0.5,0.7,0,1.4-0.4,2c-3.2,4.6-7.4,7.6-12.9,8.8c-1.2,0.2-2.3-0.2-3.4-0.6c-4.1-1.5-7.6-4-10.3-7.6c-0.2-0.3-0.4-0.6-0.6-0.9
			C48,225.5,48.6,224.5,50.4,224.5z"/>
		<path fill="#C53F26" d="M64.6,215.3c-1.4-0.1-2.8-0.5-4.1-1.1c-3.3-1.5-6.2-3.6-8.5-6.5c-0.5-0.6-1-1.3-1.3-2
			c-0.3-0.9-0.1-1.6,0.9-1.8c1-0.3,1.9,0,2.8,0.3c2.5,0.9,5,1.7,7.6,2.2c3,0.5,5.8,0,8.6-0.8c1.4-0.4,2.8-0.9,4.2-1.4
			c0.3-0.1,0.7-0.3,1-0.3c0.9-0.2,1.9-0.3,2.5,0.6c0.6,0.9-0.1,1.7-0.6,2.4c-2.9,4.1-6.7,6.8-11.5,8.2c-0.3,0.1-0.6,0.2-0.9,0.2
			C65.2,215.3,64.9,215.3,64.6,215.3z"/>
		<path fill="#6D4639" d="M66.4,195.9c-2.2-0.1-4.1-1-5.9-2c-2.8-1.4-5.1-3.5-7-5.9c-0.3-0.4-0.7-0.9-0.9-1.4
			c-0.6-1.3-0.2-2.1,1.3-2.3c0.8-0.1,1.5,0.1,2.2,0.4c2.4,0.9,4.8,1.7,7.3,2.2c3.1,0.6,6.1,0.1,9.1-0.8c1.3-0.4,2.6-0.9,4-1.3
			c0.4-0.1,0.8-0.3,1.3-0.4c0.9-0.2,1.8-0.2,2.4,0.6c0.5,0.8,0,1.6-0.4,2.2c-1.8,2.7-4.1,4.9-7,6.4
			C70.7,194.8,68.6,195.8,66.4,195.9z"/>
		<path fill="#0C0A09" d="M80.9,84.3c4.8-0.1,7.4,4.3,7.2,8c-0.2,3.9-2,7.1-4.7,9.8c-1.8,1.8-3.4,1.9-5.2,0c-3-3.2-5.1-6.8-4.6-11.4
			C74.2,86.8,77.1,84.3,80.9,84.3z"/>
		<path fill="#0C0A09" d="M48.4,50.6c0.2,0.3-0.1,0.3-0.2,0.4c-1.4,0.7-2.8,1-4.3,1.2c-1.2,0.1-2-0.4-2.5-1.4
			c-2.1-3.6-1.1-8.7,2.1-11.3c2.4-1.9,6.4-1.7,9.1,0.6c1.1,1,2,2,2.6,3.4c0.8,2,0.6,3.1-1.2,4.5c-0.2,0.2-0.5,0.3-0.7,0.5
			c-0.1,0-0.2,0-0.2-0.2c0-0.3,0.2-0.6,0.4-0.8c1-1.3,1.1-2.2,0.2-3.6c-1.7-2.7-4.2-3.9-7.5-3.6c-0.1,0,0,0.1,0,0.1
			c0.6-0.1,0.8,0.2,0.8,0.8c-0.4,0.3-0.8,0.1-1.1-0.1c-1.1-0.5-2-0.1-2.8,0.7c-1,0.9-1.4,2.2-1.9,3.4c0.6-1.6,1.4-2.2,2.7-2.1
			c0.3,0.3,0.2,0.8,0.4,1.1c0.4,0.2,0.7-0.3,1.1-0.2c0.2,0,0.3,0.1,0.4,0.3c0.1,0.7-0.5,0.7-0.8,0.9c0,0.1-0.1,0.1-0.2,0.1
			c0.1,0,0.2-0.1,0.3-0.1c0.3-0.1,0.7-0.4,1.1-0.1c1.2,2.1,0.7,4.1-0.2,6.2c1,0.1,1.5-0.7,2.2-1.1c0.4,0,0.4,0.2,0.4,0.4
			C48.3,50.5,48.4,50.5,48.4,50.6z"/>
		<path fill="#C53F26" d="M56.7,54.2c-0.6-0.8-1.2-1.6-1.7-2.4c-0.5-0.8-0.2-1.3,0.8-1.3c0.6,0,1.2,0.1,1.8,0.3
			c0.9,0.4,1.5,0.2,1.9-0.7c0.3-0.6,0.7-1,1.2-1.5c0.6-0.6,1-0.4,1.3,0.3c0.3,0.7,0.3,1.5,0.3,2.2c0,0.7,0.2,1,0.9,1.1
			c0.8,0.1,1.6,0.3,2.3,0.8c0.6,0.4,0.7,0.9,0.1,1.3c-0.6,0.4-1.2,0.8-1.8,0.9c-0.9,0.3-1.2,0.8-1,1.7c0.1,0.6,0.1,1.3,0,1.9
			c-0.1,0.9-0.7,1.1-1.3,0.5c-0.6-0.5-1.1-1-1.6-1.6c-0.4-0.5-0.7-0.5-1.2-0.3c-0.7,0.3-1.4,0.5-2.2,0.7c-0.9,0.2-1.3-0.3-1-1.1
			C55.7,55.9,56.2,55.1,56.7,54.2z"/>
		<path fill="#C53F26" d="M50,32.6c0.5,0.4,1,0.8,1.5,1.2c0.6,0.4,1,1,1.6,1.4l0,0c0.2,0.2,0.3,0.5,0.5,0.7l0,0
			c0.5,0.6,0.8,1.3,1.2,1.9l0,0c0.1,0.3,0.2,0.5-0.3,0.5l0,0c-0.1-0.1-0.2-0.2-0.3-0.3l0,0C54.1,38.1,54.1,38,54,38l0,0
			c-0.1-0.1-0.2-0.2-0.3-0.3l0,0c-0.2-0.2-0.5-0.3-0.7-0.5l0,0c-0.2-0.2-0.3-0.3-0.5-0.5l0,0c-0.2-0.2-0.5-0.3-0.7-0.5l0,0
			c-0.1-0.1-0.2-0.2-0.3-0.3l0,0c-2.7-1.7-5.5-2.3-8.6-1.3c-0.5,0.2-0.9,0.1-1.3-0.4c-0.3-0.4-0.4-0.9-0.1-1.3
			c0.1-0.2,0.2-0.4,0.4-0.6l0,0c2.1-1.2,4.3-1,6.5-0.4c0.3,0.1,0.7,0.2,1,0.4l0,0C49.6,32.6,49.8,32.5,50,32.6z"/>
		<path fill="#0C0A09" d="M42,32.4c0.1,0.3-0.1,0.4-0.2,0.6c-0.2,0.4-0.3,0.8,0,1.2c0.4,0.5,0.8,0.4,1.3,0.3c2-0.6,3.9-0.6,5.8,0.1
			c1,0.3,1.9,0.7,2.7,1.4c-1.5-0.6-3-1.4-4.7-1.6c-1.2-0.1-2.4,0-3.5,0.3c-0.7,0.2-1.4,0.4-1.9-0.4C41,33.6,41.3,32.9,42,32.4z"/>
		<path fill="#0C0A09" d="M49.4,32.4c-1.9-0.5-3.7-1-5.7-0.5c-0.6,0.2-1.2,0.3-1.8,0.5c0-0.2,0.3-0.3,0-0.5c0,0,0,0,0,0
			c1.4-0.2,2.7-0.6,4.1-0.5C47.3,31.6,48.5,31.6,49.4,32.4z"/>
		<path fill="#6D4639" d="M56.8,62.2c0,0.5-0.3,0.9-0.8,0.9c-0.5,0.1-0.8-0.3-0.9-0.8c-0.1-0.5,0.2-0.8,0.7-0.9
			C56.5,61.4,56.8,61.7,56.8,62.2z"/>
		<path fill="#6D4639" d="M51.3,58.7c-0.1,0.4-0.3,0.8-0.8,0.8c-0.5,0-0.7-0.3-0.8-0.8c0-0.5,0.3-0.8,0.8-0.8
			C51,57.9,51.2,58.3,51.3,58.7z"/>
		<path fill="#0C0A09" d="M53,35.3c-0.7-0.3-1-1-1.6-1.4c0,0,0-0.1,0.1-0.1c0,0,0,0,0.1-0.1C51.9,34.4,52.7,34.6,53,35.3z"/>
		<path fill="#0C0A09" d="M54.7,38c-0.6-0.5-0.9-1.2-1.2-1.9C54.2,36.5,54.6,37.2,54.7,38z"/>
		<path fill="#0C0A09" d="M54.4,38.5c0.3-0.1,0.2-0.3,0.3-0.5c0.4,0.2,0.5,0.6,0.5,1C54.7,39.1,54.5,38.9,54.4,38.5z"/>
		<path fill="#0C0A09" d="M52.4,48.9c-0.4,0.2-0.8,0.5-1.2,0.7c-0.2,0-0.2-0.1-0.2-0.2c0.2-0.6,0.7-0.8,1.3-0.8
			C52.5,48.7,52.5,48.8,52.4,48.9z"/>
		<path fill="#0C0A09" d="M49.8,50.4c-0.4,0.1-0.8,0.6-1.4,0.3c0,0,0,0,0,0c0.2-0.7,0.7-0.7,1.2-0.6C49.8,50.1,49.9,50.2,49.8,50.4z
			"/>
		<path fill="#0C0A09" d="M53.2,48.4c-0.2,0.2-0.5,0.3-0.7,0.5c-0.1-0.1-0.1-0.1-0.2-0.2c0-0.5,0.3-0.6,0.7-0.5
			C53,48.3,53.1,48.4,53.2,48.4z"/>
		<path fill="#0C0A09" d="M60.4,27.9c0.4,0,0.5,0.2,0.5,0.5C60.6,28.4,60.5,28.1,60.4,27.9z"/>
		<path fill="#0C0A09" d="M61.9,29.3c0.3,0,0.5,0.1,0.5,0.5C62.1,29.8,61.9,29.7,61.9,29.3z"/>
		<path fill="#0C0A09" d="M53,37.2c0.4-0.1,0.6,0.2,0.7,0.5C53.4,37.8,53.2,37.5,53,37.2z"/>
		<path fill="#0C0A09" d="M52.5,36.8c0.3,0,0.5,0.1,0.5,0.5C52.8,37.2,52.5,37.1,52.5,36.8z"/>
		<path fill="#0C0A09" d="M51.8,36.3c0.4,0,0.6,0.2,0.7,0.5C52.2,36.8,52,36.6,51.8,36.3z"/>
		<path fill="#0C0A09" d="M53.5,36c-0.3-0.1-0.6-0.3-0.5-0.7C53.3,35.5,53.6,35.7,53.5,36z"/>
		<path fill="#0C0A09" d="M50,32.6c-0.2,0-0.5,0.1-0.6-0.2C49.7,32.3,49.8,32.4,50,32.6z"/>
		<path fill="#0C0A09" d="M50.8,49.9c-0.2,0.1-0.3,0.2-0.5,0.3c-0.1,0-0.2-0.1-0.2-0.2c0.1-0.3,0.3-0.3,0.6-0.3
			C50.8,49.6,50.8,49.7,50.8,49.9z"/>
		<path fill="#0C0A09" d="M50.3,50.1c-0.2,0.1-0.3,0.1-0.5,0.2c-0.1-0.1-0.1-0.1-0.2-0.2c0.1-0.3,0.2-0.3,0.5-0.2
			C50.1,50,50.2,50.1,50.3,50.1z"/>
		<path fill="#0C0A09" d="M51.2,49.6c-0.2,0.1-0.3,0.2-0.5,0.3c-0.1-0.1-0.1-0.1-0.2-0.2c0-0.3,0.2-0.3,0.5-0.3
			C51.1,49.5,51.2,49.5,51.2,49.6z"/>
		<path fill="#0C0A09" d="M51.6,36c0.2,0,0.3,0.1,0.3,0.3C51.7,36.3,51.5,36.3,51.6,36z"/>
		<path fill="#0C0A09" d="M61.6,29.1c0.1,0.1,0.2,0.2,0.3,0.3C61.7,29.4,61.6,29.3,61.6,29.1z"/>
		<path fill="#0C0A09" d="M61.4,28.8c0.1,0.1,0.2,0.2,0.3,0.3C61.4,29.2,61.3,29.1,61.4,28.8z"/>
		<path fill="#0C0A09" d="M61.2,28.6c0.1,0.1,0.2,0.2,0.3,0.3C61.2,28.9,61.1,28.8,61.2,28.6z"/>
		<path fill="#0C0A09" d="M60.9,28.4c0.1,0.1,0.2,0.2,0.3,0.3C60.9,28.7,60.9,28.6,60.9,28.4z"/>
		<path fill="#0C0A09" d="M54.2,38.2c0.2,0,0.3,0.1,0.3,0.3C54.2,38.5,54.2,38.4,54.2,38.2z"/>
		<path fill="#0C0A09" d="M54,38c0.2,0,0.2,0.1,0.3,0.3C54,38.3,53.9,38.2,54,38z"/>
		<path fill="#0C0A09" d="M53.7,37.7c0.2,0,0.2,0.1,0.3,0.3C53.8,38,53.7,37.9,53.7,37.7z"/>
		<path fill="#0C0A09" d="M34.5,29.1c0-0.1,0.1-0.2,0.1-0.4c0-0.2-0.1-0.2-0.2-0.2c-1.4,0.3-2.6,1.1-4.1,1.2
			c0.2-0.7,0.6-1.1,0.9-1.6c0.3,0.4-0.2,0.6,0,1.1c1.7-0.5,3.3-1.1,4.9-1.9c0.2-0.1,0.2,0,0.2,0.2c-0.5,0.6-1.1,1.2-1.6,1.7
			C34.6,29.2,34.5,29.2,34.5,29.1z"/>
		<path fill="#0C0A09" d="M32.7,35.4c-0.3,0.2-0.5,0.4-0.8,0.7c0.3-2,0.7-3.9,1.9-5.5c-0.7,1.3-0.9,2.8-1.4,4.2
			c-0.1,0.2-0.4,0.5,0.2,0.5l0.1,0L32.7,35.4z"/>
		<path fill="#0C0A09" d="M35.2,24.2c1.3-1,2.9-1.2,4.5-1.6c0.2,0.1,0.2,0.2,0,0.3c-1.5,0.2-3,0.7-4.4,1.3
			C35.3,24.3,35.3,24.3,35.2,24.2z"/>
		<path fill="#0C0A09" d="M32.9,26.2c-0.4,0.6-0.8,1.1-1.3,1.7c0.1-0.8,0.6-1.4,1.1-1.8C32.8,26.2,32.9,26.2,32.9,26.2z"/>
		<path fill="#7F2818" d="M39.8,23c0-0.1,0-0.2,0-0.3c0.5-0.1,1.1-0.2,1.7,0.1C40.9,23.2,40.3,23,39.8,23z"/>
		<path fill="#0C0A09" d="M34.7,29.2c-0.2,0.4-0.3,0.8-0.8,1.2c0.1-0.7,0.3-1,0.7-1.4C34.6,29.1,34.6,29.1,34.7,29.2z"/>
		<path fill="#0C0A09" d="M35.4,33.4c0.4-0.5,0.6-0.7,1.1-0.7C36.3,33.2,36,33.3,35.4,33.4z"/>
		<path fill="#0C0A09" d="M33.2,25.6c0.2-0.3,0.4-0.5,0.8-0.6c0.1,0,0.1,0,0.1,0.1c-0.3,0.2-0.5,0.4-0.8,0.6
			C33.3,25.8,33.2,25.7,33.2,25.6z"/>
		<path fill="#0C0A09" d="M33.8,34.3c0.2-0.3,0.4-0.4,0.7-0.5c0.1,0,0.2,0,0.2,0.2c-0.2,0.2-0.5,0.3-0.7,0.5
			C33.8,34.5,33.8,34.5,33.8,34.3z"/>
		<path fill="#0C0A09" d="M36.1,27.3c0.2-0.2,0.5-0.4,0.8-0.3l0,0c-0.1,0.4-0.4,0.4-0.7,0.5C36.2,27.4,36.1,27.3,36.1,27.3z"/>
		<path fill="#0C0A09" d="M34.5,33.8c0.2-0.2,0.4-0.4,0.8-0.4c-0.1,0.4-0.4,0.5-0.6,0.6C34.6,34,34.6,33.9,34.5,33.8z"/>
		<path fill="#0C0A09" d="M34,25c0.1-0.3,0.4-0.4,0.7-0.5c-0.1,0.4-0.4,0.5-0.6,0.6C34.1,25.1,34.1,25,34,25z"/>
		<path fill="#0C0A09" d="M33.9,34.5c-0.2,0.1-0.4,0.3-0.6,0.4c-0.1,0-0.2,0-0.1-0.2c0.2-0.1,0.4-0.3,0.6-0.4
			C33.9,34.4,33.9,34.4,33.9,34.5z"/>
		<path fill="#0C0A09" d="M32.8,35c0.1-0.1,0.3-0.2,0.4-0.3c0,0.1,0.1,0.1,0.1,0.2c-0.1,0.1-0.3,0.2-0.4,0.3
			C32.9,35.2,32.8,35.1,32.8,35z"/>
		<path fill="#0C0A09" d="M24.8,31.4c0.1-0.1,0.1-0.3,0.3-0.2c0.1,0.1,0,0.3-0.1,0.4C24.9,31.5,24.8,31.4,24.8,31.4z"/>
		<path fill="#0C0A09" d="M39.8,30.7c0.1-0.1,0.2-0.2,0.4-0.1c-0.1,0.1-0.2,0.2-0.3,0.2C39.9,30.8,39.8,30.8,39.8,30.7z"/>
		<path fill="#0C0A09" d="M51.6,12C51.6,12.1,51.6,12.1,51.6,12c0.1,0.1,0.1,0.1,0.1,0.1C51.6,12.1,51.6,12.1,51.6,12
			C51.6,12,51.6,12,51.6,12z"/>
		<path fill="#0C0A09" d="M55.3,11.1C55.3,11.1,55.3,11.1,55.3,11.1C55.4,11.2,55.4,11.2,55.3,11.1C55.3,11.3,55.3,11.3,55.3,11.1
			C55.2,11.2,55.3,11.2,55.3,11.1z"/>
		<path fill="#0C0A09" d="M56.7,10.3c0,0.1,0,0.2,0.1,0.3c-0.1,0-0.2-0.1-0.2-0.1C56.6,10.4,56.7,10.3,56.7,10.3z"/>
		<path fill="#0C0A09" d="M32.6,35.3c0.1-0.1,0.2-0.2,0.2-0.2c0.1,0,0.1,0.1,0.2,0.2c-0.1,0.1-0.2,0.1-0.3,0.2
			C32.7,35.4,32.6,35.3,32.6,35.3z"/>
		<path fill="#0C0A09" d="M25,31.5c-0.1,0.1-0.1,0.2-0.2,0.3c-0.1-0.1-0.1-0.1-0.2-0.2c0.1-0.1,0.2-0.2,0.2-0.2
			C24.9,31.4,24.9,31.4,25,31.5z"/>
		<path fill="#0C0A09" d="M33.4,25.8c-0.1,0.1-0.2,0.2-0.2,0.2C33,26,33,25.9,33,25.8c0.1-0.1,0.2-0.2,0.3-0.2
			C33.3,25.7,33.3,25.7,33.4,25.8z"/>
		<path fill="#0C0A09" d="M36.9,26.9C37,26.9,37,26.9,36.9,26.9c0.1-0.1,0.1-0.1,0.1-0.1C37,26.9,37,26.9,36.9,26.9
			C36.9,26.9,36.9,26.9,36.9,26.9z"/>
		<path fill="#0C0A09" d="M25.1,26.8C25.1,26.8,25.1,26.8,25.1,26.8C25.1,26.8,25.1,26.9,25.1,26.8C24.9,26.8,24.9,26.8,25.1,26.8
			C25.1,26.7,25.1,26.8,25.1,26.8z"/>
		<path fill="#0C0A09" d="M32.8,26.1c0.1-0.1,0.1-0.2,0.2-0.3c0.1,0,0.1,0.1,0.2,0.2c-0.1,0.1-0.2,0.2-0.2,0.2
			C32.9,26.2,32.8,26.2,32.8,26.1z"/>
		<path fill="#0C0A09" d="M35.3,24.4c-0.1,0-0.3,0.1-0.3,0.1c-0.1-0.1,0.1-0.2,0.2-0.2C35.3,24.3,35.3,24.3,35.3,24.4z"/>
		<path fill="#0C0A09" d="M53,94.1c0.1-0.3,0.3-0.6,0.7-0.7c0,0.5-0.3,0.7-0.5,0.9C53,94.2,53,94.2,53,94.1z"/>
		<path fill="#0C0A09" d="M54.7,91.7c0.1,0.4-0.1,0.7-0.5,1l0,0C54.2,92.2,54.4,91.9,54.7,91.7L54.7,91.7z"/>
		<path fill="#0C0A09" d="M54.2,92.7c0,0.2-0.1,0.5-0.4,0.4C53.8,92.8,53.9,92.7,54.2,92.7C54.2,92.6,54.2,92.7,54.2,92.7z"/>
		<path fill="#0C0A09" d="M54.7,91.7c0-0.1,0.1-0.2,0.1-0.3C54.9,91.6,54.9,91.7,54.7,91.7C54.7,91.7,54.7,91.7,54.7,91.7z"/>
		<path fill="#584D46" d="M60,83.1c0,0-0.1,0.1-0.1,0.1C59.9,83.2,59.9,83.1,60,83.1C60,83.1,60,83.1,60,83.1z"/>
		<path fill="#0C0A09" d="M52.7,94.3c0.1-0.1,0.2-0.2,0.2-0.2c0.1,0.1,0.1,0.1,0.2,0.2c-0.1,0.1-0.2,0.2-0.2,0.3
			C52.8,94.5,52.7,94.4,52.7,94.3z"/>
		<path fill="#0C0A09" d="M52.9,94.5c-0.1,0-0.2,0.1-0.3,0.1c-0.2-0.1,0-0.2,0.1-0.3C52.8,94.4,52.8,94.4,52.9,94.5z"/>
		<path fill="#0C0A09" d="M38.8,109.1c0.1,0,0.2-0.1,0.3-0.1c0,0.1-0.1,0.1-0.1,0.2C38.9,109.2,38.8,109.2,38.8,109.1z"/>
		<path fill="#0C0A09" d="M94.4,46.5c-0.1,0.1-0.2,0.2-0.4,0.3c0,0-0.1-0.1-0.1-0.1c0.1-0.2,0.2-0.3,0.2-0.5
			C94.3,46.4,94.4,46.5,94.4,46.5z"/>
		<path fill="#0C0A09" d="M94.1,46.9C94,46.9,94,47,94,47C93.8,46.9,93.9,46.8,94.1,46.9C94,46.8,94.1,46.8,94.1,46.9z"/>
		<path fill="#0C0A09" d="M79.2,11.8c0.3,2.9,0.6,5.8,0.9,8.6c0.1,3.4,0.1,6.9-1.2,10.1c-0.4,1.1-0.7,2.3-1.7,3.1
			c-0.1-0.2,0-0.4,0.1-0.5c1.5-2.5,2.2-5.1,2.3-7.9c0.1-4.1-0.1-8.3-0.8-12.4c-0.3-2-1-3.8-2.1-5.5c0.9,0.4,1,1.3,1.4,2
			C78.6,10.1,78.6,11.1,79.2,11.8z"/>
		<path fill="#584D46" d="M71.4,27.5c0.8-1.7,1.1-3.6,2-5.2c0.1,0,0.2,0.1,0.2,0.2c-0.7,1.7-1,3.6-2.1,5.2
			C71.4,27.7,71.4,27.6,71.4,27.5z"/>
		<path fill="#87847C" d="M73.5,13.1c-0.6,1.9-1,3.9-2,5.7c-0.1,0-0.2-0.1-0.2-0.2c0.7-1.9,1.1-3.9,2-5.7C73.5,13,73.5,13,73.5,13.1
			z"/>
		<path fill="#0C0A09" d="M72.7,7.5c1-0.9,2.1-1.6,3.6-0.9c0.2,0.1,0.4,0.2,0.3,0.4c-0.9-0.6-1.8-0.5-2.8,0
			C73.4,7.2,73.2,7.7,72.7,7.5z"/>
		<path fill="#0C0A09" d="M76.8,34.3c-0.4,1-1,1.7-2.1,1.9C75.4,35.6,76.1,35,76.8,34.3z"/>
		<path fill="#584D46" d="M71.4,28c-0.2,0.3,0,0.4,0.3,0.4c0.5-0.1,0.9-0.1,1.4,0.2c-0.8,0.1-1.6,0.2-2.5,0.3c0.1-0.5,0.4-0.7,0.7-1
			C71.3,27.9,71.4,27.9,71.4,28z"/>
		<path fill="#584D46" d="M73.7,20.9c-0.6-0.2-0.9,0.5-1.6,0.4c0.6-0.5,1.2-0.8,1.8-1c0.1,0,0.2,0,0.2,0.1c0,0.2-0.1,0.3-0.2,0.4
			C73.8,20.9,73.7,20.9,73.7,20.9z"/>
		<path fill="#584D46" d="M73.4,22.3c-0.1-0.5,0.7-0.8,0.3-1.4l0,0c0.1-0.1,0.3-0.1,0.4-0.1c0.1,0,0.2,0.1,0.1,0.2
			c-0.2,0.5-0.4,1-0.6,1.5C73.5,22.4,73.4,22.4,73.4,22.3z"/>
		<path fill="#0C0A09" d="M69.1,11.8c0-0.6,0.2-1,0.7-1.2C69.9,11.2,69.6,11.6,69.1,11.8z"/>
		<path fill="#584D46" d="M73.8,20.3c0.2-0.1,0.5-0.2,0.7-0.4c0.2,0.5-0.1,0.7-0.3,1.1c0,0-0.1-0.1-0.1-0.1
			c-0.1-0.1-0.1-0.3-0.2-0.4C73.9,20.4,73.8,20.4,73.8,20.3z"/>
		<path fill="#0C0A09" d="M77.2,33.6c0,0.4-0.1,0.6-0.5,0.7C76.7,33.9,76.8,33.7,77.2,33.6z"/>
		<path fill="#0C0A09" d="M72,8.2c0.2-0.1,0.1-0.5,0.5-0.4C72.6,8.1,72.2,8,72,8.2z"/>
		<path fill="#0C0A09" d="M69.8,10.6c-0.1-0.3,0.1-0.4,0.3-0.5C70.2,10.4,70.2,10.7,69.8,10.6z"/>
		<path fill="#0C0A09" d="M70.8,9.4C70.7,9.1,71,9.3,71,9.2C71.1,9.4,70.9,9.3,70.8,9.4z"/>
		<path fill="#584D46" d="M71.8,21.7c-0.1,0.1-0.3,0.2-0.5,0.1c0-0.3,0.2-0.2,0.4-0.2C71.8,21.6,71.8,21.6,71.8,21.7z"/>
		<path fill="#87847C" d="M73.4,13c0-0.1,0.1-0.2,0.1-0.4c0.2,0.2,0.1,0.4,0,0.5C73.5,13,73.4,13,73.4,13z"/>
		<path fill="#584D46" d="M69.1,33.2c-0.1,0.1-0.2,0.2-0.4,0.4c-0.1-0.1-0.1-0.1-0.2-0.2c0.1-0.1,0.2-0.3,0.4-0.4
			C69.1,33,69.1,33.1,69.1,33.2z"/>
		<path fill="#584D46" d="M69,33c0.1-0.1,0.2-0.2,0.4-0.3c0.1,0,0.2,0.1,0.2,0.1c-0.1,0.1-0.3,0.3-0.4,0.4C69.1,33.1,69,33,69,33z"
			/>
		<polygon fill="#0C0A09" points="71.8,8.4 71.8,8.4 71.8,8.4 		"/>
		<path fill="#87847C" d="M71.1,19.6c-0.1,0.1-0.1,0.2-0.2,0C70.9,19.6,71,19.5,71.1,19.6C71,19.5,71.1,19.5,71.1,19.6z"/>
		<path fill="#87847C" d="M71,19.5c0.1-0.1,0.1-0.1,0.2-0.2C71.3,19.4,71.2,19.5,71,19.5C71.1,19.5,71,19.5,71,19.5z"/>
		<path fill="#87847C" d="M71.6,18.8c-0.1,0.1-0.2,0.2-0.2,0.2c-0.1-0.1-0.1-0.2,0-0.3C71.4,18.7,71.5,18.8,71.6,18.8z"/>
		<path fill="#0C0A09" d="M72.5,7.7c0-0.2,0.1-0.3,0.3-0.3C72.9,7.8,72.7,7.8,72.5,7.7z"/>
		<path fill="#0C0A09" d="M76.5,7c0.2-0.1,0.3,0,0.3,0.3C76.6,7.3,76.5,7.2,76.5,7z"/>
		<path fill="#584D46" d="M69.7,32.6c-0.1,0.1-0.1,0.2-0.2,0.2c-0.1,0-0.1-0.1-0.2-0.1c0.1-0.1,0.2-0.2,0.2-0.2
			C69.7,32.4,69.7,32.5,69.7,32.6z"/>
		<path fill="#584D46" d="M70,32.3c-0.1,0.1-0.2,0.2-0.2,0.3c-0.1-0.1-0.1-0.1-0.2-0.2c0.1-0.1,0.1-0.2,0.2-0.3
			C69.9,32.1,69.9,32.2,70,32.3z"/>
		<path fill="#584D46" d="M69.8,32.1c0.1-0.1,0.2-0.2,0.2-0.2c0.2,0.1,0.1,0.2,0,0.4C69.9,32.3,69.8,32.2,69.8,32.1z"/>
		<path fill="#584D46" d="M71.5,27.7c0,0.1-0.1,0.2-0.1,0.3c-0.1,0-0.1-0.1-0.2-0.1c0-0.1,0.1-0.2,0.1-0.3
			C71.4,27.6,71.5,27.6,71.5,27.7z"/>
		<path fill="#584D46" d="M71.7,21.6c0.1-0.1,0.2-0.3,0.3-0.1c0,0-0.1,0.2-0.2,0.2C71.8,21.7,71.7,21.6,71.7,21.6z"/>
		<path fill="#6D4639" d="M50.7,63.4c0.5,0,0.7,0.3,0.7,0.7c0,0.5-0.2,0.8-0.8,0.8c-0.5,0-0.7-0.3-0.7-0.8
			C50,63.7,50.2,63.4,50.7,63.4z"/>
		<path fill="#6D4639" d="M48.6,66.1c-0.1,0.4-0.3,0.7-0.7,0.7c-0.4,0-0.5-0.3-0.5-0.7c0-0.4,0.2-0.7,0.7-0.7
			C48.4,65.4,48.6,65.7,48.6,66.1z"/>
		<path fill="#6D4639" d="M52.1,67.7c-0.4,0-0.6-0.2-0.6-0.6c0-0.4,0.3-0.6,0.6-0.6c0.4,0,0.6,0.2,0.6,0.6
			C52.7,67.5,52.5,67.7,52.1,67.7z"/>
		<path fill="#0C0A09" d="M16.8,52.1c-0.2,0-0.4,0-0.5-0.2l0,0C16.5,51.9,16.7,51.9,16.8,52.1L16.8,52.1z"/>
		<path fill="#0C0A09" d="M17.5,52.6c-0.2,0-0.4,0-0.5-0.2l0,0C17.2,52.3,17.4,52.4,17.5,52.6L17.5,52.6z"/>
		<path fill="#0C0A09" d="M18.7,53.6c0.1,0,0.2,0,0.4,0.1C18.8,53.8,18.8,53.7,18.7,53.6L18.7,53.6z"/>
		<path fill="#0C0A09" d="M18.5,53.3c0.1,0.1,0.2,0.2,0.2,0.3c0,0,0,0,0,0C18.6,53.5,18.5,53.4,18.5,53.3
			C18.4,53.3,18.5,53.3,18.5,53.3z"/>
		<path fill="#0C0A09" d="M18.4,53.3c-0.1,0-0.1-0.1-0.2-0.1C18.4,53.1,18.4,53.2,18.4,53.3C18.5,53.3,18.4,53.3,18.4,53.3z"/>
		<path fill="#0C0A09" d="M17.7,52.8c0.1,0,0.1,0.1,0.2,0.1C17.8,53.1,17.8,52.9,17.7,52.8C17.7,52.8,17.7,52.8,17.7,52.8z"/>
		<path fill="#0C0A09" d="M17.5,52.6c0.1,0.1,0.2,0.2,0.2,0.2c0,0,0,0,0,0C17.6,52.8,17.5,52.8,17.5,52.6
			C17.5,52.6,17.5,52.6,17.5,52.6z"/>
		<path fill="#0C0A09" d="M17,52.4c-0.1-0.1-0.2-0.2-0.2-0.2c0,0,0,0,0,0C16.9,52.2,16.9,52.3,17,52.4C17,52.4,17,52.4,17,52.4z"/>
		<path fill="#0C0A09" d="M16.3,51.9c-0.1,0-0.1-0.1-0.2-0.1C16.3,51.7,16.3,51.8,16.3,51.9C16.3,51.9,16.3,51.9,16.3,51.9z"/>
		<polygon fill="#0C0A09" points="15.7,51.5 15.7,51.5 15.7,51.5 		"/>
		<path fill="#0C0A09" d="M93.2,79.6c0-0.1,0-0.2-0.1-0.3c0.1,0,0.2,0.1,0.2,0.1C93.3,79.5,93.3,79.5,93.2,79.6z"/>
		<path fill="#0C0A09" d="M93.2,71.9c0-0.1,0-0.2-0.1-0.3c0.1,0,0.2,0.1,0.2,0.1C93.3,71.8,93.3,71.8,93.2,71.9z"/>
		<path fill="#87847C" d="M74.2,92.9c-0.1-6.3,5-9.7,9.8-7.3c2.6,1.3,3.6,3.8,3.5,6.6c-0.1,4.1-2.1,7.3-5,10c-1,0.9-2.2,1-3.2,0
			C76.3,99.5,74.4,96.2,74.2,92.9z"/>
		<path fill="#FEFEFE" d="M51,49.4c-0.2,0.1-0.3,0.2-0.5,0.3c-0.2,0-0.4,0-0.5,0.2c-0.2,0-0.4,0-0.5,0.2c-0.4,0.1-0.9,0.2-1.2,0.5
			c-0.7-0.1,0.1-0.5-0.2-0.7c0-0.1,0-0.1,0-0.2c1-2.4,1.3-4.7-0.2-7c-0.4-0.6-1.1-1-1.2-1.8c-0.3-0.6-0.9-0.5-1.3-0.9
			c3.5-1,7.9,1.4,8.9,4.8c0.4,1.5-0.4,2.5-1.4,3.3c-0.2,0.2-0.5,0.3-0.7,0.5C51.9,48.9,51.4,49.2,51,49.4z"/>
		<path fill="#F0A63E" d="M46.8,41c0.6,0.4,0.9,1,1.4,1.5c1.2,2.5,1.4,5,0,7.4c0,0,0,0,0,0c-0.9,1-2,1.5-3.4,1.6
			c1.6-2.1,1.8-4.3,0.9-6.7c0.1-0.2,0.2-0.4,0.5-0.5c-0.2-0.1-0.4,0.1-0.7,0c-0.1-0.1-0.2-0.3-0.3-0.4c0.1-0.4,0.5-0.6,0.7-0.9
			c0.3-0.4,0.2-0.8-0.2-1.1c-0.4-0.3-0.7-0.2-1,0.2c-0.3,0.3-0.4,0.9-0.9,1c-1.8-0.1-2.3,1.3-3.1,2.5c0.3-1.9,1.1-3.6,2.7-4.7
			c0.7-0.5,1.4-0.5,2.2-0.2C46,40.8,46.3,41.2,46.8,41z"/>
		<path fill="#FEFEFE" d="M43.8,43.1c0.2-0.3,0.4-0.7,0.6-1c0.3-0.4,0.6-0.8,1.2-0.6c0.4,0.1,0.8,0.4,0.9,0.8
			c0.2,0.6-0.2,0.9-0.6,1.2c-0.2,0.2-0.4,0.3-0.7,0.5c-0.5,0.1-0.9,0.7-1.5,0.6C43.4,44,43.7,43.6,43.8,43.1z"/>
		<path fill="#FEFEFE" d="M45.6,44.4c0.4-0.2,0.8-0.3,1.4-0.6c-0.2,0.7-0.9,0.7-1.2,1.1c-0.3,0.1-0.7,0.3-1,0.4
			c-0.1,0-0.2-0.1-0.2-0.2C44.9,44.9,45.2,44.6,45.6,44.4z"/>
		<path fill="#FEFEFE" d="M44.7,45.3c-0.1,0.1-0.2,0.2-0.4,0c0,0,0.1-0.1,0.2-0.2C44.6,45.2,44.7,45.2,44.7,45.3z"/>
		<path fill="#C53F26" d="M34.4,28.4c0.1,0,0.2,0,0.3,0c0,0.1-0.1,0.2-0.1,0.3C34.6,28.6,34.5,28.5,34.4,28.4z"/>
		<path fill="#FAF4C4" d="M73.9,20.5c0.3,0.1,0.2,0.2,0.2,0.4c-0.1,0-0.3,0.3-0.4,0C73.5,20.6,73.9,20.7,73.9,20.5z"/>
		<path fill="#0C0A09" d="M48.2,50c0.5-1.5,0.9-2.9,0.7-4.5c-0.1-1-0.8-1.9-0.8-2.9C49.7,44.7,49.7,48.2,48.2,50z"/>
	</g>
</g>
</svg>
